<svg width="15" height="15" viewBox="0 0 15 15" fill="none" xmlns="http://www.w3.org/2000/svg">
<g clip-path="url(#clip0_49_57)">
<path d="M10.976 8.22626H4.02397C3.63566 8.22626 3.32214 7.91274 3.32214 7.52444V7.47842C3.32214 7.09011 3.63566 6.7766 4.02397 6.7766H10.9732C11.3615 6.7766 11.675 7.09011 11.675 7.47842V7.52444C11.6778 7.90987 11.3615 8.22626 10.976 8.22626Z" fill="#30303C"/>
<path d="M8.22628 4.02397V10.9732C8.22628 11.3615 7.90988 11.6778 7.52445 11.6778H7.47843C7.09013 11.6778 6.77661 11.3643 6.77661 10.976V4.02397C6.77661 3.63566 7.09013 3.32214 7.47843 3.32214H7.52445C7.90988 3.32214 8.22628 3.63854 8.22628 4.02397Z" fill="#30303C"/>
<path d="M7.50145 0.49472C3.63281 0.49472 0.49762 3.62991 0.49762 7.49856C0.49762 11.3672 3.63281 14.5024 7.50145 14.5024C11.3701 14.5024 14.5053 11.3672 14.5053 7.49856C14.5053 3.62991 11.3672 0.49472 7.50145 0.49472ZM7.50145 13.5762C4.14479 13.5762 1.42379 10.8552 1.42379 7.49856C1.42379 4.14189 4.14479 1.42377 7.50145 1.42377C10.8581 1.42377 13.5762 4.14477 13.5762 7.50143C13.5762 10.8581 10.8552 13.5762 7.50145 13.5762Z" fill="#30303C"/>
</g>
<defs>
<clipPath id="clip0_49_57">
<rect width="15" height="15" fill="white"/>
</clipPath>
</defs>
</svg>
