<svg width="275" height="84" viewBox="0 0 275 84" fill="none" xmlns="http://www.w3.org/2000/svg">
<path d="M33.1708 78.7481C33.725 65.5737 31.8491 53.252 24.0894 42.3799C24.0467 42.2946 24.132 42.2093 24.1746 42.2519C27.6708 44.5969 30.2289 47.7946 32.3607 51.376C34.4925 55 35.7715 58.9225 36.6243 63.0582C36.6243 63.1434 36.7522 63.1434 36.7522 63.0582C40.4188 54.1473 40.4615 45.0233 38.5002 35.6861C38.5002 35.6434 38.4576 35.6008 38.415 35.6434C32.5739 36.624 28.3529 33.5543 24.5584 30.0155C21.4886 27.1163 18.7599 23.7481 15.8607 20.5504C15.5196 20.2093 15.2638 19.783 14.7948 19.1861C14.7522 19.1434 14.6669 19.1434 14.6669 19.1861C14.3684 19.8682 14.1553 20.3372 13.9847 20.8915C10.4886 31.2946 11.6824 41.4419 15.9033 51.376C17.9498 56.1512 20.6359 60.5853 23.8336 64.6783C24.132 65.0194 24.3878 65.4031 24.5157 65.8295C16.2444 59.2636 10.1475 51.2054 8.14364 40.5892C6.13976 29.7597 8.65527 19.7403 14.1126 10.0194C14.1553 9.97675 14.1979 9.97675 14.2405 10.0194C14.6669 10.7442 14.9227 11.1706 15.1785 11.6395C19.4421 19.3566 24.9847 25.8799 32.5739 30.5271C33.9809 31.3799 35.4731 31.9768 37.3491 31.4225C37.3917 31.4225 37.3917 31.3799 37.3917 31.3372C34.7909 22.469 30.8258 14.4535 25.7948 6.94962C25.7522 6.90699 25.7948 6.86435 25.7948 6.86435C30.3995 3.15505 40.3336 4.73257 42.8917 9.59303C42.9343 9.63567 42.8491 9.72094 42.8064 9.67831C41.8685 9.42249 41.0584 9.33722 40.163 9.12404C38.884 8.82559 38.6281 8.74032 37.1785 8.48451C36.7095 8.39923 35.6863 8.22869 34.7057 8.27133C34.1088 8.27133 33.4266 8.18606 32.7871 8.27133C32.5739 8.44187 32.4886 8.56978 32.4886 8.82559C32.7444 9.37986 32.9576 9.89148 33.256 10.4031C38.3723 18.9302 42.1243 28.0116 43.5739 37.8605C45.663 51.8876 43.1475 64.8915 35.0467 76.6589C34.6204 77.2558 34.194 77.8101 33.725 78.407C33.6824 78.5349 33.5119 78.5775 33.1708 78.7481Z" fill="#FEFAD4"/>
<path d="M66.0004 36.283C65.6167 42.0388 64.0392 47.1124 61.5237 51.6744C61.012 52.6124 60.4578 53.5078 59.8609 54.4031C58.0702 57.1318 55.8958 59.6047 53.4229 61.9496C53.1244 61.4806 52.9113 60.969 52.7407 60.4147C54.1051 58.3256 55.3415 56.2364 56.4074 54.062C56.8764 53.1667 57.2601 52.2713 57.6438 51.376C61.0973 43.4031 62.3764 34.9612 60.6283 25.7093C62.0779 25.155 63.5275 24.7287 65.0198 24.4302C65.9151 28.2674 66.2562 32.2326 66.0004 36.283Z" fill="#FEFAD4"/>
<path d="M52.9109 62.4613C51.5892 63.6977 50.1822 64.8915 48.6899 66.0427C50.0116 64.3799 51.2054 62.7171 52.3566 61.0117C52.5272 61.5233 52.6977 61.9923 52.9109 62.4613Z" fill="#FEFAD4"/>
<path d="M64.4652 22.1279C62.9729 22.4264 61.5233 22.8101 60.1163 23.2791C59.7752 21.8295 59.3489 20.3799 58.8372 18.9302C54.7442 24.6861 50.3101 29.5892 44.3411 33.2985C43.9148 31.8488 43.531 30.6124 43.2326 29.2907C43.19 28.9923 43.4884 28.5233 43.7869 28.3101C50.1396 23.3643 55.2559 17.438 59.1783 9.93411C61.5233 13.8992 63.314 17.9496 64.4652 22.1279Z" fill="#FEFAD4"/>
<path d="M109.659 39.1395C109.276 34.3217 107.314 30.2713 103.477 27.2015C100.279 24.6008 96.5275 23.1938 92.5624 22.2132C91.0275 21.8295 89.45 21.5736 87.8298 21.2326C89.0663 19.2713 90.5159 17.5659 92.6903 16.6705C95.0352 15.6899 96.9112 16.2015 98.4461 18.1628C98.8298 18.6318 99.2135 19.1008 99.5973 19.5271C99.7252 19.6977 100.066 19.8682 100.152 19.8256C100.322 19.6977 100.493 19.4419 100.535 19.2287C100.706 18.0349 100.194 17.2248 99.2562 16.5C97.167 14.8798 94.95 14.9651 92.6477 15.8605C90.0895 16.8411 88.1283 18.6318 86.3376 20.6357C86.167 20.8488 85.7833 20.9767 85.4849 20.9767C82.3725 20.8915 79.2601 20.8062 76.1477 20.6783C75.9345 20.6783 75.636 20.4651 75.5934 20.2519C75.2949 19.5271 75.1244 18.7597 74.8259 18.0349C73.419 14.7519 71.074 13.3023 67.8763 13.7287C66.4694 13.9419 65.3608 14.7946 65.105 15.9031C67.4073 15.9031 68.2601 17.438 68.6864 19.3992C69.5818 18.8876 69.7949 18.1202 69.8376 17.3101C69.9228 16.0736 69.4538 15.093 68.3027 14.4109C71.5856 14.155 74.1011 16.8411 74.3996 20.7209C72.0546 21.0194 69.667 21.2326 67.3221 21.5736C66.3414 21.7442 65.3608 21.9147 64.3802 22.0853C62.888 22.3837 61.4383 22.7674 60.0314 23.2364C58.7097 23.6628 57.4306 24.2171 56.1942 24.8566C54.574 25.6667 53.1244 26.7326 52.229 28.3953C51.9732 28.8643 51.7601 29.376 51.5469 29.845V31.8915C51.6321 31.9767 51.7174 32.1047 51.7601 32.1899C53.2523 35.6434 56.0236 37.6047 59.4345 38.7984C59.8608 38.969 60.3725 38.8837 60.7988 38.8837C60.7988 38.7984 60.8414 38.7132 60.8414 38.6279C60.543 38.5 60.2446 38.3721 59.9461 38.2015C58.4965 37.3062 56.919 36.624 55.6825 35.5155C53.0391 33.2132 53.2097 30.1008 56.0236 28.0116C57.3027 27.0736 58.7949 26.3488 60.2872 25.7519C60.3725 25.7093 60.4577 25.6667 60.5856 25.6667C62.0352 25.1124 63.4849 24.686 64.9771 24.3876C66.981 23.9612 68.9849 23.6628 71.0314 23.407C72.2678 23.2364 73.5469 23.1512 74.8686 23.0233C75.5508 31.7209 73.5469 39.907 71.5856 48.3488C71.1166 47.8798 70.7329 47.624 70.4771 47.2403C70.2213 46.8566 70.0508 46.4302 69.8376 45.9612C68.9422 46.4729 68.4306 47.2403 68.388 48.1783C68.3453 49.1163 68.8143 49.8837 69.667 50.3101C70.1787 49.8837 70.6903 49.4574 71.2019 49.031C71.2872 49.0736 71.3298 49.1163 71.4151 49.1589C70.8182 51.0775 70.2639 53.0388 69.667 55C68.4306 54.4031 67.4073 53.8488 66.2988 53.3372C64.7213 52.6124 63.1011 51.9729 61.4383 51.5891C60.9267 52.5271 60.3725 53.4225 59.7756 54.3178C61.7794 54.7015 63.7407 55.3837 65.6593 56.0659C66.6825 56.407 67.7058 56.7907 68.6864 57.1744C68.6011 57.9845 67.9616 58.624 68.1321 59.3915C68.2174 59.4341 68.3027 59.4767 68.4306 59.4767C68.7717 58.7946 69.1128 58.155 69.4538 57.4729C70.2213 57.7713 70.9035 58.0698 71.6709 58.4109C70.5624 60.5426 69.3686 62.5891 67.4926 64.124C65.7872 65.531 63.9965 65.7442 62.2058 64.7209C61.5236 64.3372 60.9267 63.8256 60.2872 63.3992C59.6903 62.9729 59.3066 63.1434 59.0508 63.8256C58.5818 65.2752 59.3492 66.469 60.8841 66.469C62.2484 66.469 63.6554 66.3837 65.0197 66.0853C68.8143 65.2326 71.7135 62.9302 74.1864 60.031C74.4849 59.6899 74.698 59.6046 75.0818 59.7752C77.8957 60.7984 80.7949 61.5233 83.7794 61.907C89.1089 62.6318 94.1825 61.907 98.7446 58.9651C106.035 54.3605 110.384 48.1357 109.659 39.1395ZM71.4151 49.0736C71.4151 49.0736 71.4151 49.031 71.4577 49.031H71.5004C71.5004 49.031 71.5004 49.0736 71.543 49.0736C71.5004 49.0736 71.4577 49.0736 71.4151 49.0736ZM72.95 55.6395C72.8221 55.938 72.6942 56.1938 72.5236 56.5775C71.7562 56.1512 71.0314 55.7674 70.3492 55.4264C71.2445 52.5271 72.2678 49.7558 72.9926 46.8992C74.1011 42.7636 75.1244 38.5853 75.9345 34.3643C76.6166 30.8256 76.5314 27.2015 76.1903 23.6202C76.1903 23.4496 76.1477 23.3217 76.1477 23.0659H84.419C83.5663 24.6434 82.7135 26.0504 81.9461 27.5426C80.0275 31.4225 78.9616 35.6434 77.9383 39.8217C76.7019 45.2364 75.2097 50.5659 72.95 55.6395ZM96.698 59.1357C92.3492 61.6512 87.574 61.9922 82.7562 60.6279C80.3259 59.9457 77.981 59.0078 75.4655 58.1124C78.1089 54.531 78.6632 50.438 79.729 46.5155C81.2213 40.845 82.7135 35.1318 84.2911 29.5039C84.8453 27.6279 85.698 25.8372 86.4228 24.0039C86.5507 23.6628 86.6787 23.4496 87.1476 23.4922C90.8996 24.0891 94.5663 24.9845 97.9345 26.7752C103.477 29.7171 106.462 34.3217 106.803 40.5465C107.314 48.8178 103.818 55.0426 96.698 59.1357Z" fill="#FEFAD4"/>
<path d="M61.0543 68.0465H60.4148C59.8179 67.9186 59.221 67.7481 58.6241 67.6202C58.4536 67.5775 58.3257 67.5349 58.1978 67.4923C55.7675 66.2558 53.9768 64.6357 52.9536 62.4612C52.7404 61.9923 52.5272 61.5233 52.3993 61.0116C52.1435 60.1163 51.973 59.1783 51.973 58.1124C51.8877 54.4884 54.2326 51.8023 57.7288 51.376C57.345 52.2713 56.9187 53.1667 56.4923 54.062C55.9807 54.1047 55.4691 54.1899 54.9574 54.2752C53.4652 54.6163 52.5699 55.7674 52.4419 57.3023C52.3567 58.4109 52.4846 59.4341 52.8257 60.3721C52.9962 60.9264 53.252 61.3954 53.5078 61.907C54.0621 62.845 54.7443 63.6977 55.597 64.4651C57.0466 65.8295 58.7094 66.8101 60.5427 67.5775C60.7133 67.7054 60.8412 67.9186 61.0543 68.0465Z" fill="#FEFAD4"/>
<path d="M267.496 53.9341C267.411 54.2326 267.368 54.531 267.198 54.7868C264.853 58.1551 261.868 60.5426 257.733 61.2675C256.198 61.5233 254.706 61.3527 253.299 60.7132C251.636 59.9457 250.613 58.7093 250.314 56.876C250.271 56.5349 250.186 56.2364 250.144 55.8954C249.163 56.9186 248.225 57.9845 247.202 58.9225C245.837 60.2442 244.175 61.0969 242.256 61.1395C240.849 61.1822 240.167 60.6279 239.911 59.2636C239.655 57.8566 240.082 56.5775 240.593 55.3411C241.062 54.1899 241.531 53.0388 241.872 51.845C242.256 50.5233 241.958 49.969 240.721 49.2868C239.613 48.6899 238.547 48.0504 237.523 47.4961C235.903 49.8837 234.283 52.3566 232.62 54.8295C231.81 56.0233 230.83 57.0892 229.423 57.6434C227.504 58.4109 225.628 58.1977 223.965 56.876C223.411 57.7713 222.942 58.6667 222.388 59.4768C221.407 60.7985 220.256 61.907 218.423 61.9496C217.314 61.9923 216.461 61.4806 216.291 60.4147C216.12 59.2636 216.206 58.0271 216.163 56.876C216.163 56.6628 216.206 56.4496 216.291 56.0659C215.864 56.5349 215.523 56.9186 215.225 57.2597C213.434 59.1783 211.43 60.8837 208.744 61.3954C205.93 61.9496 203.287 61.6085 201.113 59.4341C200.047 58.3682 199.535 57.0039 199.237 55.4264C198.938 55.7675 198.725 55.9806 198.512 56.2791C195.57 60.1163 191.562 61.1822 186.958 60.7558C186.531 60.7132 186.062 60.7558 185.678 60.8837C184.485 61.1822 183.333 60.969 182.268 60.4574C181.372 60.031 180.562 59.4768 179.795 58.8372C179.027 58.2403 178.345 57.4729 177.578 56.7481C175.361 58.3682 173.058 58.5388 170.671 56.8333C170.244 57.5582 169.861 58.3256 169.349 59.0078C168.795 59.7326 168.198 60.4147 167.516 61.0116C167.089 61.3954 166.535 61.6085 165.981 61.7791C164.233 62.2907 162.996 61.4806 162.783 59.7326C162.698 58.7946 162.783 57.8566 162.826 56.9186C162.826 56.6628 162.911 56.4496 162.954 56.1085C162.016 57.0039 161.248 57.8566 160.353 58.5814C158.051 60.4574 155.364 61.2675 152.423 61.2248C150.035 61.1822 148.244 59.4341 147.861 56.9613C147.818 56.6202 147.775 56.2791 147.69 55.8101C147.136 56.4923 146.667 57.0465 146.155 57.6008C144.62 59.2636 143 60.7132 140.613 61.0116C139.291 61.1822 138.396 60.7558 137.969 59.5194C137.628 58.624 137.5 57.6434 137.33 56.7054C137.244 56.2791 137.287 55.8527 137.244 55.2985C136.52 56.1512 135.923 56.9613 135.24 57.6861C134.004 58.9651 132.64 60.1163 130.934 60.7558C130.337 60.969 129.655 61.0969 129.016 61.0969C127.353 61.0969 126.585 60.2868 126.585 58.624C126.585 58.4109 126.585 58.1977 126.585 57.8992C125.903 58.4961 125.306 59.0504 124.624 59.562C123.388 60.5 121.981 61.0543 120.446 61.0969C119.082 61.0969 118.314 60.4147 118.144 59.0504C117.973 57.5155 118.485 56.1938 119.039 54.8295C119.465 53.8915 119.849 52.9109 120.105 51.8876C120.531 50.438 120.233 49.8837 118.911 49.1589C117.888 48.562 116.822 48.0078 115.713 47.3682C115.543 47.6667 115.33 48.0504 115.116 48.3915C113.709 50.5233 112.26 52.6977 110.81 54.8295C110.64 55.0853 110.256 55.2558 109.958 55.469C110.043 55.0853 110 54.6163 110.213 54.2752C111.364 52.4419 112.558 50.6512 113.752 48.8605C113.88 48.6899 113.965 48.4768 114.051 48.3062C114.861 47.0271 115.202 45.7907 114.605 44.2985C114.136 43.062 114.264 41.7403 115.074 40.6318C115.415 40.1628 115.969 39.6938 116.481 39.5233C117.76 39.0543 118.698 39.7791 118.783 41.1434C118.868 42.4225 118.485 43.5737 117.93 44.6822C117.675 45.1512 117.419 45.5775 117.12 46.0892C118.271 47.1124 119.593 47.624 121.128 47.4535C122.961 47.2403 123.771 48.2209 123.175 49.969C122.45 52.1434 121.64 54.2752 120.958 56.4496C120.744 57.0892 120.787 57.7713 120.872 58.4535C120.915 59.093 121.384 59.562 122.066 59.3915C122.791 59.2209 123.558 58.9651 124.155 58.5814C125.818 57.4302 127.225 56.0233 128.376 54.3178C130.209 51.6744 132.213 49.1589 134.729 47.155C136.434 45.8333 138.31 44.8954 140.57 45.1512C140.954 45.1938 141.337 45.3217 141.678 45.4923C142.275 45.8333 142.446 46.6008 141.934 47.0271C140.399 48.3062 140.058 50.0543 139.93 51.845C139.802 53.6783 139.845 55.5543 139.802 57.3876C139.802 57.6861 139.888 57.9419 139.973 58.2403C140.271 59.3062 140.911 59.6899 141.977 59.3062C142.659 59.0504 143.341 58.7093 143.853 58.2403C145.175 56.9613 146.454 55.5969 147.69 54.2752C147.861 54.062 147.946 53.7636 148.074 53.5078C149.31 50.3954 151.186 47.7946 154.256 46.2171C155.279 45.7054 156.388 45.5349 157.539 45.7907C158.306 45.9613 158.69 46.4729 158.775 47.1977C158.861 48.0504 157.454 50.7791 156.601 51.3333C156.558 51.0349 156.473 50.7791 156.516 50.5233C156.516 50.2248 156.644 49.969 156.729 49.6706C156.985 48.562 156.516 47.7946 155.364 47.6667C154.043 47.4961 153.02 48.0504 152.209 49.031C150.419 51.2907 149.651 53.8488 150.248 56.7054C150.632 58.4535 151.826 59.4341 153.616 59.5194C156.345 59.6473 158.69 58.7519 160.651 56.876C161.504 56.0659 162.357 55.2558 163.124 54.4031C163.38 54.1473 163.551 53.7636 163.678 53.3799C164.531 51.4613 165.341 49.5 166.237 47.624C166.492 47.1124 166.876 46.6434 167.26 46.2597C168.155 45.2791 169.051 45.2791 169.903 46.3023C170.244 46.6861 170.458 46.814 171.012 46.7287C171.95 46.5581 172.675 47.0698 172.76 48.093C172.845 49.2442 172.802 50.4806 172.547 51.6318C172.206 52.9961 171.609 54.3178 171.097 55.6822C172.547 57.4729 175.361 57.6434 177.066 55.938C176.725 55 176.128 53.9341 177.151 53.1667C178.047 52.4845 178.644 53.3799 179.283 53.9341C182.396 51.4186 184.954 48.3915 186.958 44.938C187.384 44.2132 187.81 43.531 188.194 42.7636C188.535 42.124 188.919 42.2093 189.388 42.5078C190.709 43.3605 191.008 44.469 190.07 45.7481C189.217 46.9419 189.047 48.1783 189.132 49.5853C189.345 52.9109 189.175 56.1938 187.512 59.2209C187.469 59.2636 187.512 59.3062 187.469 59.4768C188.62 59.4768 189.771 59.4768 190.88 59.4768C194.078 59.3915 196.252 57.6008 198.128 55.2558C198.768 54.4884 199.066 53.7209 199.109 52.655C199.237 50.8644 199.62 49.1163 199.919 47.4109C199.023 47.2403 197.958 47.0698 196.892 46.814C196.508 46.7287 196.124 46.5155 195.783 46.2597C195.613 46.0892 195.57 45.7481 195.485 45.4923C195.74 45.407 195.996 45.2364 196.209 45.2364C197.574 45.2791 198.938 45.3644 200.26 45.4496C200.814 45.4923 201.027 45.2791 201.24 44.8101C202.392 42.2093 203.543 39.5659 204.737 37.0078C205.333 35.7287 206.271 34.9186 207.721 34.8333C207.806 34.8333 207.934 34.7907 208.02 34.8333C208.489 34.9612 208.958 35.0892 209.384 35.2171C209.213 35.6008 209.085 35.9845 208.872 36.3682C207.252 39.1395 205.632 41.9535 204.012 44.7248C203.841 44.9806 203.756 45.2791 203.585 45.7054C207.209 45.7054 210.663 45.7054 214.159 45.7054C214.159 45.7907 214.202 45.876 214.202 46.0039C213.647 46.1744 213.136 46.4729 212.582 46.5155C209.64 46.7713 206.698 46.9845 203.756 47.155C203.244 47.1977 202.989 47.3256 202.818 47.8372C201.923 50.438 201.283 53.0814 201.795 55.8954C202.221 58.1977 203.415 59.6899 205.333 59.9457C208.19 60.3721 210.876 59.9031 213.008 57.7713C214.074 56.7054 215.097 55.5969 216.12 54.4884C216.419 54.1473 216.632 53.6357 216.845 53.2093C217.74 51.2481 218.636 49.2868 219.531 47.3256C219.616 47.155 219.744 47.0271 219.83 46.8566C221.066 45.1085 222.089 45.0659 223.454 46.7287C225.33 46.5581 226.012 47.0271 226.012 48.9031C226.012 50.2675 225.585 51.5892 225.244 52.9535C225.116 53.5078 224.818 54.062 224.562 54.6163C224.051 55.8101 224.051 55.8101 225.159 56.4923C226.609 57.3876 228.57 57.3876 229.849 56.2364C231 55.1706 232.066 53.9341 232.919 52.6124C234.155 50.7791 235.178 48.8178 236.287 46.8992C236.585 46.4302 236.5 45.9613 236.415 45.407C236.202 44.2985 235.989 43.1473 236.031 42.0388C236.116 40.6744 237.14 39.6085 238.248 39.438C239.357 39.2248 240.124 39.7791 240.252 40.9302C240.423 42.593 239.868 44.0853 238.973 45.407C238.589 45.9613 238.717 46.3023 239.229 46.6008C240.337 47.2403 241.489 47.6667 242.81 47.4535C244.345 47.1977 245.283 48.3488 244.771 49.7985C244.047 51.9302 243.237 54.0194 242.554 56.1085C242.341 56.7481 242.299 57.4729 242.299 58.1977C242.341 59.1783 242.938 59.6473 243.876 59.3915C244.558 59.2209 245.24 58.9225 245.752 58.4961C247.159 57.2171 248.481 55.8527 249.802 54.4884C250.016 54.2752 250.058 53.9341 250.144 53.6357C250.954 50.0969 252.446 47.0271 255.771 45.1938C256.411 44.8527 257.178 44.6395 257.903 44.5543C258.799 44.469 259.353 44.9806 259.566 45.876C259.779 46.8566 259.609 47.7519 259.14 48.6047C257.775 51.0775 255.729 52.9535 253.256 54.3178C252.787 54.5737 252.616 54.8721 252.616 55.3411C252.531 57.9845 253.853 59.3489 256.539 59.6047C259.779 59.8605 262.209 58.4109 264.427 56.3217C265.109 55.6822 265.748 54.9574 266.388 54.3178C266.601 54.1047 266.857 53.9341 267.07 53.7636C267.368 53.8488 267.411 53.8915 267.496 53.9341ZM138.097 47.4961C137.415 47.6667 136.903 47.7093 136.434 47.9651C133.322 49.4574 130.977 51.8023 129.698 55C129.314 55.938 129.229 57.0892 129.271 58.1124C129.314 59.1783 130.167 59.7752 131.19 59.5194C132 59.3062 132.896 58.9651 133.535 58.3682C136.647 55.5116 137.372 51.6318 138.097 47.4961ZM180.136 55.1279C180.989 56.407 182.396 57.6008 183.93 58.3682C184.954 58.8799 185.551 58.7519 186.02 57.7287C186.361 56.876 186.574 55.938 186.702 55.0426C186.958 52.8682 186.659 50.6938 186.403 48.6047C184.314 50.7364 182.268 52.8682 180.136 55.1279ZM167.302 51.5892C165.938 53.7209 165.256 56.0233 165.043 58.4961C165 59.1357 165.043 59.7752 165.725 60.1163C166.45 60.4574 167.047 60.0737 167.43 59.562C168.24 58.624 168.923 57.5582 169.605 56.5349C169.69 56.3644 169.647 56.0233 169.562 55.8527C168.539 54.5737 167.644 53.2946 167.302 51.5892ZM220.682 51.5892C220.597 51.6318 220.512 51.6318 220.469 51.6744C220.384 51.7597 220.299 51.8876 220.256 51.9729C219.19 54.1047 218.423 56.3217 218.337 58.7519C218.295 59.3062 218.423 59.9457 219.062 60.0737C219.489 60.1589 220.213 60.0737 220.469 59.7752C221.407 58.7519 222.175 57.6008 222.985 56.4496C223.07 56.3217 222.985 55.9806 222.857 55.8527C221.833 54.5737 220.938 53.2519 220.682 51.5892ZM253.299 53.124C255.388 52.0155 257.051 50.5233 257.861 48.2636C257.989 47.9651 258.031 47.5814 257.989 47.283C257.946 47.0271 257.818 46.6008 257.647 46.5155C257.434 46.4302 257.008 46.5581 256.795 46.7287C254.791 48.3915 253.981 50.6938 253.299 53.124ZM223.582 54.9574C224.392 52.9535 224.818 51.0775 224.477 49.0737C224.392 48.4341 224.093 47.9225 223.326 47.9225C222.558 47.9225 222.345 48.4768 222.217 49.1163C221.876 51.1628 222.601 52.9535 223.582 54.9574ZM170.287 54.9574C171.097 52.9961 171.481 51.1202 171.225 49.2016C171.14 48.562 170.841 47.9651 170.074 47.9225C169.434 47.8799 169.051 48.3488 168.923 49.2442C168.624 51.2481 169.306 53.0388 170.287 54.9574Z" fill="#FEFAD4"/>
<path d="M71.4988 49.0729C71.4569 49.0729 71.4569 49.0729 71.415 49.0729C71.415 49.0729 71.415 49.031 71.4569 49.031H71.4988C71.4988 49.031 71.4988 49.031 71.4988 49.0729Z" fill="#FEFAD4"/>
</svg>
