<?xml version="1.0" encoding="UTF-8"?>
<svg id="Calque_2" data-name="Calque 2" xmlns="http://www.w3.org/2000/svg" viewBox="0 0 247.58 209.03">
  <defs>
    <style>
      .cls-1 {
        fill: #020202;
      }

      .cls-1, .cls-2, .cls-3, .cls-4, .cls-5, .cls-6, .cls-7, .cls-8, .cls-9, .cls-10, .cls-11, .cls-12, .cls-13, .cls-14, .cls-15 {
        stroke-width: 0px;
      }

      .cls-2 {
        fill: #343434;
      }

      .cls-3 {
        fill: #040404;
      }

      .cls-4 {
        fill: #545454;
      }

      .cls-5 {
        fill: #050505;
      }

      .cls-6 {
        fill: #575757;
      }

      .cls-7 {
        fill: #080808;
      }

      .cls-8 {
        fill: #070707;
      }

      .cls-9 {
        fill: #010101;
      }

      .cls-10 {
        fill: #141414;
      }

      .cls-11 {
        fill: #060606;
      }

      .cls-12 {
        fill: #171717;
      }

      .cls-13 {
        fill: #111;
      }

      .cls-14 {
        fill: #333;
      }

      .cls-15 {
        fill: #030303;
      }
    </style>
  </defs>
  <g id="OBJECTS">
    <g>
      <path class="cls-4" d="M135.81,97.76c.89.94,1.99,1.49,3.23,1.78-.13-.98-.65-1.73-1.43-2.3-.61-.46-1.14-.99-1.5-1.67-.38-.72-.2-1.2.57-1.2,1.39-.02,2.23-.79,3.22-1.65.84-.74,1.29-1.36,1.25-2.46-.03-.76.45-1.24,1.28-1.24.21.01.51-.06.61.05,1.03,1.07,2.51,1.14,3.75,1.74.24.12.53.23.65.53.39.66,1.08,1.04,1.66,1.39,1.19.72,2,1.69,2.67,2.84.09.16.19.3.4.3.45.61.94,1.06,1.7.43.57-.26.57-.79.59-1.28.03-.79.17-1.57.3-2.35.21-1.35.6-1.53,1.81-.94.55.27,1.03.65,1.53,1,1.34.95,2.87,1.05,4.43.97.52-.03.97-.24,1.32-.64.76-1.49.86-1.49,2.54-.73,3.21,1.44,6.07,3.41,8.69,5.73.58.51.91,1.21,1.41,1.77,1.99,2.23,4.43,3.89,7,5.36,1.25.72,1.45.59,1.9-.76.09-.27.17-.55.38-.76.21-.13.41-.07.72.07-3.09-3.27-5.97-6.58-9.16-9.6-1.28-1.21-2.69-2.25-4.4-2.85-1.05-.37-2.11-.73-3.06-1.32-1.59-.82-3.11-1.74-4.91-2.14-1.9-.42-3.57-1.48-5.39-2.16-2.32-.87-4.67-1.65-7.11-2.11-.32-.06-.63-.1-.95,0-.75.13-1.37-.14-1.8-.73-.62-.84-1.41-1.01-2.38-.8-.55.12-1.5.29-1.55-.22-.07-.73.89-.56,1.44-.68,1.55-.35,3.13-.47,4.7-.53,1.93-.07,3.8.45,5.54,1.17,5.44,2.23,10.87,4.51,16.05,7.33,2.18,1.19,4.52,2.03,6.71,3.21,3.8,2.05,6.71,4.88,8.48,8.86.98,2.2,2.43,4.06,4.37,5.51,1.31.73,2.58,1.55,4.12,1.7.64.06,1.12.45,1.68.67.74.29,1.39.77,2.15.98.24.07.52.12.69-.12.16-.21,0-.42-.11-.59-1.04-1.63-1.89-3.4-3.24-4.82-1.86-1.85-3.13-4.07-3.98-6.53-.28-.83-.85-1.59-.75-2.53.09-.22.04-.42-.09-.61-1.87-2.68-3.32-5.61-4.89-8.46-2.38-4.31-6.16-7.09-10.44-9.3-1.79-.62-3.31-1.71-4.77-2.87-1.22-.98-2.51-1.7-4.05-2.13-1.65-.45-3.07-1.55-4.78-1.92-.45-.2-.7-.61-1-.96-.71-.85-1.59-1.03-2.62-.74-.52.15-1.03.34-1.57.38-.22.02-.44,0-.58-.2-.17-.25-.05-.49.11-.69.47-.59,1.11-.88,1.84-1.03,1.14-.24,2.27-.12,3.42,0,3.91.44,7.66,1.49,11.39,2.7,2.66.86,4.66,2.44,6.41,4.51,1.81,2.13,3.43,4.44,5.53,6.31.53.48,1.05.98,1.59,1.45,2.43,2.97,4.8,5.99,6.84,9.25.12.18.28.33.43.48,1.99,2.78,3.87,5.66,5.13,8.83,1.25,3.15,3.21,5.84,4.93,8.69.8,1.32,1.66,2.6,2.34,3.99.36.74.87,1.4,1.43,2.01.77-.23,1.54-.66,2.32-.03.03.14.04.28-.02.42.95-1.09,1.18-1.67,1.77-3.68.67-2.3.7-4.68,1.01-7.02.63-4.68,2.91-8.42,6.49-11.41,1.04-.87,1.97-1.9,3.22-2.5,1.27-.53,2.19-1.58,3.36-2.26.4-.23.74-.55,1.18-.72.85-.17.97.37,1.07,1.03.08.57-.33,1.25.32,1.72.24.56-.21,1.02-.21,1.54-1.36.99-2.75,1.93-4.11,2.9-3.11,2.23-5.5,5-6.98,8.58-.84,2.02-1.79,3.99-2.54,6.05-.32.41-.45.93-.46,1.4-.02,1.76-.44,3.54.3,5.26.21,1.33-.28,2.38-1.27,3.25-.78.7-.76.98.13,1.51.87.52,1.78,1.01,2.82.94,3.99-.26,7.87.35,11.7,1.4,1.62.44,3.33.54,4.95,1.01,1.13.23,2.27.42,3.36.81.78.28,1.66.58,1.57,1.7-.26.17-.53.11-.86.02.46.55,1,.86,1.57,1.14,1.15.57,2.24,1.23,3.29,1.96.32.23.78.42.62.97.21,1.57,1.15,2.85,1.72,4.27.36,1.32.61,2.64.52,4.03-.07,1-.39,1.9-.94,2.72-.19.29-.4.69-.82.56-.35-.11-.33-.53-.34-.84-.02-.86-.08-1.72-.2-2.58-.37-2.83-2.08-4.72-4.4-6.05-1.57-.9-3.07-1.85-4.48-2.97-3.41-2.72-7.39-4.02-11.68-4.16-1.95-.07-3.95.02-5.9.36-1.65.29-3.29.28-4.88-.33-.37-.14-.76-.21-1.16-.12-.82.34-.22.73.04.94,1.75,1.37,3.43,2.87,5.65,3.51.34.1.96.08.88.57-.07.44-.66.35-1.03.32-3-.22-5.92-.81-8.6-2.23-1.43-.75-2.42-2.04-3.46-3.21-.87-.98-1.75-1.84-2.97-2.43-1.39-.67-2.51-1.79-3.75-2.72-1.62-1.22-3.35-2.23-5.24-2.97-.89-.34-1.78-.53-2.73-.35-.59-.14-.72-.92-1.36-1,.24-.32.52-.28.62-.22-1.55-.65-3.46-.9-5.28-1.44-2.14-.64-4.18-1.45-6.17-2.48-3.05-1.58-6.07-3.26-9.4-4.24-.66-.19-1.33-.27-2.02-.21-.79.26-1.6.39-2.43.23-.51-.08-.57.35-.71.66-1.02,2.34-2.76,4.06-4.7,5.66-2.02,1.66-4.17,3.19-5.98,5.1-.32.34-.72.62-.77,1.13-.25,1.07-.8,1.89-1.92,2.21-.74-.08-1.34-.65-2.13-.61,1.32,1.13,1.33,1.13.44,2.68-.6,1.05-1.23,2.09-2.22,2.84.21.07.48-.12.66.12.23.58-.22.96-.4,1.42-.25.23-.47.06-.68-.07-.42-.27-.84-.56-1.18-.94-1.55-1.75-3.17-3.44-4.41-5.43-.33-.52-.65-1.07-1.08-1.48-1.39-1.3-2.07-3.07-3.1-4.56-.05-.17-.13.1.01.05.02,0,.03.03.05.1.03.11.04.21.03.32-.58.57-.84-.1-1.09-.36-.96-.99-1.74-2.13-2.31-3.37-2.16-4.71-5.77-8.26-9.37-11.82-.08-.08-.14-.16-.19-.26-.12-.28-.04-.56-.02-.85.03-.36-.15-.59-.49-.53-1.46.27-2.22-.71-3.01-1.65-1.36-2.14-3.41-3.58-5.3-5.18-1.03-.87-1.86-1.89-2.67-2.94-1.04-1.34-2.22-2.54-3.61-3.53-.27-.21-.45-.52-.75-.71-.49-.24-.89-.58-1.23-1.02-.48-.63-1.05-1.19-1.68-1.67-2.03-1.55-4.12-3.02-6.11-4.63-.62-.5-1.38-.77-2.07-1.15-.56-.56-.93-1.28-1.43-1.88-.25-.31-.46-.69-.8-.87-1.57-.83-2.8-2.08-4.1-3.24-.99-.56-1.44-1.58-2.11-2.41-.11-.14-.19-.31-.31-.44-2.38-2.47-4.43-5.18-6.12-8.17-.07-.12-.19-.22-.41-.25-.28.32-.14.71-.07,1.07.33,1.7,1.13,3.2,2.23,4.5,1.65,1.95,3.37,3.83,4.85,5.91.61.86,1.63,1.28,2.41,1.97.84.74,1.63,1.5,2.26,2.44.84,1.24,2.02,2.13,3.32,2.85.6.33,1.24.59,1.77,1.03.62.72,1.35,1.35,2.25,1.59,1.4.38,2.15,1.35,2.67,2.57.36.83.82,1.41,1.82,1.29.56.25.77.8,1.09,1.27.25.34.63.37.96.24.78-.32,1.07.14,1.37.73.32.62.37,1.39,1.05,1.8.7.47,1.27,1.07,1.73,1.76,1.28,1.9,2.88,3.49,4.63,4.94.25.21.47.45.65.72,1.44,2.11,2.93,4.18,4.73,6.01,1.63,1.66,2.55,3.82,4.04,5.58.81.96,1.5,2.02,2.39,2.92.18.18.36.36.47.59,1.82,3.71,4.68,6.73,6.7,10.3,2.08,3.68,4.92,6.61,8.19,9.2.54.43,1.19.68,1.78,1.01.53.3,1.14.46,1.55.95.1.82.74.32,1.12.46.69.36,1.31.85,2.04,1.14.93.37,1.08.29,1.24-.72.06-.35,0-.71.23-1.02,1-.23,1.81.32,2.56.8.64.42-.02,1.66-1,1.92.53.34.87.02,1.19-.3.39-.4.77-.53,1.14.02.11.24.11.49.13.74q.14,1.59-1.4,1.46c-.63-.05-1.11.14-1.47.69-.65,1.01-.98,2.09-.69,3.28.75,3.03,2.02,5.76,4.53,7.78.35.28.91.55.63,1.2-1.52.45-3.05.19-4.56-.02-4.19-.57-8.17-1.79-11.78-4.04-.42-.35-.66-1.07-1.42-.7-.17.05-.42.04-.24.34-.3,1.03-.69,2.01-1.41,2.83-.13,1.8-.19,3.6-.66,5.35-.08.29.27.12.35.26.2.31.19.63.06.96-.48.36-.7.86-.83,1.44-.5,2.24-.34,4.33.54,6.52,1.35,3.33,2.88,6.58,4.23,9.91,1.24,3.04,3.25,5.66,5.33,8.2.87,1.06,1.86,2,2.62,3.15,1.12,1.71,1.58,3.53.93,5.53-.09.27-.22.53-.37.78-.14.22-.31.46-.57.44-.33-.03-.28-.39-.33-.61-.17-.7-.05-1.44-.37-2.31-.29.88-.63,1.59-.98,2.29-.6,1.19-1.49,2.11-2.6,2.82-.82.53-2.85,0-3.33-.85-.27-.49.05-.63.4-.78,1.48-.66,2.3-1.83,2.63-3.55-.49.89-.57,1.95-1.67,2.11-.6.09-1.14-.13-1.36-.8.3-2.1-.6-3.95-1.24-5.85-.44-1.29-.92-2.57-1.34-3.87-.45-1.39-1.2-2.61-2.12-3.72-.08-.09-.14-.18-.2-.28-1.11-2.09-2.5-4.03-3.33-6.28-.51-1.37-1.49-2.47-2.5-3.49-1.55-1.57-2.11-3.47-2.18-5.58-.07-1.94.01-3.88.31-5.81.6-3.85.36-7.67-.37-11.48-.22-1.14-.55-2.24-1.23-3.2-.79-1.12-1.8-1.26-2.81-.44-.42.37-.17.8-.08,1.19.48,2.02.76,4.06.67,6.14-.02.42.06.87-.33,1.19-.33-.93-.35-1.95-.84-2.83-.24-1.18-.67-2.3-1.15-3.39-.13-.29-.12-.94-.79-.71-.56-.93-1.62-1.32-2.32-2.11-.3-.49.07-.81.3-1.14,2.12-3,5.15-4.62,8.59-5.58.8-.22,1.58.05,2.32.31,1.26.44,2.54.82,3.86,1,1.38.19,2.84.39,3.69-1.2-1.4,1.25-3.06.96-4.61.61-2.63-.6-5.21-1.37-7.8-2.11-3.31-.94-6.65-1.55-10.1-1.36-1.74.09-3.28.79-4.74,1.65-.86.51-1.2,1.38-1.08,2.42.13,1.08.52,2.09.83,3.12.96,3.24,1.76,6.52,2.82,9.74,1.06,3.2,1.28,6.53,1.31,9.89.02,1.65.01,3.31.11,4.96.14,2.49-1.65,3.75-3.43,4.19-2.23.55-2.71.98-3.06,3.26-.22,1.41-1.13,2.28-2.33,2.74-1.37.52-2.79.95-4.26,1.17-.25.04-.5.06-.75.03-.28-.03-.63-.04-.72-.36-.07-.26.16-.47.35-.63.78-.64,1.37-1.48,2.12-2.15.31-.27.11-.3-.12-.37,0-.14,0-.28,0-.41-.41-.41-.64.04-.91.21-2.37,1.52-4.45,3.41-6.61,5.2-4.58,3.83-9.19,7.62-13.91,11.29-5.5,4.28-11.33,8.03-17.58,11.09-2.9,1.42-5.77,2.93-8.78,4.14-.2.08-.4.16-.58.27-2.68,1.64-5.64,2.65-8.54,3.82-4.15,1.67-8.42,2.58-12.91,2.73-3.7.13-7.3-.43-10.91-1.05-.75-.13-1.44-.43-2.13-.74-1.11-.51-2.21-1.07-3.48-1.08-.28,0-.67-.03-.69-.37-.02-.39.35-.5.68-.55,1.51-.23,3-.23,4.48.18,1.99.56,2.44.33,3.19-1.59.26-.66.69-1.28.69-2.03.55-.6,1.01-1.3,1.76-1.69,1.36.04,2.68-.43,4.06-.24.37.05.65-.28.89-.55.9-.97,2.02-1.31,3.31-1.27,2.27.06,4.47-.15,6.69-.81,3.64-1.08,6.47-3.37,9.42-5.53.23-.17.4-.42.67-.55-1.34.63-2.64,1.35-4.05,1.85-.54.19-1.09.45-1.66.41-2.58-.2-5.07.45-7.59.81-.95.14-1.87.08-2.73-.38-1.4-.75-1.56-1.87-.37-2.92.76-.67,1.51-1.32,2.09-2.16.6-.88.57-1.07-.4-1.34-.69-.19-1.11-.58-1.1-1.27.01-.73-.7-1.18-.64-1.9.49-.35,1.08-.36,1.64-.46,4-.7,8.02-1.3,12-2.15,2.33-.5,4.58-1.23,6.86-1.91,3.77-1.12,7.65-1.68,11.47-2.57,2.32-.54,4.55-1.35,6.81-2.07,2.91-.93,5.99-1.43,8.74-2.74,4.1-1.95,8.43-3.55,11.97-6.56.83-.71,1.85-1.11,2.77-1.66.95-.57,1.26-1.41,1.25-2.46,0-.66-.27-.83-.87-.57-.51.22-.85.66-1.26,1-2.61,1.51-5.49,2.3-8.33,3.22-7.54,2.47-15.36,3.48-23.17,4.52-4.5.6-9.05.32-13.58.28-4-.04-7.98.22-11.97.28-3.23.05-6.46.39-9.69.35-2.91-.04-5.82-.28-8.65-1.07-3.93-1.6-7.95-2.58-12.23-1.86-.35.06-.7.14-1.06.08-1.78-.63-3.54-1.32-5.34-1.9-1.34-.43-2.13-1.68-2.17-3.11-.02-.78-.05-1.56-.09-2.34-.04-.24-.14-.54.18-.63.24-.07.32.2.42.38.28.51.42,1.03.85,1.52,1.3,1.46,2.55.96,3.89.19,1.18-.97,2.51-1.09,3.95-.73,2.29.56,4.61.58,6.94.24,3.97-.58,7.98-.86,11.92-1.64.17-.03.35-.04.52-.11,1.38-.55,2.76-1.15,4.31-.73,1.37.27,2.2,1.38,3.27,2.11,1.22,1.33,2.78,1.15,4.3.87.98-.18,1.88-.73,2.71-1.29.9-.6.9-1.5-.02-2.08-1-.63-2.07-1.16-3.21-1.51-1.74-.53-3.34-1.29-4.78-2.41-.92-.72-1.99-1.12-3.14-1.31-1.86-1.01-2.73.7-3.94,1.44-.78.48-1.01,1.53-1.87,1.97-.25.22.16-.75-.28-.16-.58.77-1.29.91-2.19.63-3.45-1.08-6.8-.84-10.03.82-.51.26-1.02.54-1.61.6-.22.02-.46,0-.55-.23-.07-.17.04-.35.14-.5.08-.12.17-.24.29-.32,2.28-1.49,4.33-3.54,7-4.15,2.41-.55,4.49-1.91,6.92-2.28.71-.11,1.36-.47,1.95-.9,1.3-.95,2.83-1.41,4.28-2.03.81-.34,1.63-.16,2.43.09.83.25,1.65.52,2.52.19.3-.11.7-.12.81-.45.13-.38-.28-.55-.51-.75-1.12-.95-1.8-2.15-2-3.59-.19-1.38-.07-2.78-.33-4.16-.14-.71.39-.98,1.07-1.03,1.4-.1,2.79-.26,4.19-.23,1.29.02,1.66-.39,1.67-1.68,0-1-.05-2.01.34-2.97.44-.37.89-.14,1.32.01,2.23.82,4.46,1.61,6.43,3,.76.54,1.64.9,2.51,1.25,2.47.99,4.82,2.25,7.21,3.41,4.75,2.3,9.5,4.61,14.42,6.58,2.78,1.12,5.56,2.24,8.53,2.61,2.15.27,4.25.74,6.35,1.19.65.14,1.41.3,1.73-.42.29-.66-.04-1.36-.57-1.85-.83-.76-1.83-1.26-2.93-1.53-4.9-2.29-10.07-3.95-14.96-6.27-.29-.14-.59-.26-.85-.46-1.03-.95-2.36-1.35-3.61-1.89-.56-.24-1.12-.49-1.59-.9-2.08-1.79-4.51-3.07-6.75-4.61-3.12-2.16-6.56-3.88-9.28-6.6-2.1-2.09-4.51-3.86-6.33-6.24-.88-1.15-1.44-2.48-2.25-3.65-.2-.29-.27-.8-.82-.7-.57-.92-.81-1.95-.9-3.01.59-.09.5.44.69.72-.31-1.38-.91-2.69-1.02-4.12-.05-.68-.05-1.36-.04-2.04,0-.31.13-.59.46-.64.3-.05.43.22.55.43.72,1.28,1.49,2.54,2.04,3.91.29.71.69,1.35,1.38,1.73.38.21.77.44,1.15,0,.58.07,1.15.14,1.73.21.92.8,1.87,1.57,2.76,2.4.73.69,1.61.9,2.6.71,2.32-.45,4.42,0,6.27,1.51.2.16.4.34.65.38,1.46.2,1.83,1.31,2.16,2.5.16.56.08,1.49.72,1.53.65.05.91-.84,1.15-1.4.29-.69.74-1.4.37-2.22-.11-.4-.06-.88.28-1.02.31-.13.58.27.76.57.53,1.18,1.13,2.33,1.92,3.35.26.34.57.68.69,1.09.73,2.72,2.93,4.47,4.39,6.71.68,1.04,1.7,1.85,2.41,2.9.26.38.63.58,1.1.55,1.18.02,1.7,1.06,2.32,1.74,3.18,3.46,6.75,6.44,10.53,9.19,1.53,1.12,2.86,2.54,4.77,3.07.21.06.4.17.61.2.81.13,1.16-.27.91-1.05-.2-.65-.66-1.09-1.2-1.47-2.42-1.7-4.63-3.64-6.69-5.75-.38-.39-.74-.78-.91-1.32-.11-.35-.35-.64-.64-.86-2.69-1.97-4.64-4.56-6.32-7.39-.2-.34-.43-.66-.75-.91-3.07-4.44-5.22-9.29-6.3-14.59-.18-.87-.26-1.77-.76-2.55-.07-.08-.13-.17-.18-.26-.09-.19-.16-.38-.08-.6.47-.51,1.18-.98.13-1.65-.21-.13-.15-.52-.09-.8.43-.31.3-.78.32-1.19.06-1.2.33-2.35.67-3.49.11-.36.18-.78.69-.96.99,2.56,1.51,5.23,1.94,8.02.21-.24.11-.39.11-.54-.02-.41-.29-.95.22-1.15.43-.17.83.24,1.09.56.89,1.08,1.75,2.18,2.9,3.02.55.4,1.09.69,1.78.57.59-.09,1.04.13,1.42.59,1.2,1.45,2.24,1.54,3.66.2.78-.74,1.69-1.06,2.68-1.27.64-.13,1.22-.05,1.68.47,2.49,3.04,3.97,6.66,5.73,10.11.71,1.4,1.08,2.9,1.24,4.45.36,3.49,1.46,6.74,3.03,9.85.73,1.44,1.08,2.97,1.1,4.57,0,.35.05.8-.36.94-.39.13-.64-.24-.87-.51-.26-.3-.5-.62-.75-.92-.92-1.09-1.28-1.04-1.83.28-.45.37-.72-.06-1.02-.25-.8-.5-1.41-1.23-2.1-1.85-5.25-4.72-9.97-9.88-13.22-16.23-1.26-2.46-2.88-4.72-4.22-7.14-.22-.4-.52-.76-.58-1,1,1.77,2.17,3.69,3.33,5.61,1.62,2.72,3,5.57,4.69,8.26,2.24,3.57,5.11,6.58,8.13,9.47,2.52,2.41,5.36,4.45,7.74,7.02.65.71,1.37,1.36,2,2.1.64.7.98,1.57,1.36,2.41.24.52.52,1.02.97,1.39.84.67,1.57.57,2.26-.3.18-.61.01-1.21-.08-1.81-.57-3.85-1.71-7.55-2.76-11.28-.65-2.31-1.31-4.62-1.9-6.95-1.23-2.16-1.53-4.61-2.1-6.98-.44-1.84-1.17-3.55-2.15-5.15-1.22-2-2.09-4.18-3.26-6.2-.02-1.2.05-1.32,1.18-1.31.71,0,.65-.46.6-.87-.12-1.11-.29-2.2-.54-3.29-.22-.94.15-1.24,1.09-.96.66.19,1.02.78,1.56,1.12.94.71,1.52,1.65,1.98,2.75,1.13,2.72,3.1,4.82,5.32,6.68.66.56,1.12.6,1.83.48-1.17-1.13-1.04-1.19-1.99-3.21-1.09-2.31-2.14-4.62-3.04-7.01-.48-1.27-1.52-2.16-2.68-2.88-.43-.27-.89-.48-1.34-.7-1.82-.91-1.68-.87-1.13-2.8,1.27-4.45,1.79-8.95.1-13.45-1.3-1.56-2.83-2.78-4.67-3.73-3.1-1.6-5.98-3.6-8.88-5.54-1.29-.86-2.54-1.76-3.88-2.55-.96-.95-1.28-2.23-1.82-3.4-2.11-4.58-3.93-9.29-5.1-14.2-1.02-4.3-2.04-8.61-2.46-13.03-.68-7.26-.03-14.35,2.68-21.2,1.48-3.74,3.66-6.99,6.28-9.99,1.54-1.76,3.1-3.49,5.03-4.86,3.37-2.4,7.2-3.54,11.24-4.09,1.04-.14,2.07-.28,3.12-.22.39.02.78.02,1.07.35-.27.46-.7.42-1.07.5-4.35,1.02-8.53,2.43-12.05,5.29-3.86,3.14-6.75,7.03-8.78,11.59-3.15,7.06-3.27,14.35-1.77,21.77.47,2.32,1.53,4.43,2.61,6.49,2.79,5.31,6.09,10.25,10.3,14.58,3.97,4.09,8.13,7.93,12.7,11.33,3.24,2.41,6.77,4.37,10.29,6.33,2.45,1.37,4.94,2.66,7.63,3.51,1.2.38,2.42.64,3.66.86.3.06.61.15.74.43.19.42.29.78.84.32.15-.13.46.05.58.31-.24.49-.09.89.27,1.25.9.89,1.91,1.44,3.24,1.21.38-.06.92-.37,1.05.37.8.7,1.92.91,2.65,1.71.24.26.84-.36.86.37.59,1.68.85,3.48,1.95,4.96Z"/>
      <path class="cls-2" d="M212.45,115.1c-.76-.04-1.54-.18-2.17.43-1.14-3.94-3.65-7.13-5.77-10.53-.67-1.07-1.29-2.15-1.76-3.33-1.84-4.65-4.48-8.83-7.58-12.73.23.62.66,1.13.91,1.73.15.35.46.68.17,1.1-.94-.94-1.52-2.14-2.27-3.21-1.43-2.05-2.98-4-4.59-5.91-.13-.16-.2-.37-.3-.55-.32-.84-1.03-1.41-1.62-2-2.03-1.99-3.5-4.44-5.4-6.54-.45-.49-1.23-.81-1.15-1.68.63.34,1.25.15,1.92.06,1.23-.17,2.47.04,3.7.17,2.39.27,4.72.8,7,1.57.05.02.08.11.11.16-.42.4-.87.15-1.32.06-2.74-.58-5.48-1.11-8.27-1.01,3.2.37,6.46.57,9.59,1.58.85.27,1.78.39,2.66.34,1.84-.1,3.51.42,5.05,1.29,2.33,1.32,4.95,1.93,7.27,3.25.37.21.8.26,1.28.27-.71-.11-1.25-.49-1.81-.8-.98-.54-1.98-1.01-3.05-1.36-.42-.14-.95-.18-1.05-.77,1.85.28,3.59.96,5.38,1.48.53.15.36.89.98,1.11.7.25,1.41.36,2.11.49.52.09.63-.81,1.25-.76.3.38-.05.64-.15.91.82-1.32,1.6-1.37,2.62-.12.43.53.84,1.08,1.11,1.71.8,1.85,2.36,2.71,4.15,3.26.79.24,1.59.42,2.37.68.51.17,1.03.32,1.56.05.51.8,1.44.88,2.18,1.28-.13.15-.3.19-.4.14.71.4,1.57.7,2.34,1.19-1.44,1.01-2.74,2.22-4.35,2.98-.1-.59.45-.74.64-1.01-1.66,1.32-3.55,2.51-5.26,3.96-3.31,2.81-4.94,6.47-5.68,10.61-.4,2.23-.33,4.52-.86,6.73-.23.98-.5,1.95-.85,2.9-.13.35-.18.81-.72.81Z"/>
      <path class="cls-2" d="M7.88,166.94c1.45-.13,2.87-.52,4.34-.43,3.14.18,6.18.86,9.06,2.15-.44.41-.95.24-1.43.15-1.11-.21-2.23-.41-2.97-.56,1.13.14,2.57.61,4.04.92,2.61.54,5.24.86,7.92.92,4.07.1,8.13-.13,12.18-.29,3.02-.12,6.05.02,9.05-.18,2.95-.2,5.89.03,8.83,0,6.21-.06,12.3-1.12,18.4-2.17,6.09-1.06,11.95-2.86,17.66-5.17.86-.35,1.66-.87,2.56-1.14-.29.09-.58.24-.86-.03.28-.49.7-.8,1.2-1.04.95-.45,1.3-.26,1.27.75-.03,1.18-.22,2.32-1.48,2.86-2.17.94-3.8,2.68-5.79,3.88-.71.43-1.52.66-2.22,1.08-5.29,3.2-11.24,4.62-17.02,6.54-4.61,1.53-9.37,2.31-14.07,3.41-3.59.84-7.04,2.2-10.68,2.85-3.62.65-7.24,1.29-10.86,1.91-.56.1-1.11.32-1.7.22-.94-.51-.51-1.45-.6-2.18-.08-.64,0-1.34.15-2,.29-1.48.58-2.96.87-4.45.24-.28.57-.3.89-.31,3.67-.07,7.33.13,10.99.44.5.04,1.27.02,1.25.71-.02.6-.74.67-1.27.77-1.3.25-2.61.54-3.92.7-1.57.19-3.15.11-4.37-.27.55.09,1.42.37,2.33.33.89-.04,1.78,0,2.68-.16.91-.17,1.83-.35,2.76-.48.74-.11,1.53-.07,2.16-.57.25-.2.59-.38.49-.76-.08-.32-.43-.34-.7-.42-2.11-.56-4.28-.64-6.42-.7-3.02-.08-6.04-.18-9.06-.27-2.63-.08-5.23.49-7.86.44-.87-.02-1.73-.08-2.56-.32-3.36-.97-6.79-1.64-10.21-2.32-1.34-.27-2.57-.69-3.38-1.9-.17-.26-.42-.5-.78-.53-.4-.33-.23-.86-.44-1.26-.23-.34-.56-.64-.43-1.11Z"/>
      <path class="cls-2" d="M240.06,127c-.22-.78-.7-1.24-1.64-1.48-1.04-.26-2.09-.49-3.13-.73-.99-.54-2.06-.81-3.16-1-2.13-.36-4.22-.88-6.3-1.46-1.79-.51-3.61-.59-5.45-.3-1.47.23-2.86-.08-4.15-.82-.97-.55-1.02-.79-.26-1.6.86-.93,1.28-1.96.77-3.21-.92-2.34-.69-4.64.24-6.91.57.97-.28,1.76-.3,2.75.83-4.19,2.99-7.72,4.9-11.35,1.13-2.16,2.99-3.76,4.97-5.17,1.14-.82,2.34-1.56,3.29-2.61.24-.26.49-.54.91-.48-.29.78-.11,1.59-.22,2.39-.59-.31-.16-.78-.24-1.09-.15.68,0,1.27.65,1.86,1.49,1.38,3.2,2.56,4.11,4.49.4.86.71,1.74.74,2.68.06,2.03.88,3.78,1.99,5.38.94,1.36,1.39,2.9,1.97,4.4.22.55,0,1.06-.25,1.54-.28.54-.54,1.09-.85,1.62-.19.33-.55.65-.26,1.07.28.39.7.16,1.05.16-.21-.11-.68.27-.64-.34,1.01.14,2.04-.22,3.04.51.58.42.87.79.86,1.45-.1.13-.38-.14-.4.17-.04,1.13-.03,2.23.89,3.1.6.57,1.12,1.23,1.78,1.72.98.73,1.16,1.66.85,2.77-.17.59-.34,1.17-.46,1.77-.07.35.18.17.31.2.12.64-.25,1.08-.62,1.52-.42.12-.67-.19-.94-.39-1.01-.74-2.05-1.41-3.23-1.87-.34-.13-.78-.23-.81-.74Z"/>
      <path class="cls-4" d="M167.05,156.6c-.47-.49-1.2-.63-1.57-1.31-.28-.52-.33.21-.55.21-.5.05-.98.16-1.45.38-.68.33-.96.04-.87-.65.04-.32.1-.64.1-.96,0-.53-.26.14-.34-.06.18-.64-.61-.45-.72-.84.19-.38.24-.66-.35-.64-.31,0-.74.05-.86-.28-.15-.42.35-.54.57-.78.5-.57,1.22-.86,1.73-1.4.28-.28.26-.55-.04-.81-1.21-1-2.53-1.78-4.06-2.15-1.57-.38-2.7-1.3-3.45-2.71-.2-.38-.36-.79-.42-1.22-.06-.43-.19-.98.23-1.19.49-.25.77.28.97.63.47.79,1.17,1.09,2.03,1.26,1.52.28,3.01.13,4.5-.12.33-.06.66-.19.79-.5.18-.41-.25-.54-.46-.76-.64-.69-1.41-1.23-2.16-1.79-1.39-1.04-1.93-2.49-2.27-4.14-.67-3.29-1.17-6.67-3.55-9.33-.36-.4-.67-.85-.94-1.31-.11-.19-.21-.42,0-.59.2-.16.41,0,.58.12.27.18.48.43.72.65.59.58,1.13,1.22,1.83,1.67,1.62,1.04,2.5,2.59,2.89,4.39.37,1.72,1.4,2.96,2.59,4.13.29.28.65.47,1.03.57,1.23.3,2.44.64,3.53,1.3.35.21.61.17.74-.26.23-.77.81-.82,1.47-.69.73.15.84-.1.51-.73-.2-.39-.66-.9-.24-1.25.43-.36.87.18,1.19.47,1.31,1.22,2.82,2.24,3.89,3.72.19.26.4.56.68.68,1.46.64,1.98,2,2.63,3.28,1.71,3.41,4.04,6.26,7.34,8.27.98.6,1.88,1.33,2.75,2.08.97.84,1.58,1.87,1.68,3.15.13,1.58.23,3.16-.12,4.72-.23,1-.65,1.09-1.39.4-.53-.49-.76-1.35-1.67-1.37-.42-.22-.97.04-1.36-.34-.01-.61-.55-.6-.92-.71-1.44-.46-2.96-.6-4.43-.94-.64-.15-1.27-.33-1.77-.76-2.11-1.87-4.71-2.41-7.38-2.69-1.24-.13-2.49-.27-3.84-.41,1.2.46,2.37.55,3.5.61,2.79.16,5.26,1.09,7.43,2.82.77.61,1.65.83,2.58.99.38.06.95.04.94.63-.01.48-.82.76-1.39.46-1.06-.56-2.21-.57-3.36-.69-2.97-.3-5.79-1.07-8.32-2.73-.35-.23-.73-.48-1.19-.48Z"/>
      <path class="cls-2" d="M198.85,109.24c-1.95-.8-4.13-1-5.86-2.35-.48-.96-1.42-1.51-2.08-2.31-1.61-1.93-2.55-4.25-3.73-6.42-.79-1.45-1.7-2.71-3.07-3.67-2.15-1.52-4.36-2.91-6.8-3.93-1.56-.65-3.04-1.48-4.52-2.29-2.62-1.43-5.35-2.64-8.15-3.68-1.56-.58-3.04-1.31-4.51-2.06-.27-.14-.62-.25-.61-.67.24-.03.48-.06.72-.09-.32-.47-.99-.43-1.24-1.05,2.76,1.16,5.85,1.21,8.54,2.61-.42.36-.81.02-1.22-.01,1.44.09,2.72.8,4.11,1.07.27.05.6.16.81-.1.26-.31.01-.61-.11-.9-.24-.54-.69-.91-1.04-1.37-.37-.48-.26-.79.36-.87.63-.08,1.22.02,1.75.39.44.31.87.64,1.28.98,1.19,1,2.47,1.71,4.13,1.42.58-.1,1.21-.1,1.9.19-.76-.41-1.23-.98-1.73-1.51-2.43-2.61-5.23-4.71-8.55-6.06-.95-.39-1.31-1.15-1.34-2.14-.01-.41.23-.98-.42-1.18-.31-.43-.91-.35-1.27-.7-.07-.56-.61-.75-.9-1.13-.34-.43-.86-.77-.62-1.45.07,0,.15-.03.21-.01,2.74,1.09,5.68,1.78,8.12,3.52,1.37.98,2.7,2,4.16,2.85.38.22.84.18,1.15.51,1.21.96,2.54,1.76,3.85,2.55,3.28,1.96,5.32,4.91,6.74,8.31,1.14,2.73,2.52,5.25,4.74,7.25.13.12.28.23.23.45.2,1.37.77,2.64,1.33,3.88.84,1.85,1.86,3.62,3.39,5.02-.06.96.54,1.67.92,2.46.17.35.44.66.64,1,.22.37.59.76.39,1.18-.22.46-.71.12-1.08.16-.21.02-.43-.02-.62.13Z"/>
      <path class="cls-9" d="M123.65,86.82c-1.1.4-2.1-.14-3.1-.42-4-1.08-7.49-3.27-11.07-5.24-6.25-3.43-11.76-7.83-16.9-12.75-4.17-4-8.04-8.23-10.99-13.22-1.63-2.75-3.3-5.48-4.44-8.48-1.8-4.73-2.02-9.62-1.73-14.62.31-5.24,2.01-9.98,4.74-14.36,3.92-6.29,9.35-10.64,16.69-12.37.52-.12,1.03-.32,1.55-.45.48-.12.97-.2,1.46-.3-5.28-.38-13.02,1.74-17.13,5.93-2.98,3.04-5.77,6.23-7.73,10.03-1.74,3.39-2.89,7.03-3.57,10.78-.57,3.15-.74,6.34-.63,9.54.16,4.64,1.13,9.15,2.02,13.68,1.35,6.82,3.9,13.18,6.8,19.43.18.39.43.74.65,1.11,1.31,1.55,2.02,3.47,3.12,5.16,2.91,4.47,6.16,8.68,9.5,12.81.86,1.06,1.64,2.19,2.5,3.24.24.29.5.64.2,1.07-3.34-2.94-5.86-6.59-8.58-10.06-6.73-8.62-11.27-18.34-14.11-28.83-1.66-6.15-2.86-12.42-2.95-18.86-.1-6.68,1.11-13.1,4.11-19.02,2.73-5.39,6.5-10.06,11.63-13.47,1.74-1.16,3.79-1.65,5.66-2.52.63-.29,1.55-.3,2.34-.46-.5-.21-1.06.21-1.6-.17.37-.53.94-.7,1.47-.75,2.07-.21,3.82-1.13,5.49-2.29.78-.54,1.69-1.11,2.57-.93,2.53.51,5.11-.1,7.62.43.14.03.26.12.39.18.31.17.32.37.01.54-.29.16-.63.15-.95.15-1.4,0-2.8,0-4.19.2-.71.1-1.42.08-2.12-.2-.98-.38-1.82.07-2.62.58-1.05.67-2.05,1.45-3.1,1.67,1.05-.51,2.3-.2,3.55.08.53.12,1.08.4,1.08,1.04,0,.62-.56.8-1.05.9-.9.18-1.74.63-2.69.53-.14,0,.09.19.03.06-.02-.05,0-.06.08-.06.87.05,1.55.52,2.2,1.04.87.71,1.75,1.37,2.89,1.6.34.07.72.19.64.7-1.1.49-2.09.13-3.03-.43-.49-.29-.94-.66-1.37-1.04-1.61-1.46-3.48-1.54-5.27-.67-2.98,1.46-6.03,2.81-8.39,5.32-5.02,5.32-8.33,11.41-8.97,18.8-.44,5.08-.39,10.15,1.6,14.93,2.3,5.55,5.45,10.61,9.37,15.19,4.65,5.44,9.88,10.23,15.6,14.5,1.24.93,2.6,1.67,3.96,2.39,3.85,2.04,7.36,4.69,11.41,6.36.79.33,1.56.71,2.43.8,1.1.12,2.06.56,2.95,1.19Z"/>
      <path class="cls-2" d="M150.86,122.68c1-.41,1.66-1.09,1.78-2.21,1.58-1.29,3.11-2.65,4.7-3.93.84-.68,1.69-1.34,2.51-2.03,2.08-1.74,4.08-3.54,4.86-6.28.03-.1.11-.18.2-.25.77-.35,1.68.11,2.41-.43.91.52,1.98.6,2.93,1,2.94,1.23,5.83,2.57,8.63,4.09,1.77.96,3.59,1.79,5.57,2.21.51.11,1.08.15,1.36.72-.03.2-.13.37-.34.34-.97-.13-1.92-.11-2.85.22-1.29-.75-2.71-.61-4.08-.47-3.07.31-6.11.82-9.13,1.48-1.52.33-2.97.84-4.27,1.72-.29.2-.66.33-.65.78-.29.29-.61.4-1.03.31-.58-.11-.22.34-.27.54-.54.16-.55-.47-.97-.65-.24.42-.61.71-1.11.85-2.16.6-3.81,2.09-5.64,3.28-.25.16-.42.39-.41.72-.07.28-.25.44-.54.48-1.4-.56-2.64-1.37-3.67-2.48Z"/>
      <path class="cls-9" d="M154.93,124.59c-.41-.1-.2-.3-.04-.42,1.86-1.44,3.69-2.92,5.98-3.66.49-.16,1.05-.14,1.05-.93,0-.5.33-.28.58-.09.34.27.19.87.7,1.02,1.53,1.56,3.08,3.1,5.01,4.17.66.37,1.31.73,1.96,1.11,2.19,1.3,3.22,3.28,3.4,5.77.21,2.87,1.05,5.6,1.93,8.32.06.2.07.45.33.51,1.09.28,1.58,1.16,2.06,2.05,1.08,1.99,2.41,3.82,3.72,5.65.84,1.18,2.15,1.9,3.31,2.72,1.36.96,2.54,2.1,3.83,3.13.78.62,1.2,1.42,1.36,2.54.33,2.26.16,4.42-.34,6.6-.07.3-.12.56-.47.63-.31.06-.43-.14-.6-.35-.71-.85-1.44-1.69-2.16-2.53.59-.52.91.04,1.21.36.44.46.72,1.06,1.3,1.41.48-.5.4-1.18.46-1.74.16-1.57.13-3.16-.22-4.71-.12-.57-.46-1.04-.87-1.46-.88-.91-1.85-1.74-2.92-2.37-3.98-2.33-6.54-5.83-8.45-9.9-.35-.76-.76-1.43-1.65-1.73-.37-.12-.68-.52-.94-.86-1.34-1.71-3.05-3.01-4.85-4.52.05.77.44,1.19.67,1.66.11.22.36.43.16.68-.17.21-.46.15-.71.12-.18-.02-.35-.07-.52-.13-.69-.25-1.16-.03-1.17.71,0,.84-.32.68-.83.4-1.03-.58-2.08-1.07-3.28-1.3-1.76-.34-2.72-1.78-3.56-3.18-.51-.84-.7-1.87-1.01-2.82-.39-1.24-1.06-2.27-2.15-3-1.2-.81-2.15-1.88-3.18-2.9.25.91.88,1.58,1.48,2.23.75.82,1.22,1.76,1.59,2.78.63,1.74.99,3.57,1.62,5.32.19.53,0,1.23.17,1.86.31,1.2.91,2.21,1.92,2.9,1.13.77,2.06,1.76,3.18,2.59-1.29,1.55-3.06,1.17-4.67,1.24-1.77.07-3.37-.33-4.08-2.36-.44,2.31,1.11,4.33,3.54,4.96,1.62.42,3.06,1.18,4.26,2.37-.1.58-.55.46-.92.42-.4-.04-.77-.22-1.08-.47-1.05-.86-2.3-1.31-3.52-1.84-2.31-1.01-3.61-3.19-3.45-5.69.08-1.23.68-1.53,1.69-.86.27.18.56.36.72.64.72,1.31,1.94,1.47,3.23,1.48.59,0,1.19.03,1.93-.04-.5-.64-1.06-.98-1.54-1.38-.72-.61-1.38-1.26-1.68-2.19-.12-.37-.45-.54-.71-.78-.99-.89-2.04-1.71-2.73-2.88-.25-.16-.4-.28-.7.06-.95,1.09-1.2,1.04-2.24-.26.55.05,1.13.84,1.52-.19.28-.73.35-1.15-.54-1.37-.59-.15-1.14-.42-1.71-.64-.18.03-.37,0-.52-.09-2.82-1.69-5.43-3.59-7.35-6.36-1.34-1.94-2.78-3.83-4.3-5.65-1.02-1.23-1.78-2.59-2.26-4.11-.21-.35-.43-.71-.79-1.31,1.08.75,1.6,1.61,2.06,2.46,1.19,2.23,2.92,4.08,4.42,6.08,1.33,1.79,2.67,3.66,4.65,4.88.63-.09.94.52,1.46.67,2.58,1.96,5.5,3.22,8.79,4.21-.64-1.83-1.14-3.54-2.23-4.98-.47-.63-1.05-1.19-1.48-1.85-.47-.73-.84-.62-1.45-.13-.95.76-1.7,1.77-2.85,2.28-.13.06-.27.11-.41.13-.28.05-.6.16-.75-.18-.11-.26.1-.48.27-.65.93-.99,1.91-1.93,2.86-2.89.18-.18.64-.32.41-.64-.3-.43-.74-.83-1.24-.98-.41-.12-.39.42-.51.68-.48,1-1.01,1.98-1.89,2.7-.16.13-.34.27-.58.17-.3.05-.58.31-1.06.05,1.42-1.05,2.1-2.57,3-3.95.33-.52.28-.68-.18-.95-.46-.27-.91-.55-1.21-1.16,1.02.02,1.89.29,2.68.82,1.23.78,2.47,1.57,3.7,2.35,2.47,1.82,5.17,3.42,6.04,6.72.31,1.16.65,2.32,1.52,3.29.93,1.04,2.1,1.45,3.37,1.77.21.05.45.1.63-.02.61-.4,1.27-.46,1.97-.4.3.03.6-.04.69-.38.08-.32-.15-.42-.41-.52-.53-.21-.58-.7-.55-1.17.04-.5,0-1.02.12-1.5.32-1.36.11-2.64-.44-3.89-.09-.2-.14-.41-.15-.63.24-.88.68-.43.95-.09.61.76,1.08,1.62,1.2,2.61.02.14.04.29.01.43-.31,1.87.15,3.29,2.14,3.94.62.2.93.87,1.47,1.29-.65-1.77-.63-3.64-.89-5.46-.25-1.77-.98-3.26-2.56-4.17-2.14-1.25-4.16-2.66-5.96-4.38.81,1.35,1.92,2.43,2.93,3.6.29.33.89.66.3,1.24-.6.16-.95-.26-1.27-.62-1.34-1.48-2.76-2.9-3.51-4.83-.38-.98-.43-.92-1.4-.37-1.59.89-3.17,1.8-4.73,2.76-.33.2-.68.41-1.1.35Z"/>
      <path class="cls-2" d="M137.26,149.21c.88-.73.96-1.89,1.51-2.79.38-.13.61.14.85.34,1.27,1.07,2.6,2.05,4.14,2.7.25.11.6.2.61.53,0,.39-.35.52-.65.63-1.11.41-2.25.75-3.36,1.23.38.14.76.06,1.13-.06.62-.19,1.28-.31,1.83-.65,1.74-1.07,3.51-.75,5.29-.2.25.08.48.17.56.45-.12.36.12.79-.21,1.11-.29-.26-.33.03-.42.2-.86,1.68-.85,3.42-.19,5.12,1,2.58,1.81,5.23,3,7.73.72,1.52.93,3.16.81,4.84-.06.92-.54,1.66-1.33,2.1-.85.48-1.64,1.14-2.77,1.02-.52-.06-.99.37-1.5.57-.27.1-.58.22-.81-.01-.24-.24-.07-.54.03-.81.17-.43.4-.85.53-1.29.17-.57.19-1.15-.13-1.67-.34-.54-.89-.8-1.31-.22-.96,1.33-2.27,1.49-3.72,1.37-.07,0-.15,0-.22,0-.74-.55-.77-1-.16-1.4,1.6-1.05,2.52-2.61,3.07-4.37.39-1.24.23-2.56.45-3.84.06-.36-.08-.71-.29-1.01-.17-.24-.35-.46-.57-.64-2.28-1.82-3.86-4.1-4.55-7.07-.27.37-.11.71-.36.91-.49.12-.75-.16-.93-.56.07-1.44.02-2.87-.33-4.28Z"/>
      <path class="cls-2" d="M151.52,83.33c.75-.44,1.48-.02,2.15.16,3.33.87,6.59,1.95,9.68,3.49.66.33,1.4.57,2.13.69,1.76.29,3.14,1.32,4.63,2.16-.24.25-.54.21-.8.08-2.16-1.1-4.6-1.24-6.75-2.02.68.34,1.53.43,2.35.65,4.05,1.06,7.88,2.64,11.28,5.11,1.6,1.16,2.93,2.66,4.24,4.13,1.61,1.79,3.32,3.48,5.05,5.15.2.19.47.36.39.71-.02.11-.02.22-.05.32-.78,2.46-.47,2.65-3,1.15-2.85-1.69-5.37-3.78-7.59-6.38-1.7-1.99-3.84-3.84-6.46-4.85-.96-.37-1.83-.99-2.76-1.44-1.35-.66-1.41-.62-1.98.64-.14.12-.28.13-.42,0,.5-.36.41-.81.2-1.28-.02-.25-.16-.38-.4-.44-1.98-.55-3.79-1.55-5.7-2.27-1.45-.55-2.8-1.34-3.65-2.73-.25-.42-.73-.8-.47-1.35.25-.54.83-.17,1.3-.29-1.02-.88-2.43-.58-3.39-1.37Z"/>
      <path class="cls-2" d="M95.58,97.41c-.62-1.55-1.79-2.73-2.81-4-4.5-5.62-8.96-11.26-12.31-17.67-.1-.19-.14-.4-.2-.6.82.14,1.4.72,2.04,1.16,4.19,2.9,8.47,5.65,12.95,8.08,1.06.58,1.51,1.77,2.48,2.45,0,1.12.38,2.18.56,3.28.47,2.73-.08,5.37-.47,8.03-.07.46-.11.94-.54,1.24-.72-.52-1.14-1.3-1.7-1.96Z"/>
      <path class="cls-9" d="M102.92,169.96c.41-.02.49-.63,1.16-.5-1.1,1.32-2.13,2.56-3.5,3.65.83.2,1.53.07,2.18-.13,1.52-.48,3.19-.53,4.49-1.64.63-.53,1.01-1.12,1.12-1.98.23-1.85,1.12-3.14,3.15-3.31,1.52-.13,3.38-1.59,3.31-3.76-.13-4,0-8.01-.67-11.98-.38-2.28-1.28-4.4-1.9-6.6-.87-3.07-1.72-6.14-2.49-9.23-.34-1.37.27-2.29,1.5-3.01,2.79-1.64,5.83-1.73,8.89-1.33,4.74.61,9.23,2.29,13.85,3.43.96.24,1.93.17,2.9.11.84-.05,1.15-.89,1.72-1.41.28,1.44-.61,2.4-2.2,2.51-1.8.12-3.51-.34-5.15-.95-1.54-.57-2.94-.58-4.46.05-2.75,1.13-5.17,2.66-6.86,5.16-.16.23-.25.51-.37.77-.88,2.02-1.39,4.11-1.4,6.35-.01,2.48-.64,4.88-1.61,7.16-.86,2-1.01,4.03-.84,6.17.09,1.15.37,2.27-.04,3.49-.68,2.04-2.09,3.03-4.03,3.57-2.38.66-2.47.83-2.72,3.4-.14,1.4-1.03,2.35-2.19,2.85-2.06.89-4.22,1.56-6.53,1.33-.4-.04-.91-.07-1.06-.38-.17-.34.34-.55.55-.82.9-1.16,2.28-1.79,3.19-2.94Z"/>
      <path class="cls-9" d="M138.55,154.01c-.3-.61-.1-1.08.4-1.53.78,2.51,1.51,4.95,3.71,6.57.51.38.92.9,1.38,1.36.37.37.61.8.57,1.34-.18,2.92-.57,5.75-2.82,7.96-.39.38-.64.82-1.31.6.11.49.13.89.46,1.16,1.58,4.54,4.24,8.41,7.48,11.91,1.19,1.29,2.01,2.76,2.49,4.44.61,2.15-.49,3.81-1.49,5.51-.1.17-.25.28-.45.19-.23-.09-.28-.3-.29-.53-.02-.48.15-.98-.16-1.58-.66,1.07-1.36,1.97-2.19,2.75-.83.78-3.64,1.38-4.43.65-.94-.86-1.82-1.88-2.42-3.06-.1-.2,0-.42.16-.59.65-.69.07-1.06-.43-1.33-.42-.23-.96-.25-1.43-.81.37,0,.65-.07.86.01.58.24.95.12,1.31-.43.44-.66-.24-.79-.44-1.13-.45-.77-1.5-1.24-1.13-2.4.65-.06.93.48,1.27.85.51.55.85,1.23,1.39,1.77.32.32.39.76.29,1.21-.15.65-.1.98.21,1.35,1.1,1.01,1.62.91,2.25-.39.23-.48.32-1.03.74-1.41.68,1.51-1.01,3.98-3.04,4.44.88,1.39,2.34,1.65,3.61.73,1.4-1.02,2.18-2.45,2.78-4.01.15-.39.29-.79.52-1.42.6,1.3.48,2.46.49,3.86,1.21-1.48,1.37-2.93.98-4.47-.37-1.46-1.27-2.63-2.26-3.74-2.47-2.77-4.81-5.66-6.35-9.05-1.82-4.01-3.65-8.03-5.17-12.17-.78-2.12-.29-4.24.29-6.34.13-.47.35-.34.62-.15.47.39.35.92.27,1.4-.36,2.29-.21,4.47.84,6.6.7,1.41,1.12,2.95,1.87,4.35.32.61.53.59.98.07,1.63-1.91,2.23-4.14,2.17-6.59-.02-.88-.61-1.47-1.24-1.93-1.67-1.24-2.54-2.99-3.3-4.83-.16-.39-.37-.8-.06-1.22Z"/>
      <path class="cls-1" d="M24.95,201.06c.34.31.18.64.05.98q-1.2,3.38-4.7,2.72c-1.26-.24-3.26-.14-4.22.27,2.74-.09,4.85,1.77,7.47,2.23,8.01,1.39,15.69.83,23.28-2.27,4.46-1.82,8.69-4.09,13.06-6.06,3.44-1.55,6.81-3.23,10.06-5.14,5.48-3.23,10.56-7.05,15.53-11.02,4.74-3.79,9.31-7.78,14.03-11.59.81-.65,1.7-1.21,2.55-1.8.33-.23.7-.53.85.17-.65.09-.93.69-1.37,1.04-4.28,3.5-8.49,7.1-12.79,10.58-3.71,3-7.42,5.99-11.35,8.73-5.39,3.76-11.27,6.6-17.14,9.49-2.79,1.38-5.59,2.73-8.4,4.03-4.58,2.11-9.16,4.36-14.22,5.13-3.45.53-6.93.66-10.42.19-1.91-.25-3.82-.55-5.7-.98-1.31-.29-2.38-1.13-3.64-1.51-1.42-.43-2.84-.29-4.26.05-.34.08-.76.31-.95-.12-.18-.41.25-.64.54-.83,2-1.34,4.24-1.65,6.57-1.42.71.07,1.44.16,2.1.41,1.04.4,1.45-.12,1.77-.95.33-.83.71-1.64,1.28-2.34Z"/>
      <path class="cls-1" d="M42.89,133.03c-.3,1.13-.2,2.28-.22,3.42-.02,1.15-.46,1.62-1.59,1.54-1.59-.12-3.15.17-4.72.26-.34.02-.74.05-.6.51.53,1.72.02,3.54.57,5.26.4,1.22,1.15,2.13,2.14,2.88.57.43.44.75-.12.99-.79.35-1.62.69-2.48.31-2.47-1.1-4.55.06-6.56,1.19-1.19.67-2.35,1.35-3.69,1.69-1.32.33-2.66.61-3.76,1.49-.13.11-.33.17-.5.18-3.12.09-5.24,2.25-7.68,3.73-.57.35-1.21.63-1.62,1.32.61.09,1.09-.15,1.53-.39,3.48-1.95,7.12-2.25,10.88-1.01,1.39.46,1.77-.7,2.59-1.48-.15.48-.26.85-.38,1.22-.86,1.25-1.92,1.29-3.37,1.01-2.46-.47-5.01-.84-7.36.73-1.16.77-2.59.98-3.98,1.06-.57.03-1.23-.07-1.44-.69-.19-.57.42-.84.75-1.2,2.09-2.29,4.88-3.56,7.66-4.5,2.41-.81,4.74-1.88,7.24-2.45.58-.13,1.21-.33,1.66-.69,1.23-.99,2.67-1.46,4.12-1.98.92-.33,1.79-.45,2.72-.13,1.13.21,2.26.75,3.4.04.15.06.04-.05.01-.04-.37.11-.5-.15-.58-.44-1.37-1.58-2.26-3.32-2.17-5.51.04-.9-.44-1.79-.44-2.74,0-.73.29-1,1.01-1.07,1.74-.16,3.46-.57,5.23-.38.8.09,1.14-.38,1.1-1.09-.1-1.74.35-3.37,1-4.94.29-.7.02-1.1-.6-1.33-.77-.28-1.3-.91-1.19-1.61.26-1.75-.39-3.32-.76-4.93-.42-1.85-.04-3.57.62-5.24.29-.72.35-1.34.05-2.03.05-.26-.05-.88.45-.28.48.57.91,1.21,1.24,1.88.98,1.99,2.36,3.66,3.96,5.17,1.28,1.21,2.56,2.4,3.84,3.6.19.31.78.56.46.95-.3.38-.76-.03-1.03-.24-1.88-1.55-3.72-3.15-5.35-4.96-1.01-1.12-1.9-2.32-2.42-3.82-.31,1.66-.9,3.2-.42,4.83.12.41.18.84.33,1.24.34.88.51,1.77.34,2.73-.17.96,0,1.84.99,2.4.75.42.85,1.14.45,1.87-.35.62-.68,1.27-1.3,1.68Z"/>
      <path class="cls-2" d="M103.37,9.48c-.09-.11-.17-.31-.26-.32-1.59-.16-2.73-1.17-3.9-2.1-.57-.46-1.23-.69-2.25-.91,1.23-.32,2.15-.57,3.08-.79.45-.11,1.08-.11,1.06-.67-.02-.54-.61-.76-1.12-.83-1.17-.17-2.33-.41-3.51-.04-.13.04-.28,0-.46-.08,1.9-.64,3.27-2.2,5.18-2.82.35-.11.75-.29,1.04-.08,1.07.78,2.18.33,3.3.25,1.21-.09,2.44-.04,3.66-.07.25,0,.66.14.46-.4.85.39,1.93.23,2.61,1.04,1.05,1.03,1.82,2.29,2.88,3.31.21.21.56.5.29.81-.25.29-.6.03-.88-.11-1.09-.53-2.17-1.08-3.34-1.44-.8-.25-1.6-.31-2.41,0-.66.21-1.31.42-1.97.64-.62-.1-1.2.08-1.79.22-.34.08-.68.25-.68.7,0,.41.23.66.58.81.13.06.27.1.4.15.29.11.68.13.72.53.03.34-.3.46-.52.62-.26.19-.54.35-.64.68-.5.29-1,.59-1.5.88Z"/>
      <path class="cls-1" d="M151.52,83.33c1.2.2,2.39.46,3.49,1,.23.12.64.18.48.57-.11.27-.44.16-.68.15-.17,0-.35-.06-.52-.11-.18-.05-.37-.11-.5.05-.16.2-.01.39.09.59.91,1.72,2.46,2.65,4.17,3.36,1.81.76,3.65,1.46,5.47,2.19.29.11.7.2.3.65-2.43-.71-4.71-1.8-7.02-2.82-1.81-.8-3.08-2.16-3.74-4.04-.16-.46-.53-.46-.84-.48-1.28-.1-2.5-.26-3.24-1.52-.24-.4-.69-.29-1.08-.28-.83.01-1.65.03-2.48.06-.37.01-.72-.03-1.04-.22-.28-.17-.59-.39-.54-.73.04-.31.41-.34.69-.42,4.21-1.14,8.42-1.54,12.64-.02.75.27,1.56.37,2.35.55,2.01,1.27,4.24,2.07,6.44,2.96,2.56,1.04,5.1,2.13,7.5,3.53,2.58,1.5,5.47,2.4,7.98,4.02,1.83,1.18,3.83,2.21,5.07,4.08.93,1.4,1.66,2.94,2.41,4.45.9,1.82,2.02,3.47,3.49,4.88.3.29.78.53.6,1.11-1.99-1.44-3.53-3.27-4.49-5.53-1.95-4.6-5.48-7.6-9.89-9.58-3.51-1.57-6.82-3.54-10.36-5.02-1.55-.65-3.1-1.32-4.63-2.02-2.5-1.14-4.94-2.38-7.58-3.22-2.75-.88-5.43-.7-8.15-.24-.65.11-1.38-.09-2.05.51.59.15,1.07.04,1.57-.08.98-.24,1.84-.13,2.45.82.37.58.94.88,1.66.79Z"/>
      <path class="cls-9" d="M124.72,148.82c.19-2.8-.14-5.54-.88-8.24-.17-.63-.1-.74.48-.43.68.21.89.79,1.08,1.37.63,1.86.83,3.78.92,5.72.11,2.37-.13,4.73-.3,7.09-.13,1.79-.08,3.58-.49,5.34-.04.18-.16.39.2.48.94.24,1.08,1.07,1.21,1.84.17,1.07.36,2.12.69,3.27.35-.5.78-.77,1.33-.55.51.2.55.71.63,1.17.25,1.46.77,2.84,1.32,4.21.14.35.28.71.77.43.78-.44,1.23.11,1.63.61.95,1.18,1.65,2.52,2.44,3.8.36.58.69,1.17,1.09,1.73h0c1.19,1.69,1.99,3.55,2.37,5.6.12.65.1,1.29-.11,1.91-.11.33-.2.71-.69.68-.48-3.21-1.31-6.29-3.33-8.95-.97-1.28-1.77-2.68-2.7-4.1-.4.36-.35,1.19-1.07,1.03-.63-.14-.87-.72-1.11-1.23-.65-1.36-1.18-2.76-1.62-4.34-.72.93-1.06.42-1.44-.25-.73-1.27-.97-2.68-1.34-4.16-.3.37-.54.8-1.03.62-.47-.18-.6-.64-.59-1.06.03-1.6-.13-3.25.23-4.78.64-2.73.36-5.44.34-8.16,0-.22,0-.43-.01-.65Z"/>
      <path class="cls-9" d="M8.75,169.31c.13-.12-.17-.59.32-.41.12.05.25.17.31.29,1.23,2.2,3.53,2.28,5.59,2.66,2.6.48,5.17,1.09,7.72,1.79,1.87.51,3.73.46,5.64.29,2.74-.24,5.5-.54,8.26-.15.64.09,1.29.04,1.94.05,3.62,0,7.24.05,10.8.82.39.08.87.08.95.55.09.47-.31.78-.65,1.05-.25.19-.55.4-.85.45-3.44.52-6.89,1.48-10.36.15-.03-.01-.05-.05-.26-.27,3.78,1.14,7.18.15,10.61-.85-4.32-.72-8.67-.83-13.04-.79-2.44-.01-4.87-.16-7.3.19-2.13.3-4.21.12-6.21-.73-2-.85-4.17-.95-6.26-1.43-1.74-.39-3.41-1.1-5.24-1.11-.3,0-.71-.26-.87-.53-.4-.65-.9-1.25-1.11-2.01Z"/>
      <path class="cls-1" d="M34.87,179.38c.03,1.41,0,2.82.44,4.19.54.58,1.02,1.17.94,2.07-.05.49.31.69.82.79,1.52.28,1.58.52.63,1.76-.61.8-1.29,1.52-2.09,2.15-1.23.96-.98,2.12.51,2.71,1.39.55,2.78.17,4.13-.1,1.59-.32,3.16-.6,4.79-.48,1.92.14,3.52-.83,5.17-1.6.7-.33,1.35-.9,2.25-.63-1.96,1.77-4.08,3.21-6.25,4.55-2.73,1.69-5.74,2.73-9,2.85-.82.03-1.65-.04-2.48-.05-1.13-.02-2.12.33-2.88,1.21-.48.56-.97.77-1.78.62-.78-.15-1.63.09-2.45.14-.31.02-.65.07-.93-.17.4-.16.78-.43,1.19-.46,2.02-.18,3.73-1.13,5.48-2.03,1.04-.53,2.26-.37,3.39-.22,1.25.16,2.43.02,3.59-.36,2.48-.83,5.06-1.47,7.08-3.42-2.46.25-4.87.19-7.23.88-1.35.39-2.78.64-4.23.22-1.03-.3-1.64-.98-2.05-1.89-.34-.76-.04-1.36.5-1.93.81-.86,1.89-1.46,2.45-2.55-1.87-1.31-3.28-5.08-2-8.23Z"/>
      <path class="cls-9" d="M164.67,69.98c.2.85.8,1.41,1.47,1.87.41.28.56.43.05.71-1.53.11-1.93-1.21-2.53-2.14-1.17-1.85-1.12-1.91-3.23-1.36-1.62.42-3.3.76-4.24,2.4-.11.19-.33.3-.56.17-.23-.12-.24-.34-.18-.56.04-.14.09-.28.18-.39,1.56-2.06,3.12-4.13,5.83-4.77.45-.11.96-.19,1.38-.06,2.45.73,5.08.58,7.49,1.36,3.05.98,6.31,1.44,9.01,3.37.55.4,1.13.76,1.56,1.3,3,3.33,5.5,7.09,9,10.41-.5-.12-.66-.15-.82-.19-2.37-1.69-4.15-3.94-5.96-6.17-1.04-1.28-2.14-2.52-3.28-3.7-1.67-1.73-4.03-2.06-6.14-2.91-3.5-1.42-7.22-1.69-10.87-2.29-1.68-.28-3.12.28-3.92,1.52.61.08,1.14-.06,1.64-.27,1.52-.61,2.78-.17,3.76,1.32.1.15.24.27.36.4Z"/>
      <path class="cls-1" d="M98.32,107.34c-.67-.2-.92-.99-1.66-1.13-.59-.11-.92-.12-.68.65.4,1.26.61,2.57.68,3.89.03.53-.15,1.08-.77.79-1.21-.58-1.12.25-1.21.96.07.4-.02.78-.14,1.16-.41,1.19-1.54,1.57-2.57.83-.72-.53-1.3-1.23-1.99-1.79-1-.56-2.94-.28-3.73.66-.55.66-1.25.95-1.99,1.21-.88.3-1.65.12-2.07-.8-.34-.74-.78-1.15-1.68-.85-.54.18-1.03-.11-1.48-.46-1.11-.86-2.18-1.74-2.92-2.98-.24-.4-.72-.65-1.2-1.06-.09.92.37,1.67-.1,2.46-1.11-2.74-1.09-5.78-2.33-8.36-.45,1.16-.82,2.53-.87,3.97-.02.47,0,.95-.22,1.37-.21.41-.25-.12-.4-.11,0-2.87.37-5.63,2.16-8.01.15-.2.31-.4.47-.59.21-.24.43-.59.79-.37.33.19.22.6.14.88-.16.55-.33,1.11-.62,1.59-.49.78-.48,1.52-.16,2.35.26.66.48,1.35.59,2.05.2,1.25.29,2.49,1.9,2.8.39.07.58.52.76.87.62,1.15,1.7,1.82,2.69,2.58.26.2.52.22.81.13,1.03-.32,1.71.09,2.22.99.56.98,1.37,1.06,2.24.25,2.64-2.44,4.6-2.45,7.27-.04.78.7,1.1.62,1.35-.41.17-.66.36-1.3.62-1.93.16-.37.4-.7.78-.61.9.21.82-.32.8-.9-.01-.65-.05-1.29-.22-1.92-.16-.62-.46-1.42.26-1.74.66-.29,1.46,0,2.06.46.42.32.74.77,1.1,1.15-.23.2-.47.12-.71.02Z"/>
      <path class="cls-9" d="M149.18,151.4c-1.91-.55-3.78-1.2-5.74-.02-.87.52-1.9.86-2.96.86-.31,0-.77.12-.86-.25-.1-.45.42-.39.68-.48,1.31-.47,2.63-.9,4.28-1.46-2.42-.83-4.13-2.2-5.8-3.63-.16-.33.16-.13.23-.21.6-.24,1.05.12,1.51.41,3.72,2.3,7.78,3.58,12.09,4.15,1.44.19,2.86.17,4.3.16.45-.4,1.02-.34,1.52-.26,1.17.2,2.23.06,3.26-.57.38-.23.98-.57,1.3.2-.64.86-1.73,1.2-2.36,2.08.59.13,1.27-.1,1.78.38-.14.41-.57.34-.77.59-.94.24-1.98.14-2.77.88-.17.16-.41.11-.58-.06-.19-.19-.09-.39.03-.58.26-.41.52-.82.86-1.37-3.46,0-6.78.1-10.01-.83Z"/>
      <path class="cls-1" d="M212.24,125.92c.07-.64.55-.26.72-.19,2.34.95,4.7.49,7.09.23,6.26-.68,12.05.52,16.95,4.76,1.01.88,2.17,1.49,3.34,2.13,2.32,1.25,4.08,3.04,4.65,5.73.28,1.3.37,2.63.2,4.19,1.02-.91,1.47-1.86,1.58-2.97.11-1.18.14-2.37-.29-3.51-.12-.31-.23-.62.08-.89,1.69,2.65,1.23,6.16-1.06,8.19-.25.22-.5.44-.86.31-.37-.13-.24-.48-.26-.75-.13-1.67.09-3.38-.41-5.02-.58-1.91-1.76-3.33-3.53-4.23-1.87-.95-3.35-2.46-5.09-3.58-3.57-2.29-7.39-3.95-11.76-3.86-1.9.04-3.79.13-5.67.45-1.42.24-2.86.04-4.25-.38-.18-.05-.41-.43-.59,0-.43-.01-.77-.14-.85-.62Z"/>
      <path class="cls-1" d="M98.32,107.34l.71-.02c1.07.68,1.72,1.66,2.13,2.85.68,1.96,2.4,3.18,3.57,4.79.14.19.36.25.58.15.31-.13.12-.36.07-.54-.15-.67-.39-1.31-.76-1.88-1.03-1.57-1.6-3.33-2.19-5.09-.61-1.81-2.1-2.84-3.7-3.72-.53-.29-1.08-.54-1.62-.82-.87-.44-1.13-1.07-.56-1.92.37-.54.57-1.15.73-1.77.36-2.22.82-4.42.88-6.68.04-1.61-.26-3.2-.53-4.78-.06-.37-.29-.76.09-1.09,1.09,2.73,1.3,5.55.97,8.44-.17,1.53-.4,3.05-.74,4.55-.13.56-.27,1.13-.66,1.57-.48.55-.27.85.31,1.13,1.25.61,2.53,1.18,3.59,2.13,1.05.94,1.74,2.08,2.15,3.41.46,1.51.98,2.99,1.87,4.33.46.68.76,1.47.92,2.28.18.86.33,1.7,1.46,1.83.37.04.66.37.49.8-.17.44-.53.35-.91.27-1.91-.42-3-1.88-4.18-3.23-1.4-1.6-2.64-3.3-3.3-5.36-.23-.72-.93-1.08-1.39-1.62Z"/>
      <path class="cls-1" d="M212.24,125.92c.28.21.56.42.85.62,1.55.93,2.79,2.35,4.61,2.9.72.22,1.43.43,2.17.57.43.08.84.17,1.2.44.23.18.48.34.42.69-.07.39-.38.33-.66.38-4.36.76-8.38-.4-12.14-2.43-1.52-.82-2.61-2.32-3.8-3.61-.31-.34-.57-.8-.97-1-2.84-1.41-5.21-3.54-7.96-5.09-1.55-.87-3.23-1.34-4.87-1.96.73-.44,1.46-.37,2.26-.11,3.18,1.04,5.75,3.05,8.32,5.08.6.47,1.2.9,1.93,1.15.89.31,1.45,1.03,2.03,1.72.25.3.51.6.75.92,2.04,2.68,4.92,3.84,8.1,4.44,1.39.26,2.79.46,4.23.35-2.56-.56-4.47-2.21-6.46-3.74-.25-.19-.48-.45-.62-.73-.11-.22-.38-.54-.07-.78.23-.18.46.09.69.18Z"/>
      <path class="cls-1" d="M141.16,171.46c.06-.47.39-.49.72-.37,1.11.42,1.84-.14,2.52-.91.31-.35.47-.9,1.16-.73.65.16.93.56,1.12,1.16.25.8-.03,1.48-.34,2.17-.17.39-.37.77-.56,1.16.52.26.82-.15,1.09-.34.95-.63,2.12-.29,3.11-.88,1.81-1.07,2.3-2.11,1.93-4.17-.38-2.08-1.41-3.9-2.07-5.86-.67-2-1.64-3.91-2.09-5.98-.33-1.54-.2-3.07.73-4.44.09-.13.16-.39.36-.27.1.06.08.33.12.5-.99,3.8.77,7.05,2.1,10.38,1,2.49,1.56,5.05,1.33,7.75-.16,1.92-.99,3-2.88,3.33-1.05.18-1.97.64-2.96.91-.59.16-1.32.66-1.76-.05-.43-.69-.04-1.47.39-2.07.43-.61.76-1.2.72-1.96-.01-.22-.01-.47-.24-.56-.26-.11-.37.14-.5.3-.92,1.06-1.98,1.75-3.48,1.38-.28-.07-.44-.2-.52-.46Z"/>
      <path class="cls-1" d="M167.05,156.6c.46-.54.89-.1,1.21.13,2.86,2.03,6.14,2.65,9.54,2.86.72.04,1.46.16,2.04.58.57.41.94.26,1.43-.38-2.61.13-4.2-1.76-6.21-2.81-1.32-.69-2.79-.84-4.23-1.06-1.17-.17-2.35-.27-3.51-.48-.42-.07-.94-.15-1.19-.85,2.16.26,4.24.51,6.32.75,2.28.26,4.19,1.27,6.02,2.63,1.28.95,3,.84,4.53,1.16.85.18,1.67.4,2.43.81.14.08.36.23.25.4-.06.11-.32.1-.49.14-1.5.11-3,.24-4.5.47-1.32.21-2.75-.21-4.12-.44-1.05-.17-2.08-.53-3.13-.7-2.49-.38-4.55-1.57-6.39-3.22Z"/>
      <path class="cls-3" d="M71.15,110.6c0,.06.02.13.02.19.21.22.26.5.28.79-.07,1.79-.71,3.29-2.27,4.27-.65.41-.84.97-.72,1.66.3,1.66.67,3.3,1.58,4.77,1.8,2.94,3.65,5.85,5.32,8.86.32.58.84,1.14.35,1.87-.61.09-1.01-.22-1.38-.66-1.86-2.17-3.42-4.58-5.37-6.68-.17-.18-.35-.39-.42-.62-.69-2.26-2.26-4.06-3.28-6.14-.12-.24-.28-.5-.12-.8.4.12.48.5.64.81,1.04,2.02,2.45,3.81,3.38,5.94.59,1.33,1.95,2.35,2.73,3.68.15.25.37.34.64.18.37-.22.07-.4-.05-.6-1.05-1.74-2.13-3.47-3.15-5.23-.95-1.63-1.67-3.3-1.88-5.25-.16-1.51.46-2.47,1.52-3.16,1.09-.71,1.42-1.7,1.6-2.84.26-.31-.27-1.06.58-1.04Z"/>
      <path class="cls-1" d="M167.46,73.25c.32-.55.75-.5.65.1-.38,2.25,1.04,2.96,2.72,3.7,2.45,1.08,4.54,2.7,6.4,4.64.93.97,1.81,1.98,2.93,2.81-1.46-.57-2.97-.1-4.41-.36-1.38-.25-2.35-1.32-3.4-2.17-.71-.58-1.44-.69-2.44-.5.73.74,1.37,1.4,1.7,2.28.27.72-.03,1.14-.78,1.01-1.62-.28-3.1-1-4.64-1.56.45.04.9.08,1.35.12,1.12-.03,2.11.64,3.3.63-.31-.85-.73-1.51-1.46-1.97-.28-.18-.66-.41-.57-.84.08-.42.5-.3.79-.39,1.47-.45,2.7-.21,3.72,1.05.58.72,1.4,1.19,2.19,1.67.76.46,1.47.4,2.15-.21-2.49-2.41-5.03-4.75-8.33-5.95-1.85-.67-2.35-2.57-1.88-4.07Z"/>
      <path class="cls-9" d="M32.48,152.71c.94-.31,1.84.1,2.47.59,2.12,1.64,4.55,2.55,7,3.46.8.3,1.6.66,2.24,1.27.63.6.67,1.51,0,1.97-1.62,1.09-3.32,2.08-5.39,1.76-.86-.13-1.81-.27-2.17-1.3,2.2,1.16,4.52.77,6.27-1.01.44-.45.02-.54-.21-.68-1.21-.7-2.53-1.16-3.86-1.56-1.33-.4-2.51-1.08-3.47-2.07-.88-.91-1.9-1.62-2.86-2.42Z"/>
      <path class="cls-1" d="M204.01,76.69c1.18.5,2.4.92,3.53,1.52,1.08.57,2.2,1.07,3.25,1.72-1.07-.06-2.05-.25-3.06-.67-3.11-1.27-6.06-2.91-9.25-3.99-1.08-.36-2.2-.12-3.31-.27-2.16-.3-4.21-1.11-6.38-1.32-1.42-.14-2.84-.33-4.25-.51-.35-.04-.69-.16-1.13-.26,1.97-.53,3.37-.48,6.36.16,1.29.27,2.59.5,3.88.75,3.59.45,7.16.96,10.35,2.86Z"/>
      <path class="cls-11" d="M238.8,116.8c.26.42.75.1,1.09.31-.06.05-.11.13-.14.12-.61-.06-1.35.63-1.79-.1-.36-.6.26-1.14.61-1.59,1.95-2.5.35-4.63-.8-6.67-1.06-1.89-2.12-3.69-2.24-5.94-.12-2.22-1.32-3.98-2.99-5.38-.49-.42-.94-.89-1.45-1.27-.88-.67-1.13-1.52-.85-2.57.31.39-.07.94.31,1.31.97.86,1.91,1.78,2.93,2.58,1.8,1.4,2.62,3.28,2.89,5.47.23,1.89.95,3.58,2.05,5.11,1.02,1.42,1.45,3.09,2.04,4.69.24.63-.11,1.25-.45,1.82-.42.7-.8,1.41-1.2,2.12Z"/>
      <path class="cls-1" d="M230.76,92.62c-1.56,1.71-3.57,2.88-5.35,4.32-1.49,1.21-2.87,2.56-3.73,4.27-1.88,3.73-4.04,7.36-5.01,11.75-.33-1.38.42-2.38.32-3.47.68-2.42,1.93-4.6,2.91-6.89,1.55-3.63,4.34-6.16,7.51-8.34,1.08-.74,2-1.75,3.36-2.03,0,.13,0,.27,0,.4Z"/>
      <path class="cls-1" d="M185.82,115.58c-1.31-.69-2.84-.61-4.17-1.29-2.71-1.38-5.47-2.65-8.2-4-1.61-.8-3.22-1.54-4.97-1.99-.43-.11-1.06-.06-1.16-.75,1.63-.14,3.13.33,4.55,1.02,2.7,1.32,5.47,2.47,8.1,3.97,2.56,1.46,5.46,2.08,8.32,2.76.83.2,1.65.39,2.59.96-.51.08-.83.12-1.15.17-1.29-.34-2.64-.38-3.9-.86Z"/>
      <path class="cls-15" d="M33.35,158.33c-2.92,0-5.51,1.53-8.39,1.75-2.77.21-5.53.63-8.28,1.03-2.66.39-5.26.23-7.87-.41-.92-.23-1.94-.13-2.66.72-.23.27-.41.3-.44-.13.36-1.14,1.37-1.14,2.27-1.21,1.18-.1,2.36.15,3.51.38,2.28.47,4.5-.07,6.73-.33,2.95-.34,5.88-.82,8.86-.99,1.04-.06,2.07-.28,3.05-.64.71-.21,1.38-.65,2.18-.44.35.09.7.18,1.05.26Z"/>
      <path class="cls-1" d="M64.08,118.56c.13-.06.32-.46.36.04.11,1.58-.62,2.85-1.56,4.01-.35.43-.67.12-.8-.25-.24-.67-.43-1.36-.62-2.05-.26-.94-.57-1.7-1.77-1.85-.87-.11-1.43-1-2.25-1.4-1.44-.7-2.91-.81-4.41-.53-1.33.24-2.45-.02-3.31-1.03-.72-.84-1.89-1.22-2.31-2.35,1.15.3,2.01,1.03,2.81,1.86.69.72,1.44.94,2.49.81,2.41-.31,4.79-.21,6.75,1.56.05.05.12.11.18.11,2.26.15,2.59,1.88,2.96,3.59.02.1.1.18.19.32.91-.75,1.03-1.83,1.28-2.84Z"/>
      <path class="cls-3" d="M164.51,119.64c-.49,0-.78-.13-.24-.53.92-.68,1.88-1.33,3-1.65,4.37-1.25,8.83-2.03,13.38-2.16.59-.02,1.13.17,1.68.31.23.06.51.17.3.52-4.05-.15-8.03.39-11.94,1.35-2.12.52-4.19,1.24-6.18,2.16Z"/>
      <path class="cls-7" d="M225.4,85.5c-.08.64-.62.51-.91.41-1.87-.66-3.93-.8-5.61-2.05-.71-.53-1.28-1.11-1.66-1.92-.41-.87-.89-1.72-1.62-2.39-.65-.59-1.25-.64-1.73.24-.16.3-.4.56-.71.77.19-.52.38-1.04.57-1.56,1.15-1.48,3.48-1.13,4.3,1.02.09.23.2.46.21.69.04,2.07,1.56,2.74,3.14,3.34,1.33.5,2.68.96,4.02,1.44Z"/>
      <path class="cls-3" d="M45.68,112.94c.4.95-.34.68-.69.57-1.05-.34-1.73-1.11-2.1-2.15-.55-1.57-1.54-2.89-2.38-4.58-.74,2.83.74,5.19.92,7.95-.71-.63-.39-1.43-.98-1.76-.6-2.73-.97-5.47-.15-8.23.06-.2.14-.41.23-.6.21-.43.56-.97,1.02-.71.56.31.13.81-.18,1.13-.49.52-.37,1.05-.1,1.59.96,1.96,1.97,3.89,3.13,5.73.32.51.73.87,1.29,1.07Z"/>
      <path class="cls-15" d="M163.62,93.06c.14,0,.28,0,.42,0-.43,1-1.37,1-2.19.98-1.73-.05-3.28-.56-4.75-1.65-1.64-1.22-1.86-1.4-2.13.93-.08.74-.21,1.48-.22,2.23-.01.67-.19.77-.86.73.03-1.15.07-2.3.09-3.45.01-.59.15-1.14.41-1.66.35-.68.89-.88,1.62-.63.79.27,1.4.85,2.12,1.24,1.7.92,3.47,1.64,5.49,1.27Z"/>
      <path class="cls-2" d="M138.39,184.85c.96-1.19.56-2.47.24-3.74-.4-1.56-1.22-2.96-1.8-4.45.93.78,1.58,1.79,1.97,2.89.99,2.84,2.15,5.63,2.89,8.55.18.71.35,1.47-.13,2.16-.35-.17-.7-.34-1.05-.52.89-.95.84-1.31-.01-2.25-.71-.79-1.2-1.78-2.1-2.41,0-.08,0-.16,0-.24Z"/>
      <path class="cls-1" d="M245.66,128.48c-.14.23-.28.47-.48.8-.32-.98.03-1.77.29-2.55.4-1.17.35-2.12-.8-2.9-.7-.48-1.25-1.18-1.85-1.8-1.13-1.15-.78-2.57-.76-3.95.5.02.29.58.63.67.2,1.91,1.39,3.16,2.8,4.3,1.52,1.23,1.6,1.75.89,3.63-.23.6-.48,1.19-.72,1.79Z"/>
      <path class="cls-3" d="M142.44,89c-.13.13.29.52,0,.37-.93-.51-.89.26-1.03.69-.11.36-.05.78-.04,1.18.01.61,0,1.17-.84,1.21-.36.02-.5.37-.69.63-.7,1.01-1.63,1.59-2.91,1.51-.27-.02-.62-.14-.8.16-.2.35.14.58.29.84.36.65.94,1.06,1.47,1.55.69.62,1.58,1.22,1.14,2.4-.57-.78-1.2-1.47-2.03-2.02-.82-.54-1.28-1.44-1.63-2.33-.23-.57-.1-1.16.69-1.28.42-.06.85-.16,1.27-.16.8,0,1.36-.36,1.8-.97.32-.45.48-1.04,1.19-1.11.28-.02.29-.35.32-.61.04-.43.06-.87.19-1.27.25-.77.64-1.37,1.59-.8Z"/>
      <path class="cls-1" d="M7.88,166.94c.24.33.51.66.43,1.11-2.08-.73-4.17-1.42-6.22-2.21-1.75-.67-2.31-1.9-2.01-3.79.12-.74.08-1.5.3-2.22.18.73.41,1.43.4,2.2-.03,1.66.81,2.69,2.41,3.15,1.61.46,3.2.99,4.7,1.75Z"/>
      <path class="cls-8" d="M108.77,4.25c.73-.72,1.59-.42,2.4-.26,1.48.3,2.71,1.22,4.15,1.69-1.08-1.1-1.97-2.33-2.93-3.5-.11-.14-.42-.24-.16-.5,1.95,1.23,3.5,2.84,4.63,4.85.11.2.19.42.04.6-.26.3-.46-.03-.62-.15-1.58-1.14-3.48-1.59-5.18-2.47-.73-.38-1.55-.19-2.32-.27Z"/>
      <path class="cls-15" d="M240.06,127c1.74.87,3.5,1.69,4.98,3,.18.47.57.87.55,1.43-.34.09-.46-.29-.74-.31-1.01-1.27-2.5-1.85-3.87-2.6-.79-.43-1.6-.79-2.04-1.65.43-.28.76.11,1.13.13Z"/>
      <path class="cls-11" d="M229.52,88.12c-.88.04-1.53-.47-2.2-.91-.12-.08-.38-.16-.14-.36.09-.08.27-.04.41-.06.55.29,1.1,0,1.64-.03,1.4-.06,2.06.47,1.99,1.79-.04.71-.15,1.42-.23,2.13-.22.14-.09.5-.46.63-.31-.78-.15-1.6-.14-2.38,0-.67-.2-.94-.86-.8Z"/>
      <path class="cls-15" d="M130.36,90.72c-.32-.44-.69-.16-1.05-.08-1.39.29-3.4-.72-3.91-1.96-.18-.42-.35-.85.41-.79,1.05,1.34,2.32,2.09,4.12,1.96.78-.06,1.73.08,2.22.87h-1.79Z"/>
      <path class="cls-7" d="M104.87,8.61c-.23-.84.72-.8,1.01-1.35-.86-.38-2.25-.35-1.81-1.88.19-.64,2.02-.91,2.73-.49-.62.42-1.45.34-2.1.85.4.51,1,.56,1.51.76.3.12.65.23.73.58.09.43-.34.49-.59.65-.48.3-.98.58-1.47.87Z"/>
      <path class="cls-8" d="M162.37,154.2c.36-.21.09-.7.5-.98.2.71.13,1.38,0,2.05-.04.2-.15.43.09.56.19.11.31-.11.45-.19.48-.28.95-.68,1.51-.14-.44.85-1.34,1.16-2.05,1.66-.45.32-.82-.04-.77-.61.07-.78.17-1.56.25-2.34Z"/>
      <path class="cls-8" d="M121.93,141.89c.12-.14-.2-.74.38-.38.69.42,1.79,3.64,1.56,4.48-1.07-1.17-1.53-2.62-1.94-4.1Z"/>
      <path class="cls-12" d="M152.19,95.85c-.03.12,0,.31-.2.28-.08-.01-.17-.13-.22-.22-.96-1.94-2.77-3.01-4.4-4.26-.3-.23-.22-.28.08-.34,1.44.9,2.89,1.79,4,3.14.36.43.52.91.74,1.39Z"/>
      <path class="cls-13" d="M135.81,97.76c-.14.2-.3.16-.41-.01-.87-1.43-1.16-3.08-1.75-4.62-.03-.07.14-.22.22-.33.79,1.14,1.13,2.45,1.52,3.75.12.41.28.81.43,1.21Z"/>
      <path class="cls-6" d="M37.5,146.85c.26.17.52.35.9.6-1.38.9-2.55.34-3.73-.16.49.03,1.03-.05,1.47.11.68.24.97-.2,1.36-.55Z"/>
      <path class="cls-4" d="M32.3,158.07c-.73.12-1.42.45-2.18.44.66-.49,1.34-.82,2.18-.44Z"/>
      <path class="cls-2" d="M71.15,110.6c-.54.15-.27.76-.58,1.04-.01-.49-.21-.98-.03-1.47.16-.44.28.05.42.01.06.14.13.28.19.42Z"/>
      <path class="cls-2" d="M42.89,133.03c.23-.57.57-1.06.93-1.56.38-.52.73-1.28-.09-1.65-1.59-.71-1.38-2.01-1.2-3.28.06-.45.07-.86-.1-1.25-.9-2.2-1.06-4.42-.26-6.69.1-.29.08-.62.14-1.25,1.86,4.52,5.42,7.14,8.91,9.84-.13-.28-.26-.56-.38-.84,1.38,1.07,2.7,2.23,4.15,3.2,2.85,1.9,5.77,3.71,8.66,5.54.85.54,1.69,1.08,2.41,1.79,1.11,1.09,2.51,1.63,3.91,2.18.77.31,1.51.66,2.07,1.29-.7.36-1.22-.19-1.8-.39-3.78-1.29-7.02-3.59-10.41-5.61-1.17-.7-2.3-1.46-3.54-2.04,2.48,1.33,4.73,3.03,7.12,4.49,3.55,2.17,7.43,3.59,11.21,5.26,4.6,2.04,9.41,3.56,13.88,5.9.37.19.74.4,1.04.54-.5-.5-1.46-.55-1.75-1.44,1.59.45,3.2.87,3.76,2.73.37,1.25-.3,1.95-1.63,1.67-1.47-.31-2.92-.69-4.4-.94-2-.34-4.03-.56-6-1.12-3.05-.87-5.92-2.2-8.79-3.48-4.59-2.04-9.07-4.33-13.62-6.44-4.29-1.98-8.3-4.54-12.8-6.07-.47-.16-.92-.41-1.44-.39Z"/>
      <path class="cls-14" d="M136.88,117.23s.07.04.08.07c1.61,3.18,4.14,5.72,6.07,8.67,2.14,3.26,5.1,5.45,8.28,7.47.03.78.18,1.84-.41,2.21-.68.42-1.51-.35-2.21-.72-.39-.21-.86-.38-1.06-.85-.02-.9.28-1.14.99-.81.39.18.64.55,1.04.8-.11-.42-.33-.73-.58-1.01-.69-.77-1.28-.72-1.89.13-.16.22-.23.55-.61.49-5.36-2.4-9.03-6.54-11.96-11.51-1.23-2.09-2.77-4.01-4.17-6-.14-.21-.32-.39-.42-.62-1.46-3.22-4.2-5.53-5.98-8.49-2.18-3.62-5.49-6.34-7.58-10-.32-.55-.93-.78-1.36-1.21-1.44-1.45-2.94-2.84-4.04-4.6-.36-.57-.87-1.05-1.45-1.43-.14-.8-.29-1.59-.68-2.32-.15-.28-.24-.6.02-.89,1.38.76,2.45,1.9,3.37,3.11,1.4,1.87,3.02,3.49,4.85,4.92,1.33,1.04,2.5,2.24,3.47,3.62.18,1.12.96,1.96,1.9,2.11,1.13.18,1.17.64.99,1.47-.02.1,0,.21.02.34.29-.17.23-.62.58-.71,1.87,1.35,3.35,3.08,4.77,4.86.18.22.27.53.49.7,2.53,2.04,3.56,5.05,5.14,7.71.51.86,1.1,1.67,1.84,2.36.14.13.27.39.51.12Z"/>
      <path class="cls-2" d="M75.7,133.02c.08-.49-.1-.91-.34-1.32-1.82-3.04-3.61-6.09-5.46-9.1-1.07-1.75-1.59-3.64-1.75-5.66-.05-.57.19-.94.69-1.21,1.61-.87,2.25-2.31,2.34-4.06.72-.29.56.37.6.64.21,1.49.64,2.93.98,4.39,1.09,4.58,3.56,8.48,6.01,12.45-.14-.37-.57-.62-.27-1.06.9.75,1.3,1.86,1.96,2.79,1.37,1.93,2.83,3.77,4.8,5.14.67.47.86,1.29,1.33,1.87.92,1.14,2.01,2.17,3.14,3.1,1.46,1.2,2.81,2.55,4.46,3.53.43.25.77.67.83,1.21.04.38.54.74.05,1.16-.49.42-.97.44-1.59.23-1.77-.6-3.16-1.75-4.64-2.84-3.43-2.55-6.75-5.22-9.78-8.24-.91-.9-1.77-1.86-2.63-2.81-.22-.24-.42-.37-.74-.21Z"/>
      <path class="cls-2" d="M89.98,112.7c.7.1,1.11.61,1.57,1.06,1.42,1.4,2.3,1.2,2.89-.68.06-.2.16-.39.24-.58.08.07.19.12.23.21,2.04,4.23,5.06,8.01,5.68,12.89.19,1.47.98,2.84,1.04,4.36.02.45.89.1.61.74.07,3.05.86,5.96,1.8,8.82,1.14,3.5,1.78,7.11,2.63,10.67.08.34.05.73.35.99-.99,1.02-2.32.91-3.16-.32-.73-1.05-1.04-2.34-1.81-3.38-.84-1.87-2.21-3.3-3.73-4.62-.44-.38-1.05-.66-1.02-1.39,0-.57-.1-1.21.6-1.46.72-.25,1.1.21,1.47.76.39.59.9,1.1,1.53,1.84.21-1.88-.04-3.49-.77-4.93-1.91-3.74-3.01-7.68-3.53-11.84-.33-2.66-2.04-4.85-3.09-7.28-.92-2.12-2.33-3.92-3.54-5.85Z"/>
      <path class="cls-2" d="M136.83,176.66c-1.02-.85-1.44-2.12-2.2-3.15-.57-.78-1.14-1.56-1.68-2.36-.38-.56-.83-.69-1.37-.28-.38.29-.58.26-.77-.2-.62-1.53-1.22-3.06-1.52-4.69-.07-.4.06-.88-.49-1.05-.66-.2-.87.28-1.09.91-.75-1.17-.85-2.36-1.01-3.53-.07-.54-.23-1-.49-1.49-.34-.65-.6-.51-1.08.08.13-1.79.53-3.32.57-4.9.12-4.52.85-9.05-.32-13.54-.22-.83-.45-1.66-1.07-2.31.79-1.1,2.3-.95,3.18.34.95,1.39,1.32,3.02,1.54,4.64.33,2.37.6,4.76.46,7.17-.14,2.42-.66,4.81-.66,7.25,0,1.26.06,2.51.26,3.75.16,1.05.67,1.98,1.38,2.75,1.52,1.64,2.86,3.36,3.64,5.51.65,1.82,2.02,3.29,2.72,5.1Z"/>
      <path class="cls-2" d="M162.99,150.31c-.55-.52-1.03-.08-1.45.18-.85.53-1.67.84-2.71.51-.59-.19-1.28-.06-1.93-.07-1.12-1.24-2.5-2.22-3.39-3.68-1.03-1.7-1.77-3.52-2.16-5.45-.28-1.38.28-2.63,1.16-3.66.51-.6,1.31-.43,2.02-.22.19.06.34.34.55.14.19-.18,0-.4-.02-.6-.05-.53-.06-1.07-.08-1.61,1.31.86,2.09,2.32,3.53,3.05.2.1.18.59.3.88.44,1.04,1.38,1.63,2.21,2.29.45.35.84.73,1.34,1.29-1.7.04-3.19.13-4.67-.18-.57-.12-.82-.54-1.1-.95-.47-.7-1.12-1.53-1.89-1.29-.75.23-.39,1.3-.32,1.96.23,2.13,1.39,3.67,3.4,4.47,1.2.48,2.37.97,3.41,1.78.49.38,1.13.87,1.85.29.48.31.24.59-.03.88Z"/>
      <path class="cls-1" d="M96.66,161.1c.7.09,1.29-.61,2.12-.27-6.66,3.21-13.51,5.49-20.69,6.76-3.8.67-7.61,1.26-11.41,1.9-.71.12-1.45.16-2.14.16-2.98,0-5.94.56-8.92.16-1.43-.19-2.86.08-4.3.12-2.48.08-4.97-.06-7.45.04-5.46.22-10.91.57-16.37.4-3.98-.13-7.83-1.04-11.92-2.29,2.15-.21,3.89.52,5.69.57,1.77.46,3.58.73,5.4.86,6.47.46,12.92-.28,19.38-.38,4.17-.07,8.35-.08,12.53-.04,4.73.05,9.38-.59,14.02-1.39,3.7-.64,7.45-1.1,11.07-2.1,4.42-1.23,8.88-2.39,12.99-4.51Z"/>
      <path class="cls-2" d="M98.4,80.31c-1.47-.87-3.16-1.49-4.25-2.86-1.52-1.92-3.15-3.7-5.24-5.02-.31-.2-.52-.59-.73-.92-1.52-2.41-3.78-4.21-5.32-6.6-.77-1.19-1.32-2.47-1.51-3.88-.05-.36-.23-.92.17-1.08.44-.18.74.26.98.65.66,1.07,1.37,2.1,1.99,3.19.56.98,1.22,1.86,2.05,2.61,1.15,1.05,2.07,2.28,2.92,3.57.38.58.8,1.09,1.38,1.48.54,1.51,1.4,2.68,2.97,3.29,1.21.48,1.76,1.73,2.63,2.62.21.22.37.59.7.13,1.52.38,2.61,1.44,3.78,2.37,1.93,1.54,4.09,2.77,5.81,4.57.51.53.8,1.29,1.62,1.48-.71.39-1.29,1.05-2.17,1.1-.29-.44-.58-.89-.88-1.33-.74-.21-1.3-.66-1.52-1.39-.81-2.66-3.14-3.25-5.37-3.99Z"/>
      <path class="cls-1" d="M97.31,141.46c1.23,1.35,2.71,2.44,3.82,3.91.49.64.96,1.25.93,2.1-2.19-2.27-4.49-4.41-6.88-6.47-2.56-2.21-5-4.53-7.27-7.05-2.42-2.69-4.36-5.7-6.04-8.88-1.68-3.18-3.54-6.24-5.28-9.38-.25-.46-.47-.94-.65-1.43,3,4.38,5.51,9.04,8.35,13.5,2.76,4.32,6.48,7.76,10.15,11.25.91.86,1.91,1.63,2.87,2.44Z"/>
      <path class="cls-9" d="M196.25,91.76c-.31-1.27-1.3-2.21-1.72-3.63,1.72,1.36,2.78,3.05,3.85,4.71,2.01,3.15,3.68,6.46,5.18,9.9,1,2.31,2.6,4.37,4,6.49.99,1.5,1.7,3.15,2.57,4.72.28.5.16,1.05.16,1.59-.66-.58-1.15-1.29-1.55-2.05-1.54-2.97-3.38-5.76-5.28-8.51-.55-.81-1-1.67-1.33-2.58-1.42-3.84-3.64-7.24-5.87-10.63Z"/>
      <path class="cls-9" d="M212.45,115.1c1.12-2.01,1.55-4.22,1.69-6.46.27-4.2,1.03-8.26,3.44-11.79,1.78-2.61,4.37-4.39,6.93-6.16.55-.38,1.13-.72,1.86-1.18-.26.81-.94,1.04-1.21,1.59-4.44,3.17-8.21,6.84-9.35,12.49-.32,1.58-.32,3.2-.55,4.79-.42,2.91-.84,5.83-3.15,8.13-.19-.6.3-.96.33-1.42Z"/>
      <path class="cls-1" d="M87.8,147.07c.81.61,1.77,1.02,2.45,1.82-1.76-.44-3.26-1.45-4.9-2.12-4.78-1.96-9.52-4.02-14.31-5.93-4.4-1.76-8.46-4.08-12.33-6.78-1.05-.73-2.29-1.19-3.4-2.35,1.77.56,3.07,1.41,4.38,2.23,3.8,2.38,7.58,4.8,11.86,6.28.17.06.34.09.51.14,3.04,1.42,6.12,2.76,9.27,3.92,2.21.82,4.37,1.75,6.48,2.8Z"/>
      <path class="cls-1" d="M185.87,103.62c-2.66-2.26-4.97-4.87-7.31-7.43-2.35-2.56-5.24-4.13-8.34-5.56-2.43-1.12-5-1.69-7.5-2.53-.37-.12-.72-.3-1.04-.58,1.21.28,2.39.66,3.61.86,1.67.27,3.2.97,4.81,1.43.93.38,1.83.83,2.79,1.14,1.69.54,3.09,1.54,4.35,2.72,3.4,3.2,6.46,6.73,9.7,10.1.07.07.11.18.22.37-.55-.02-.88-.37-1.28-.52Z"/>
      <path class="cls-9" d="M81.11,140.12c-8.73-3.23-17.39-6.66-24.53-12.94,2.1.97,4.14,2.06,6.06,3.35,3.83,2.59,7.94,4.61,12.27,6.2,1.79.66,3.53,1.42,5.15,2.46.43.28.82.58,1.06.93Z"/>
      <path class="cls-1" d="M93.05,159.26c-9.51,5.74-19.95,6.87-30.75,6.11,5.27.02,10.5-.5,15.7-1.26,5.27-.77,10.01-3.31,15.05-4.85Z"/>
      <path class="cls-1" d="M141.35,117.17c1.88-1.78,3.43-3.67,5.1-5.42,2.5-2.62,4.98-5.28,7.43-7.94,1.31-1.42,2.9-2.43,4.65-3.4.06.54-.32.73-.58.96-4.45,3.88-8.2,8.44-12.27,12.69-.94.98-1.82,2.04-2.96,2.81-.35.24-.69.53-1.37.32Z"/>
      <path class="cls-1" d="M95.02,171.66c-1.28,3.14-20.04,16.49-24.49,17.44,4.14-3.04,8.71-5.12,12.69-8.13,3.96-3,7.86-6.07,11.8-9.31Z"/>
      <path class="cls-9" d="M107.03,151.17c-.4,0-.57-.23-.63-.59-.86-5.49-2.71-10.72-4-16.1-.3-1.23-.62-2.5-.15-3.78,1.46,5.16,3.12,10.26,4.2,15.52.33,1.62,1.02,3.23.58,4.95Z"/>
      <path class="cls-1" d="M34.98,201.58c13.06-1.09,11.81.04,22.79-4.73-.32.62-.71.97-1.22,1.24-4.45,2.33-9.13,3.7-14.19,3.89-1.91.07-3.79.05-5.69-.04-.55-.03-1.04-.18-1.69-.36Z"/>
      <path class="cls-1" d="M193.88,95.41c-2.29-1.71-3.66-4.06-4.8-6.62-1.15-2.58-2.22-5.26-4.42-7.17-1.75-1.52-3.72-2.79-5.7-4.02-.31-.19-.66-.32-.66-.76,1.03.19,1.76.94,2.62,1.45,4.25,2.5,7.36,6.01,9.35,10.53.9,2.05,2.25,3.84,3.43,5.73.14.23.65.47.17.85Z"/>
      <path class="cls-1" d="M216.74,116.4c.93,1.24.55,2.52-1.22,4.02,1.42,1.04,2.98,1.62,4.7,1.33,2.25-.38,4.43-.15,6.57.5,2.16.65,4.38,1,6.57,1.49.73.16,1.43.44,1.94,1.05-3.47-.63-6.92-1.38-10.35-2.17-1.77-.4-3.58-.21-5.36-.13-1.56.06-2.89-.43-4.17-1.17-.94-.55-.95-1.06-.06-1.73,1.07-.8,1.51-1.87,1.38-3.19Z"/>
      <path class="cls-1" d="M164.9,107.98c-.08,2.04-1.48,3.36-2.71,4.73-1.75,1.96-4,3.34-5.96,5.07-1.02.9-2.19,1.63-2.98,2.76-.31.44-.43.11-.62-.06.81-1.58,2.26-2.53,3.57-3.61,1.68-1.39,3.39-2.74,5.01-4.19,1.28-1.15,2.29-2.54,2.92-4.17.27-.69.35-.7.76-.52Z"/>
      <path class="cls-10" d="M44.15,167.32c-1.7,0-3.41.1-5.11-.02-2.35-.17-4.69-.52-7.03-.79-3.09-.35-6.17-.78-9.26-1.03-3.21-.26-6.42-.7-9.66-.55,1.25-.6,2.57-.37,3.87-.31,1.43.06,2.85.27,4.27.36,3.75.24,7.47.73,11.19,1.21,2.41.31,4.83.53,7.25.73,1.49.12,2.98.35,4.49.4Z"/>
      <path class="cls-2" d="M148.49,130.22c-.55-.11-.81-.65-1.28-.87-.18-.58.52-.92.42-1.47,1.21-.87,1.92-2.1,2.41-3.47.19-.55.43-.68.89-.28.51.44,1.03.87,1.58,1.33-1.55,1.17-2.77,2.59-4.14,3.94.41.33.71-.14,1.03-.03.07.67-.48.7-.9.86Z"/>
      <path class="cls-3" d="M106.95,123.87c.03-.37.33-.55.59-.67,2.37-1.08,4.77-1.92,7.47-1.59,3.41.42,6.84.82,10.28.21.38-.07.78,0,1.39,0-1.14.63-2.17.8-3.24.84-2.95.13-5.89-.12-8.82-.44-2.46-.27-4.67.53-6.86,1.46-.25.1-.47.37-.81.2Z"/>
      <path class="cls-5" d="M78.5,128.07c.06.67.7,1.07.84,1.89-.92-.84-1.52-1.76-2.03-2.69-1.49-2.69-3.26-5.23-4.09-8.26-.61-2.24-1.41-4.42-1.6-6.76-.02-.3-.01-.59-.43-.61,0-.29,0-.58-.01-.87.81.18.72.96.81,1.47.58,3.14,1.51,6.17,2.74,9.1.99,2.37,2.45,4.52,3.78,6.71Z"/>
      <path class="cls-8" d="M163.1,99.63c6.45.17,12.13,2.99,17.99,5.2-6.07-1.48-11.7-4.47-17.99-5.2Z"/>
      <path class="cls-1" d="M97.13,77.49c.04.26.36.59.03.77-.3.17-.51-.19-.67-.4-1.16-1.51-2.4-2.85-4.21-3.7-.9-.42-1.51-1.51-1.45-2.71,1.44,1.36,3.13,2.41,4.6,3.71.7.62,1.14,1.54,1.7,2.33Z"/>
      <path class="cls-1" d="M198.85,109.24c-.18-.38.05-.42.34-.4.38.03.77.07,1.23.11-.22-.95-.98-1.61-1.36-2.46-.25-.55-.49-1.11-.73-1.67-.13-.29-.09-.49.28-.5,1.45,1.51,2.27,3.45,3.44,5.15.14.2.27.44.04.68-.26.26-.61.25-.91.18-.84-.21-1.58-.65-2.32-1.08Z"/>
      <path class="cls-15" d="M98.4,80.31c.09-.06.2-.19.25-.17,1.7.7,3.75.82,4.71,2.78.5,1.02.88,2.12,1.92,2.77-.96.38-1.53.02-1.91-.9-.23-.56-.58-1.07-.88-1.59-.3-.51-.7-.8-1.31-.99-1.09-.34-2.09-.93-2.79-1.89Z"/>
      <path class="cls-15" d="M52.57,122.88c-1.23-.82-6.01-7.73-6.17-8.73,2.71,2.46,4.45,5.58,6.17,8.73Z"/>
      <path class="cls-3" d="M137.46,139.08c1.2,1.23,1.06,6.31-.15,7.99-.19-2.73.41-5.25.15-7.99Z"/>
      <path class="cls-15" d="M124.13,101.47c-.07.24-.14.48-.23.71-.09.24.12.69-.29.69-.44,0-.38-.44-.37-.75.01-.32.08-.63.14-.94.05-.27.07-.59-.3-.51-1.51.33-1.83-1.03-2.57-1.79-.16-.17-.89-.62.12-.64.43.54.92,1.01,1.47,1.41.27.2.51.3.88.22,1.36-.3,1.46-.17,1.15,1.17-.03.14-.01.28-.02.43Z"/>
      <path class="cls-1" d="M106.17,87.01c.73-.36,1.22-1.18,2.17-1.1.2.23.41.46.61.69.02.74.55,1.3.73,1.99.12.44.17.83-.07,1.22-.87-.32-.77-1.25-1.17-1.87-.26-.4-.32-1.02-1.09-.52-.34.22-.91.09-1.18-.41Z"/>
      <path class="cls-1" d="M137.71,153.56c-.02.59-.4,1.01-.65,1.5-.18.09-.37.18-.63.31.3-1.91.77-3.7.63-5.57-.01-.19.13-.39.2-.59.9,1.37.78,2.85.45,4.35Z"/>
      <path class="cls-15" d="M146.58,133.67c1.29-2.05,2.07-2.02,3.32.15.14.24.4.43.22.86-.61-.08-.87-.64-1.27-.98-.63-.53-1.06-.56-1.21.38-.34.14-.61.52-1.03.32-.38-.19.01-.48-.03-.73Z"/>
      <path class="cls-11" d="M10.7,164.41c-2.23-.07-4.14-1.1-6.13-1.87,2.2.12,4.22.83,6.13,1.87Z"/>
      <path class="cls-2" d="M140.51,146.62c-.5-.14-1.01-.27-1.51-.41.77-.86,1.09-.01,1.51.41Z"/>
      <path class="cls-9" d="M174.2,148.83c-.03.4-.21.74-.81.55-1.34-.44-2.15-1.51-2.99-2.54-.24-.29-.1-.71.36-.83,1.13-.32,3.45,1.51,3.44,2.82Z"/>
      <path class="cls-1" d="M187.32,157.67c.04.22-.02.42-.22.55-.22.14-.45.1-.58-.09-.3-.45-.75-.6-1.2-.82-.54-.27-1.11-.8-.77-1.44.38-.72,1.03-.24,1.5.02.68.38,1.18.94,1.27,1.77Z"/>
      <path class="cls-4" d="M167.51,128.27c-.22-.36-.44-.71-.66-1.07.36-.52-.19-.68-.4-.93-.92-1.05-1.93-2.03-2.72-3.19-.22-.32-.35-.69-.58-1.15.97.3,1.54.96,2.13,1.52,1,.95,2.07,1.76,3.31,2.37,2.4,1.18,3.84,3.08,4,5.8.11,1.82.38,3.61,1.02,5.36-.5.05-.72-.21-.91-.44-.7-.92-1.65-1.47-2.67-1.93-.65-.3-.97-.69-.84-1.5.29-1.76.05-3.44-1.2-4.83-.13-.14-.33-.69-.49,0Z"/>
      <path class="cls-2" d="M115.55,153.73c-.3-3.12-1.08-6.1-2.09-9.07-1.14-3.34-1.97-6.8-2.87-10.22-.25-.94.21-1.67,1.07-2.12,2.42-1.27,4.94-1.67,7.69-1.34,2.64.32,5.17.94,7.86,1.78-.97.49-1.78.92-2.6,1.3-3.72,1.76-6.04,4.64-6.86,8.67-.19.94-.34,1.92-.31,2.87.08,2.87-.9,5.48-1.88,8.12Z"/>
      <path class="cls-1" d="M135.16,120.05c.72.17,1.5.31,2.24.56.43.14.65.59.71,1.02.16,1.27.28,2.55.41,3.83.01.12-.05.3-.14.36-.16.11-.36.04-.47-.11-.25-.36-.43-.77-.39-1.2.05-.73-.19-1.42-.23-2.13-.02-.52-.23-.77-.78-.81-.66-.05-1.22-.38-1.69-.86-.11-.12-.25-.31-.23-.44.05-.29.34-.16.58-.21Z"/>
      <path class="cls-1" d="M128.19,108.02c-.02.31-.03.49-.25.55-.25.06-.42-.08-.56-.25-.66-.8-1.3-1.62-1.95-2.43-.13-.17-.25-.35-.38-.52-.21-.27-.68-.53-.42-.89.3-.41.81-.06,1.06.12,1.21.89,2.01,2.11,2.51,3.41Z"/>
      <path class="cls-1" d="M140.52,127.66c0-.58-.01-.9.31-1.03.34-.13.56.15.69.38.58,1.06,1.03,2.17,1.38,3.33.06.19.06.45-.13.59-.07.05-.3,0-.37-.08-.9-1.01-1.05-2.43-1.87-3.19Z"/>
    </g>
  </g>
</svg>