<?xml version="1.0" encoding="UTF-8"?>
<svg id="Calque_2" data-name="Calque 2" xmlns="http://www.w3.org/2000/svg" viewBox="0 0 213.19 177.72">
  <defs>
    <style>
      .cls-1 {
        fill: #020202;
      }

      .cls-1, .cls-2, .cls-3, .cls-4, .cls-5, .cls-6, .cls-7, .cls-8, .cls-9, .cls-10, .cls-11, .cls-12, .cls-13, .cls-14, .cls-15 {
        stroke-width: 0px;
      }

      .cls-2 {
        fill: #343434;
      }

      .cls-3 {
        fill: #040404;
      }

      .cls-4 {
        fill: #545454;
      }

      .cls-5 {
        fill: #000;
      }

      .cls-6 {
        fill: #050505;
      }

      .cls-7 {
        fill: #0b0b0b;
      }

      .cls-8 {
        fill: #080808;
      }

      .cls-9 {
        fill: #070707;
      }

      .cls-10 {
        fill: #010101;
      }

      .cls-11 {
        fill: #060606;
      }

      .cls-12 {
        fill: #323232;
      }

      .cls-13 {
        fill: #050304;
      }

      .cls-14 {
        fill: #a50810;
      }

      .cls-15 {
        fill: #030303;
      }
    </style>
  </defs>
  <g id="OBJECTS">
    <g>
      <path class="cls-2" d="M212.74,33.49c.59,2.09.6,4.18,0,6.27-.56.85-.62,1.87-.93,2.81-1.21,3.63-2.91,7.04-4.62,10.44-1.8,3.6-3.73,7.14-5.23,10.89-.77,1.93-1.93,3.61-3.22,5.21-1.97,2.43-3.94,4.88-6.28,6.96-1.45,1.29-2.68,2.81-4.23,3.98-.39.29-.8.61-.08,1.03.47.27.28.67.14,1.05-.32.87-1.02,1.47-1.54,2.2-.22.31-.61.52-.63,1.09,1.13-.18,2.15-.66,3.23-.84.51-.09,1.2-.55,1.5-.05.31.51-.37.96-.77,1.27-2.41,1.87-4.8,3.75-7.09,5.75-1.35,1.18-3.24,1.41-4.98,1.57-1.85.16-3.73.16-5.6-.09-1.9-.26-3.8.12-5.7.23-4.4.26-8.63,1.49-12.89,2.53-2.95.72-5.63,2.16-8.37,3.44-.76.36-1.49.43-2.3.25-1.25-.28-2.5-.59-3.81-.83.58,1.07,1.53,1.67,2.59,2.16.53.24,1.22.24,1.5.91-1.07.25-2.02.85-3.12,1.01-.46-.26-.82.04-1.21.2-1.66.68-3.02,1.79-4.32,2.99-1.14,1.05-1.54.97-2.15-.48-.35-.83-.66-1.66-.8-2.56-.26-1.57-.71-1.89-2.33-1.91-.84-.01-1.64.15-2.45.32-1.4.31-2.82.36-4.31.34.19.82.78.97,1.31,1.1,1.56.37,3.06,1.05,4.73.78.46-.07.73.22.83.67.34,1.4.85,2.74,1.13,4.15-.3.77-.94,1.23-1.56,1.71-.5-.06-.76.32-1.1.58-1.8,1.39-2.69,3.42-3.73,5.33-.68,1.25-1.95,1.49-3.09,1.95-.48.2-.72-.29-.88-.73-.41-1.16-.46-1.17-1.31-.22-.1.11.04-.02-.07.08-.25.24-.51.68-.87.43-.36-.25-.06-.67.1-.97.73-1.37,1.66-2.61,2.59-3.84,1.3-1.72,2.73-3.34,3.71-5.02-2.17,2.23-4.37,4.72-6.05,7.63-.53.91-.88,1.85-1.04,2.92-.2,1.36-.97,2.54-1.64,3.71-.4.7-1.25.78-2.04.52-1.05-.21-1.05.74-1.35,1.28-.37.69-.65,1.39-1.65,1.06-.46-.76-1.29-1.12-1.91-1.72-2.02-1.97-3.6-4.3-5.27-6.54-.74-.99-1.51-1.97-2.49-2.68-1.62-1.17-2.76-2.8-4.01-3.8.35.33.91.97,1.57,1.52.33.27.65.59.36,1.09-.32.12-.57-.03-.77-.23-2.06-2.08-3.89-4.3-4.49-7.27-.09-.45-.2-.92.03-1.37.25-.73,0-1.45-.06-2.17-.04-.48-.25-.99.21-1.39.14.24.34.31.6.24.54.13.98-.16,1.42-.37,4.37-2.11,8.54-4.6,12.78-6.95,1.87-1.03,3.49-2.36,4.57-4.3,1.08-1.95,2.58-3.63,3.66-5.58.36-.64.92-1.44.44-2.1-.45-.62-1.28-.07-1.93,0-1.18.14-2.33.43-3.33,1.15-.22.16-.5.41-.77.17-.28-.25-.15-.61,0-.9.66-1.23,1.42-2.41,2.85-2.78,2.38-.6,4.07-2.22,5.84-3.74.67-.58,1.35-1.11,2.21-1.28,1.75-.35,3.41-.94,4.93-1.82,1.49-.86,3.15-.59,4.72-.9.48-.09,1.09.04,1.29-.56.18-.55-.21-.95-.54-1.33-.35-.42-.75-.84-.37-1.43.36-.57.95-.65,1.53-.53.95.18,1.84.59,2.82.71,1.69.21,3.06-.63,4.47-1.32.38-.18.24-.51-.1-.63-1.51-.57-2.94-1.41-4.6-1.46-2.01-.07-4.03-.1-6.02.3-.82.17-1.65.14-2.47.08-1.15-.09-1.68-.66-1.72-1.8-.03-.93-.03-1.87,0-2.8.03-1.12-.37-2.04-1.15-2.81-.96-.95-2.05-1.7-3.33-2.14-.78-.27-1.58-.48-2.43-1.08.27.29.31.45.27.63-1.17-.29-2.34-.33-3.5.04-.65.2-1.28-.01-1.91,0,.11-.6.59-.39.93-.5-1.19-.2-1.97.61-2.82,1.23-.35.25-.6.62-.97.85-.18.11-.39.25-.59.09-.18-.15-.18-.39-.12-.6.19-.73.61-1.32,1.21-1.74,3.85-2.7,8.08-4.41,12.82-4.57,2.54-.08,5.08-.04,7.51,0-1.68-.15-3.48-.03-5.28-.08-.56-.02-1.47.19-1.56-.34-.1-.63.83-.58,1.34-.73,2.03-.58,3.91-1.4,5.52-2.83,1.6-1.41,3.4-1.95,5.47-.89.86.44,1.83.3,2.77.3,2.42,0,2.82.33,3.36,2.71.06.25.1.49.15.74.34,1.44.81,1.65,2.13.95.26-.14.48-.31.7-.5,1.08-.97,1.16-.98,2.38-.12.88.62,1.59.9,2.81.34,1.47-.68,3.05-1.24,4.64-1.71,1.48-.44,2.94-.2,4.38.1,1.62.33,3.11.21,4.53-.74.61-.41.67-.74.2-1.28-.66-.76-1.51-1.1-2.47-1.15-1.62-.09-3.22-.02-4.82.37-3.05.74-6.18.87-9.3,1.11-.85.06-1.54-.11-1.96-.99-.27-.57-.88-.82-1.4-1.15-.91-.57-1.89-1.07-2.52-2-.62-.92-.47-1.49.58-1.79,1.68-.48,3.05-1.41,4.27-2.63.54-.54,1.15-1,1.84-1.31,1.02-.47,1.95-1.08,2.83-1.77.61-.48,1.32-.74,2.06-.9,1-.22,1.74-.75,2.3-1.64,1.03-1.66,2.3-3.02,4.4-3.35.93-.15,1.23-.84,1.17-1.77-.07-1.03.2-1.18,1.1-.73,1.22.61,2.2,1.46,2.77,2.76.58,1.33,1.52,2.44,2.33,3.63.37.54.91.9,1.59,1.2-1.02-2.1-.44-4.38-.87-6.55-.36-1.83-1.5-3.16-2.36-4.68-.48-.84-1.03-1.64-1.49-2.51-.59-1.12-.56-2.22.12-3.28.61-.94,1.11-1.94,1.69-2.89.92-1.5,1.3-3.1,1.08-4.85-.03-.21-.05-.43,0-.64.11-.47.33-.63.73-.24.15.15.27.33.39.52,2.51,4.09,4.73,8.33,6.15,12.93,1.08,3.5,2.39,6.95,2.97,10.59.24,1.49.36,2.99.45,4.5.37,6.69-.01,13.39.26,20.07.14,3.46-.13,6.9-.12,10.34,0,2.04-.13,4.09-.16,6.14,0,.16-.11.36.01.44.1-1.94.27-3.92.36-5.91.01-.32.1-.64.11-.96.27-7.52.37-15.04.16-22.56-.1-3.69-.02-7.4-.54-11.09-.43-3.05-1.46-5.93-2.26-8.88-1.71-6.25-4.62-11.93-7.99-17.4-.55-.89-1.19-1.71-1.85-2.52-1.15-1.41-2.68-1.54-4.32-1.18-.6.13-1.16.39-1.72.62-.26.11-.57.24-.81-.01-.27-.29-.1-.62.04-.9.36-.75,1-1.15,1.78-1.25,2.38-.3,4.74-.1,7.07.41.63.14,1.07.55,1.33,1.15.75,1.73,1.56,3.43,2.62,5.02,1.52,2.31,3.17,4.52,4.67,6.85,4.96,7.71,7.77,16.14,8.63,25.25.36,3.85.1,7.69,0,11.53-.07,2.83-.27,5.66-.69,8.47-.08.53-.16,1.06-.34,1.56.55-2.11.73-4.27.87-6.43.25-3.95.38-7.9.33-11.86-.07-5.51-1.19-10.82-2.83-16.07-1.99-6.34-5.45-11.84-9.21-17.21-.95-1.35-1.93-2.69-2.69-4.16-.12-.23-.42-.5-.15-.77.25-.25.54-.05.79.09,1.28.74,2.53,1.53,3.42,2.75.41.56.9,1.05,1.54,1.33.95.41,1.52,1.16,2.01,2.02,1.18,2.06,2.24,4.19,3.27,6.32.58,1.21.74,1.25,1.96.59.6-.33,1.18-.7,1.86-.85.99-.21,1.63.27,1.32,1.2-.67,1.98-.12,3.49,1.33,4.84.34.32.51.78.66,1.23.67,1.98,1.51,3.89,2.49,5.74.51.96.74,1.94.23,2.99-.26.55-.15,1.13-.07,1.7.25,1.6,1.06,2.93,2.06,4.27.18-1.5,1.16-2.29,2.32-2.95.57-.32.81-.88.85-1.54.06-1.14-.13-2.23-.67-3.24-.94-1.75-1.41-3.58-1.28-5.6.1-1.5.1-3.02-.17-4.52-.07-.42-.04-.86-.02-1.29.02-.38-.08-.93.34-1.05.48-.14.54.45.76.76.1.15.18.31.27.46.84,1.34,1.25,1.37,2.34.19.22-.24.45-.46.67-.7.96-1.03.94-1.18.22-2.4-.82-1.38-1.51-2.84-2.37-4.2-.39-.36-.13-.73.02-1.06.43-.93.57-1.86.23-2.84.33-.91-.15-1.58-.62-2.27-.15-.22-.45-.49-.18-.75.26-.25.55,0,.76.18,1.83,1.62,3.7,3.15,5.3,5.04,3.79,4.51,5.58,9.9,7.12,15.41.53,1.9,1.29,3.73,1.73,5.66.07.32.11.63.14.95.01.14-.07.01.02.1.12.12.09-.13.19-.14Z"/>
      <path class="cls-4" d="M110.77,124.64c.71.11,1.2-.16,1.35-.88.13-.62.54-1.08.85-1.59.35-.57.66-.43.87.14,1.65.19,2.16,0,2.85-1.45.58-1.22,1.34-2.29,2.24-3.27.63-.69.9-.71,1.42.03.49.69,1.01.45,1.61.25,1.79-.61,2.95-1.96,4.07-3.37.47-.59.93-.93,1.51-.13.06.08.17.17.27.16,1.17-.14,1.87.77,2.78,1.21.48.24.96.44,1.54.29,1.98-.5,2.44-.3,3.59,1.39-.11-1.41-1.62-2.32-3.12-1.76-1.14.43-2.04-.01-2.94-.55-.33-.2-.58-.63.02-.78,2.51-.63,5.05-1.16,7.36.55.91.67,1.87,1.35,2.44,2.38.28.51.51,1.12-.46,1.22-.14.02-.27.1-.3.34.43.32.81.02,1.1-.23.27-.23-.01-.51-.09-.78-.22-.81-.83-1.33-1.39-1.87-.15-.15-.41-.27-.34-.5.09-.27.38-.29.64-.32.98-.11,1.91.28,2.91.18-.85-.66-1.85-.8-2.89-.68-1.56.17-1.56.2-2.18-1.29-.31-.75-.8-1.36-1.46-1.83-.56-.4-1.13-.77-1.73-1.11-1.4-.78-2.31-1.92-2.67-3.49-.22-.95-.69-1.82-.94-2.76-.14-.52-.43-.73-.94-.65-1.65.25-3.18-.35-4.75-.69-.27-.06-.64-.15-.66-.47-.01-.38.39-.38.65-.39,1.74-.04,3.4-.58,5.11-.8,1.78-.23,2.47.18,2.79,1.97.21,1.15.67,2.2,1.02,3.29.18.56.53.89,1.09,1.08.65.22,1.3.44,1.96.58,1.91.41,3.44,1.37,4.67,2.89.31.38.51,1.1,1.29.83.12-.11.25-.18.41-.21.74.03,1.35-.67,2.18-.32.26.11.68-1.41.47-1.92-.24-.57-.56-1.09-.91-1.59-.82-1.14-.89-2.39-.63-3.71.08-.39.21-.77.25-1.16.1-.87.02-1.57-1.08-1.83-.94-.22-1.8-.71-2.55-1.34-.21-.18-.48-.41-.3-.72.15-.25.45-.15.69-.09,1.64.37,3.26.86,4.91,1.21,1.11.24,1.71,1.08,1.48,2.27-.44,2.27.28,4.12,1.81,5.71,1.15,1.2.84,2.69.92,4.08.05.75-.61.51-1.03.27-.72-.43-1.45-.77-2.32-.56,1.36-.11,2.32,1.03,3.6,1.15.44.08.75.39,1.1.62,1.49,1.51,2.54,3.36,3.86,5,.66.82,1.4,1.53,2.39,1.93.73.56,1.46,1.12,2.2,1.69.73.95,1.82,1.18,2.9,1.42.38.08.78.1,1.17.17,1.55.26,2.06,1.25,1.42,2.74-.12.28-.44.49-.32.87.06.5-.07.94-.41,1.32-.28-.07-.38-.29-.54-.65.04.61-.03,1.05-.69.97-.47-.06-.78.26-1.14.48-.67.41-1.26,1.07-2.18.89-.37-.7-.97-.75-1.61-.52-.78.28-1.34,0-1.85-.56.21-.46.62-1.02-.43-.85-.52.08-.79-.3-1.03-.65-.52-.74-1.21-1.2-2.07-1.45-.97-.28-1.79-.91-2.71-1.31-1.69-.73-3.43-.97-5.3-.78,1.63.56,2.5,1.89,3.43,3.18,1.15,1.59,2.97,2.33,4.54,3.38.61.41,1.55.14,2.31.38.45.18,1.24-.31,1.29.65.14.95-.48,1.47-1.14,1.94-.64.46-1.3.89-1.99,1.26-.34.18-.69.44-1.05.03.56-.78-.58-.73-.6-1.23-.05-.06-.03-.18-.03-.19-.72-.33-1.13-1.13-1.96-1.3-.86-1.15-2.2-1.11-3.42-1.34-.46-.09-.92-.14-1.29-.47-.1-.49-.47-.56-.89-.6-.59-.07-1.12-.25-1.32-.92-.15-.49-.53-.53-.96-.44-.62.13-1.22.12-1.79-.18-.35-.17-.63-.49-.99-.63-1.02-.4-1.26-1.25-1.31-2.2-.02-.35,0-.59-.47-.63-1.46-.14-1.49-.21-.78-1.46.07-.12.16-.24.22-.46-.54.05-.78-.69-1.4-.44-.77.32-1.56.52-2.4.52-.3,0-.7.21-.87-.18-.14-.32.12-.61.29-.88.56-.87,1.34-1.48,2.22-1.98.44-.25.89-.46,1.45-.79-1.75.57-3.17,1.36-4.06,2.88-.17.3-.49.63-.25.97.21.29.6.09.91.07.21-.01.43-.03.64,0,.74.13.61.54.31.99-.64.95-1.25,1.92-1.55,3.03-.41,1.51-.58,3.03.26,4.48-.36.28-.92.3-1.08.83-1.89.81-3.04,2.41-4.07,4.03-2.34,3.71-4.62,7.44-6.78,11.26-1.85,3.27-4.43,5.89-8.03,7.18-3.9,1.4-7.73.75-11.38-1.02-2.02-.98-3.68-2.5-5.46-3.84-.61-.45-1.18-.94-1.88-1.24-.26-.11-.59-.21-.65-.52-.1-.55-.51-.78-.92-.97-2.13-1.01-3.33-2.81-4.11-4.92-.77-2.07-2-3.8-3.54-5.35-.63-.63-1.33-1.09-2.21-1.25-.61-.43-1.43-.68-1.41-1.65.14-.37-.07-.32-.3-.25-1.17.39-2.22,1.02-3.23,1.71-1.61,1.09-3.34,2-5.08,2.83-2.11,1.01-4.29.53-6.41-.22-1.12-.4-2.13-1.03-3.22-1.49-.6-.51-1.11-1.16-1.96-1.31-.97-.43-1.96-.41-2.95-.12-2.06.6-3.87,1.39-5.02,3.52-.82,1.54-2.06,2.92-3.28,4.24-.97,1.06-2.06,2-2.95,3.15-.75.97-1.74,1.35-2.96,1.05-.78-.19-1.58-.07-2.37-.12-.61-.04-1-.22-.66-.93.19-.39.12-.7-.33-.84-.24-.45.19-.87.05-1.31.49-.06.76.35,1.13.55.73.37,1.41.42,2.18-.27-1.8.56-2.8.15-3.19-1.18.16-.3.48-.42.82-.69-1.04.3-1.95.69-2.93.79-1.44.14-1.78-.36-1.2-1.68.38-.86.67-1.71.38-2.66.41-.71.48-1.68,1.43-2,.22.09.31.29.41.48.71,1.48,1.83,1.95,3.21,1.06,1.45-.95,3.02-1.85,3.71-3.63.25-.63.77-1.04,1.38-1.31,1.14-.49,1.95-1.32,2.58-2.37.62-1.02,1.26-2.02,1.92-3,.22-.33.43-.61.93-.58,1.33.08,2.24-.52,2.76-1.74.1-.23.18-.47.29-.7.43-.91.57-.94,1.25-.23.67.7,1.52.93,2.44.96,1.29.04,2.57.01,3.85.33,1.21.3,2.26-.47,2.83-1.42,2.01-3.4,4.15-6.75,5.32-10.57.13-.49.61-.86.51-1.44,0-.1,0-.19,0-.29.13-.58-.03-1.03-.57-1.32-1.19-2.48-3.66-3.79-5.35-5.82-1.22-1.46-3.2-1.51-4.85-2.17-1.25-.5-2.6-.58-3.92-.65-1.48-.08-2.93-.29-4.34-.71-2.18-.65-4.42-.43-6.64-.41-1.72.02-3.36-.06-4.78-1.18-.37-.05-.68.14-1.01.26-.32.11-.64.15-.72-.32.02-.19.09-.34.23-.47-.71.63-1.46,1.22-2.05,1.98-.15.19-.38.4-.64.23-.25-.17-.2-.46-.08-.68,1.05-1.91,1.52-4.13,3.18-5.7.82-.78,1.38-1.74,1.79-2.79.43-1.1,1.11-2.01,2.21-2.55,1.05-.52,1.78-1.44,2.62-2.22.52-.48.42-.84-.25-1.12-.62-.26-1.28-.16-1.92-.17-1.67-.02-2.15-.32-2.21-1.39-.08-1.59.92-2.97,2.26-3.03,1.37-.06,2.73,0,4.1-.02,1.99-.04,3.57-.98,4.92-2.36.22-.22-.16-.07-.2-.16-2.15-.53-4.32-.73-6.52-.36-1.51.26-3.01.61-4.57.58-.97-.02-1.83-.22-2.58-.85.32-.31.69-.18,1.01-.05,1.2.49,2.4.38,3.6.05,2.47-.68,4.99-.57,7.5-.55.4,0,.79.09,1.18.18-3.16-.67-6.3-.59-9.42.22-.94.24-1.87.19-2.75-.18-1.31-.56-2.72-.96-3.73-2.05.18-.65.71-.53,1.14-.46,3.96.64,7.96.61,11.94.66,2.6.03,5.04.71,7.55,1.04,4.47.58,8.82,1.68,13.18,2.78,2.23.56,4.42,1.27,6.64,1.89.76.21,1.35.66,1.84,1.26.52.64,1.08,1.25,1.59,1.9.36.52.15.95-.22,1.34-1.17,1.25-2.47,2.36-3.81,3.43-1.17.82-2.42,1.68-3.18,2.81-.88,1.31-1.13,2.97-.84,4.65.41,2.35,1.47,4.4,2.68,6.4.54.89,1.2,1.7,1.64,2.64,1.1,3.15,3.25,5.62,5.33,8.14,3.19,3.87,6.68,7.49,9.34,11.77.21.34.5.61.74.93.41.62.24,1.27.1,1.92-.08.67.31,1.06.81,1.4.51.34,1.03.66,1.4,1.17.23.31.34.66.05.98-.31.33-.68.37-1.07.12-.34-.21-.6-.51-.88-.79-.26-.25-.5-.52-.84-.67-.31-.14-.62-.22-.92,0-.35.25-.2.57-.1.88.37,1.23.35,1.24-.82,1.71-.55.22-1.34.31-1.38,1.02-.05.8.8.93,1.36,1.16,2.06.84,4.07,1.8,6.2,2.43.29-.05.52-.28.83-.24.33.02.56.31.97.32.08-.42.11-.88.46-1.22.18-.17.39-.47.27-.66-.58-.93.01-1.68.3-2.48.03-.43.18-.85-.03-1.27-.78-2.46.14-4.6,1.3-6.67.46-.82.91-1.62,1.25-2.5.69-1.8.19-3.33-1.01-4.67-2.67-3.01-5.53-5.81-8.55-8.49-3.21-2.84-6.69-5.18-10.44-7.19-1.46-.78-2.88-1.68-4.14-2.72-1.34-1.1-2.47-2.54-3.2-4.15-.79-1.73-.03-3.19,1.13-4.53,1.46-1.69,3-3.3,4.73-4.71,1.29-1.05,1.39-2.38.99-3.81-.45-1.61-1.37-2.93-2.85-3.79-1.52-.88-2.99-1.88-4.73-2.33-.25-.07-.64-.09-.59-.49.04-.27.35-.36.59-.4,2.33-.39,4.66-.6,6.81.69,1.05.63,2.18,1.11,3.24,1.72.21.12.44.34.69.16.3-.22.15-.53.03-.79-.47-1.01-.93-2.03-1.58-2.94-.19-.26-.38-.53-.52-.82-.11-.23-.22-.47.02-.69.18-.17.41-.11.61-.03.65.24,1.19.67,1.75,1.06.2.14.4.32.69.26.23-.31,0-.54-.15-.77-2.04-3.23-4.44-6.17-6.94-9.06-2.05-2.37-4.27-4.56-6.48-6.76-1.68-1.67-3.49-3.21-5.33-4.71-6.02-4.93-12.38-9.37-18.93-13.57-3.45-2.21-6.88-4.45-10.47-6.43-.6-.33-1.25-.55-1.87-.83-.43-.18-.66-.63-1.11-.79-1.02-.32-2.05-.25-3.08-.1-.68.1-1.35.11-2.03.13-.21,0-.46.02-.54-.23-.08-.24.1-.4.26-.54.29-.26.67-.41.89-.76-.17-.03-.35.06-.49-.09-.29-.85-1.21-.4-1.7-.82.12-.13.25-.23.45-.19-3.4-.49-6.69-1.26-9.61-3.2-1.05-.7-2.25-1.12-3.56-1.1-.32,0-.78,0-.82-.34-.06-.42.42-.54.75-.65,1.38-.46,2.82-.58,4.25-.63,1.37-.05,2.74,0,4.1-.02.14,0,.28-.01.39-.28-1.14-.56-2.37-.71-3.6-.87-2.82-.35-5.67-.56-8.14-2.23-.69-.47-1.36-.98-1.91-1.57-1.39-1.48-3.2-1.67-5.04-1.8-.68-.05-1.37.01-2.05-.02-.34-.02-.85.04-.87-.4-.02-.5.51-.55.9-.56.97-.02,1.94-.19,2.9-.19,2.13,0,4.23-.27,6.36-.28,4.8-.04,9.33,1.09,13.74,2.86,4.85,1.95,9.56,4.18,14.07,6.83,2.92,1.71,5.71,3.58,8.17,5.97,4.59,4.46,9.35,8.72,14.48,12.58,2,1.5,3.87,3.21,5.55,5.1,1.68,1.9,3.63,3.5,5.8,4.81,3.35,2.03,6.3,4.51,8.95,7.41,1.08,1.18,2.43,2.12,3.36,3.34.21.02.26-.02.28-.09.06-.36-.26-.88.27-1.03.47-.14.77.3,1.06.61,1.62,1.75,2.54,3.91,3.51,6.04.45.98.91,1.96,1.42,2.91.46.86.66.87,1.32.16.2-.22.32-.67.7-.53.33.12.33.53.38.85.18,1.03.24,2.07.47,3.09.07.31.12.68.46.81.41.15.7-.15.91-.43.54-.73,1.25-1.16,2.11-1.41,1.02-.3,1.43-1.11,1.66-2.08.16-.68.14-1.44.73-1.97.44,1.06.17,2.17.18,3.25-.49,1.67-1.42,2.98-2.87,4.02-2.61,1.87-3.78,4.63-4.34,7.69-.11.57-.18,1.13-.47,1.65-1.31,2.33-1.41,4.86-1.19,7.44.2,2.25.68,4.46.99,6.7.03.25.07.5,0,.75-.21,1.34.28,2.56.83,3.7.87,1.81,2.13,3.37,3.57,4.78.2.2.4.42.73.4,1.02.26,1.55,1.09,2.04,1.9,1.36,2.25,2.95,4.33,4.56,6.4,1.34,1.72,2.79,3.28,5.03,3.8Z"/>
      <path class="cls-4" d="M40.15,53.15c.17-.27.41-.25.67-.18.53.24,1.06.47,1.61.61,2.44.62,4.24,2.12,5.51,4.21,1.22,2,2.92,3.16,5.15,3.8,1.28.37,2.54.79,3.84,1.06.96.2,1.93.28,2.87-.11,1.05-.45,1.12-.83.35-1.64-.94-1-2.2-1.52-3.46-1.61-2.27-.16-3.47-1.67-4.75-3.19-.48-.57-.43-1.23-.3-1.85.18-.83-.14-1.3-.85-1.63-2.6-1.2-5.03-2.78-7.9-3.37-1.26-.26-1.99-1.2-2.43-2.39-.43-1.16-.6-2.37-.76-3.58-.18-1.39-.88-2.41-2.01-3.17-1.7-1.15-3.4-2.3-5.13-3.4-.39-.25-.84-.45-.94-.98.07-.48.37-.32.64-.23,3.86,1.31,7.54,2.98,10.85,5.41,1.47,1.09,3.05,2.03,4.7,2.84.81.39,1.54.94,2.24,1.48,3.03,2.31,6.52,3.78,9.82,5.6,2.4,1.32,4.58,2.91,6.62,4.77,2.9,2.65,5.49,5.58,8.12,8.47.77,1.98,1.62,3.91,3.05,5.55.9,1.03,2.17,1.68,3.01,3.05-.45-1.61-1.78-2.24-2.57-3.31-.93-1.25-1.78-2.53-2.52-3.89-.1-.19-.17-.4-.09-.62.41-.22.27-.93.87-.98,1.18.9,2.1,2.06,3.02,3.2,1.62,2.01,3.49,3.82,4.76,6.1.12.22.26.43.37.66.14.28.41.6.11.88-.23.22-.55.02-.81-.09-.46-.19-.89-.47-1.38-.6-.2-.05-.44-.13-.59.09-.14.21,0,.42.12.59.45.61.91,1.2,1.33,1.83.37.58.68,1.18.88,1.84.07.24.2.51,0,.71-.2.2-.48.09-.71,0-.53-.22-1.05-.47-1.53-.79-2.08-1.37-4.33-1.81-6.79-1.4-.91.15-1.85.24-2.78.27-.84.03-1.46.28-1.76,1.11-.51.17-.89-.07-1.26-.38-1.1-.56-2.32-.69-3.5-.98-3-.73-5.94-1.73-9.01-2.1-3.56-.42-7.12-.89-10.71-1.07-2.51-.13-5.01-.3-7.52-.42-.62-.03-1.22.02-1.81.19-.6.05-1.19.23-1.8.23-2.18.02-4.36-.02-6.55.04-.36,0-1.03-.27-1,.55-.74.35-1.47.2-2.2-.06-.03-.61-.51-.31-.72-.28-1.73.28-3.5.49-5.02,1.48-.18.12-.37.23-.57.3-.2.07-.42.18-.6,0-.21-.21-.15-.47-.02-.7.4-.68,1.04-1.09,1.71-1.43,2.4-1.2,4.66-2.71,7.33-3.31.4-.09.68-.38.97-.66.46-.45.92-.92,1.49-1.23,1.14-.63,1.91-1.46,1.94-2.87.01-.76.59-1.19,1.28-1.43.72-.25,1.46-.36,2.2-.53.97-.22,1.87-.56,2.59-1.23.83-.78,1.8-1,2.89-.81.7.12,1.21-.01,1.39-.79.1-.4.37-.7.71-.91.78-.48.53-.84-.08-1.25-.98-.66-1.81-1.52-2.77-2.21-.72-.52-.76-1.72-.22-2.64.13-.21.38-.34.42-.61Z"/>
      <path class="cls-2" d="M39.71,100.45c.3.41.55.04.78-.07.24-.12.44-.33.74-.14.27.05.4.28.58.46.76.79,1.68,1.21,2.78,1.2.93,0,1.87.04,2.8,0,2.43-.11,4.79.21,7.13.89,1.55.45,3.21.31,4.8.62,1.74.33,3.59.68,4.97,1.67,2.12,1.53,4.31,3.08,5.98,5.17.67.83,1.18,1.78,1.65,2.75.46.64-.23.89-.44,1.3-.44.17-.42.64-.62.96-.44.71-.73.78-1.17.11-1.87-2.81-4.46-4.77-7.43-6.24-3.24-1.61-6.69-2.4-10.31-2.37-1.83.01-3.69-.04-5.48.36-3.99.88-7.67,2.45-10.74,5.23-2.64,2.39-4.79,5.17-6.42,8.33-1.49,2.89-2,6.06-2.46,9.23-.46,3.14,0,6.24.51,9.32.44,2.62,1.85,4.83,3.59,6.79,3.47,3.9,7.82,6.64,12.33,9.15,5.43,3.02,10.39,6.59,13.99,11.77.45.65.76,1.39,1.27,2,.44.46.2,1,.17,1.52-.32.08-.44-.27-.73-.36.51.99.74,2.02.86,3.08.04.34.23.78-.21.93-.35.13-.53-.26-.72-.51-.09-.11-.16-.24-.25-.34-.28-.23-.12-1.04-.86-.66-.24-.24-.08-.54-.12-.81-.09.37-.04.79-.39,1.07-.45-.26-.43-.69-.51-1.05-.28-1.15-.66-2.26-1.11-3.35-.15-.37-.14.17-.27.09-2.28-3.94-5.97-6.32-9.63-8.73-.48-.31-.92-.68-1.38-1.02.47-.34.81.02,1.17.23,2.63,1.5,5.14,3.16,7.29,5.32.33.33.71.6,1.19.94-2.57-3.3-5.95-5.37-9.43-7.28-2.64-1.45-5.39-2.69-7.96-4.31-3.89-2.45-7.09-5.61-10.06-9.04-2.22-2.56-3.29-5.7-4.44-8.8-.05-.14-.1-.27-.18-.39-.35-.72-.49-1.53-.37-2.26.18-1.06.38-2.3.2-3.49-.02-.15-.09-.26-.26-.27-.42-.42-.28-.94-.21-1.42.44-3.1,1.09-6.18,2.07-9.14,1.95-5.9,5.02-11.19,9.25-15.79,1.14-1.24,2.22-2.55,3.55-3.61.3-.24.58-.54.66-.96.65-.86,1.54-.49,2.37-.46.24.47-.1.82-.27,1.2-.62,1.45-1.56,2.74-2.11,4.23-.29.79-.43,1.59-.5,2.41-.04.41.02.84.38,1.12.21-.09.25-.23.26-.37.1-2.55,1.82-4.2,3.28-6,.11-.14.27-.24.47-.19Z"/>
      <path class="cls-10" d="M198.04,13.2c.02-.11.01-.22.05-.32.12-.31.19-.03.22.04.5,1.36,1.46,2.47,2.05,3.78.1.23.2.47.34.67.86,1.23.84,1.47-.2,2.56-.42.44-.81.91-1.22,1.36-.59.67-1.25.68-1.81-.03-.49-.61-.89-1.29-1.34-2.03,0,.75-.11,1.52.02,2.25.27,1.54.24,3.09.15,4.62-.11,1.95.37,3.69,1.29,5.36.49.9.65,1.87.71,2.89.07,1.26-.44,2.08-1.53,2.57-.99.45-1.52,1.16-1.52,2.25,0,.29-.02.63-.36.7-.38.08-.46-.28-.58-.53-.79-1.56-1.81-3.01-1.95-4.85-.04-.5-.04-.96.18-1.33.49-.82.37-1.58-.03-2.35-1.1-2.1-2.07-4.26-2.82-6.52-.27-.83-.95-1.35-1.47-1.98-.76-.91-.87-1.81-.57-2.9.16-.59.65-1.37.08-1.81-.58-.45-1.29.1-1.9.4-2.35,1.17-2.34,1.17-3.54-1.17-.97-1.88-1.95-3.75-2.94-5.62-.2-.38-.4-.88-.74-1.04-2.55-1.23-3.78-4.14-6.62-5.04.08.47.35.88.62,1.28,2.79,4.08,5.69,8.1,8.14,12.41,1.63,2.86,2.65,5.95,3.71,9.04,1.13,3.3,1.83,6.69,2.32,10.13.16,1.13.25,2.28.26,3.43.03,4.49.12,8.99-.23,13.48-.19,2.38-.36,4.77-1.24,7.05.16-1.68.25-3.36.5-5.03.12-.79.08-1.58.13-2.36.29-4.84.61-9.67.21-14.52-.28-3.39-.87-6.73-1.83-10.01-.87-2.96-1.75-5.94-3.12-8.7-1.82-3.66-3.93-7.17-6.34-10.5-1.28-1.77-2.5-3.59-3.45-5.57-.25-.52-.5-1.04-.95-1.42-.15-.13-.4-.27-.33-.51.27-.99-.46-1.22-1.12-1.37-2.17-.51-4.39-.58-6.61-.45-1.16.07-1.71.54-2.06,1.81.37.21.59-.12.86-.24,2.79-1.23,5.06-1.08,6.86,1.61,3.72,5.55,6.86,11.38,8.76,17.8.9,3.05,2.02,6.05,2.54,9.21.28,1.7.42,3.42.49,5.13.34,7.84.34,15.68.22,23.52-.06,4.12-.4,8.24-.63,12.35-.02.39-.16.77-.25,1.2-.46-.3-.38-.73-.38-1.12,0-4.2.15-8.4.41-12.59.08-1.26-.17-2.51-.18-3.76-.02-5.04.05-10.08-.05-15.12-.08-3.9,0-7.84-1.08-11.63-1.23-4.34-2.32-8.74-4.22-12.86-1.33-2.87-2.66-5.73-4.4-8.38-.15-.23-.32-.46-.53-.77-.27.88.12,1.62.06,2.4-.17,2.19-1.28,3.97-2.44,5.67-1.16,1.69-1.25,3.18-.03,4.82.64.86,1.07,1.88,1.73,2.73,1.45,1.86,1.79,4.02,1.86,6.27.04,1.25-.04,2.51.7,3.63.17.25.23.56-.04.78-.33.26-.51-.06-.73-.23-1.79-1.32-2.9-3.17-3.82-5.11-.71-1.5-1.98-2.16-3.28-2.87-.26.38-.02.63.02.9.15,1-.24,1.79-1.24,1.93-2.24.31-3.56,1.74-4.57,3.54-.54.97-1.4,1.32-2.35,1.52-.91.2-1.66.59-2.37,1.18-.63.52-1.32.97-2.1,1.28-.87.35-1.6.95-2.26,1.62-1.18,1.19-2.52,2.13-4.21,2.47-.91.18-.98.67-.49,1.35.67.94,1.68,1.44,2.63,2.02.67.41,1.43.74,1.63,1.61.1.45.45.38.77.4,1.44.07,2.86-.28,4.28-.3,3.45-.04,6.73-1.46,10.21-1.23,1.28.09,2.36.42,3.21,1.46.55.67.5.98-.24,1.49-1.87,1.29-3.88,1.17-5.87.69-2.04-.49-3.83.1-5.6.92-.63.29-1.27.47-1.94.61-.21.04-.52.02-.61.15-.83,1.3-1.64.43-2.44-.01-.22-.12-.44-.26-.62-.43-.61-.57-1.14-.81-1.69.11-.46.77-1.36.92-2.12,1.18-.7.24-1.02-.37-1.17-.95-.21-.79-.38-1.6-.54-2.41-.22-1.11-.93-1.51-2-1.53-1.18-.02-2.37.13-3.54-.19-.56-.15-.94-.65-1.57-.67-1.07-.04-2.17.07-2.96.78-2.25,2.01-4.83,3.26-7.77,3.87,2.71.22,5.41-.14,8.17.46-.39.43-.77.29-1.09.29-2.16.02-4.32.09-6.48,0-3.04-.13-5.88.58-8.69,1.67-1.79.69-3.47,1.55-5.05,2.63-.8.55-1.36,1.23-1.6,2.44,1.72-1.41,3.04-3.4,5.58-2.23-.61.62-1.5-.11-2.08.46-1.75.7-2.75,2.44-4.54,3.44.13-1.94.53-3.48,2.01-4.54,3.51-2.5,7.5-3.62,11.65-4.67,2.97-.75,6.25-1.4,8.61-3.8,1.01-1.02,2.3-1.41,3.66-1.63.47-.08.97-.09,1.35.22.83.67,1.78.68,2.76.64.18,0,.36,0,.54,0,2.94.07,3.29.37,4.03,3.22.14.55,0,1.41.75,1.53.68.11,1.33-.29,1.72-.91.5-.8,1.13-.76,1.85-.37.25.14.5.28.74.44.73.5,1.29.61,2.33.3,1.93-.59,3.79-1.48,5.8-1.84,1.65-.29,3.18.44,4.79.52.94.05,1.79-.13,2.58-.56.82-.45.8-1.02,0-1.55-.43-.28-.92-.35-1.43-.39-2.5-.22-4.91.42-7.35.73-2.45.31-4.9.78-7.38.71-.86-.03-1.85.06-1.92-1.32-.02-.48-.71-.67-1.14-.91-1.22-.7-2.35-1.46-3.19-2.66-.62-.89-.22-1.33.5-1.65,1.51-.68,3.02-1.41,4.21-2.56,1.68-1.62,3.98-2.28,5.7-3.81.13-.12.3-.23.47-.25,2.03-.24,3.25-1.5,4.27-3.17.68-1.11,1.74-1.85,3.13-2.09,1.32-.23,1.47-.52,1.22-1.84-.09-.46-.31-.95.13-1.3.49-.4,1.04-.15,1.52.09,1.63.81,3.06,1.77,3.79,3.61.44,1.11,1.27,2.07,2.09,3.36.16-1.81,0-3.29-.22-4.79-.34-2.24-1.84-3.84-3.03-5.62-.24-.36-.53-.68-.79-1.02-1.14-1.54-1.14-3.06-.06-4.66,1.05-1.57,2.2-3.18,2.47-5.08.26-1.83.57-3.68-.47-5.54-1.15-2.07-2.68-2.24-4.93-1.7-.54.13-1.03.5-1.56.69-.68.24-1.1.03-1.08-.77.02-1.11.96-2.28,2.02-2.46,2.63-.45,5.22-.02,7.8.42.73.12,1.11.72,1.33,1.25.56,1.34,1.72,1.98,2.83,2.65,1.12.68,2,1.64,3.04,2.38,3.33,2.35,4.88,5.9,6.57,9.36.37.75.79,1.01,1.6.59.6-.31,1.25-.53,1.9-.73.98-.3,1.62.19,1.62,1.2,0,.21,0,.45-.07.64-.7,1.63-.3,2.98.97,4.17.78.74,1.08,1.77,1.44,2.74.53,1.42,1.23,2.73,2.03,4.02.67,1.09.97,2.26.56,3.59-.57,1.83-.11,3.58,1.22,5.15.47-1.01,1.2-1.74,2.09-2.36.88-.61.64-1.6.59-2.49-.01-.28-.09-.59-.22-.83-2.64-4.63-1.73-9.77-2.13-14.72-.03-.4.01-.83.44-1.01.49-.2.78.14,1.08.49.53.62.71,1.4,1.03,2.12.34.78.82.81,1.44.38,1.36-.93,1.48-1.41.76-2.9-.6-1.25-1.39-2.41-1.71-3.79Z"/>
      <path class="cls-2" d="M80.53,134.36c.04.84.95.95,1.31,1.51,2.33,1.73,4.06,3.92,5.11,6.64.14.36.41.71.08,1.1-.14.09-.29.19-.43.28-.42-.09-.84-.19-1.27-.17-2,.09-3.9-.28-5.64-1.35.69.94,1.69,1.33,2.76,1.62.33.09.84-.06.9.52-.36.08-.71.16-1.07.24-.25-.01-.52-.02-.71.17-1.26,1.25-2.48,2.94-1.82,5.15.91,3.01,1.07,6.13.64,9.26-.17,1.22-.73,2.14-1.84,2.74-.66.36-1.32.73-1.96,1.12-.12.07.03-.01-.09.05-.98.5-2.52.33-2.75-.31-.21-.56.55-1.41,1.66-1.87.2-.08.41-.14.61-.19-.63.16-1.23.36-1.74.81-1.18,1.02-2.26,1.03-3.47.05-.25-.2-.52-.38-.79-.56-.1-.21-.21-.42-.31-.63.94-.57,2.1-.19,2.95-.68-1.12,0-2.36.32-3.52-.41-.67-.42-.92-.85-.41-1.56.44-.61.8-1.28,1.31-1.83.22-.23.42-.48.78-.1.8.84,1.24.72,1.76-.42.5-.3.32-.93.63-1.32.57-.61.44-1.41.53-2.13.58-4.64,1.1-9.28,1.91-13.88.14-.81.47-1.37,1.16-1.82.94-.6,1.9-1.17,2.84-1.76.27-.17.54-.37.9-.27Z"/>
      <path class="cls-10" d="M101.71,72.17c-.15.55-.39,1.09-.44,1.65-.16,1.64-.94,2.65-2.62,2.92-.67.11-.89.79-1.33,1.21-.33.32-.65.74-1.19.57-.5-.16-.49-.66-.55-1.08-.2-1.31-.39-2.62-.58-3.94-.07.02-.15.02-.17.05-.28.57-.68,1.25-1.23,1.25-.58,0-.76-.83-1.04-1.35-1.13-2.09-1.93-4.34-3.14-6.38-.64-1.08-1.4-2.04-2.34-2.89-.29.35,0,.59-.07.82-.09.28.42.65-.07.83-.35.13-.56-.26-.77-.49-2.47-2.65-5.05-5.2-7.81-7.55-1.58-1.34-3.41-2.39-5.13-3.55-1.59-1.07-3.08-2.24-4.38-3.65-2.91-3.15-6.21-5.87-9.59-8.49-2.81-2.18-5.53-4.43-7.99-7.04-5.43-5.76-12.15-9.7-19.29-12.97-3.07-1.4-6.1-2.91-9.35-3.85-4.05-1.17-8.17-1.96-12.42-1.58-2.5.22-5.01.35-7.52.45-.14,0-.29.03-.39.34.41.02.8.04,1.19.06.97.06,1.93.03,2.9.13,1.71.16,3.07.83,4.24,2.04,2.15,2.22,4.93,2.91,7.88,3.25,1.59.19,3.22.23,4.75.83.2.08.41.14.6.23.27.12.55.29.46.64-.08.32-.41.23-.64.23-1.55.01-3.1-.02-4.64.02-1.22.03-2.43.2-3.61.49-.36.09-.7.28-1.04.49,2.06-.1,3.76.73,5.42,1.78,1.94,1.23,4.08,1.9,6.35,2.19.95.12,1.86.42,2.85.78-.46.04-.82.07-1.17.1-3.31-.22-6.39-1.11-9.19-2.97-2.11-1.4-4.37-1.7-6.66-.31-.26.15-.62.43-.85.05-.21-.35.17-.57.42-.76,1.94-1.5,4.03-2.58,6.58-2.52.6.02,1.2-.13,2.06-.23-1.29-.23-2.32-.49-3.36-.59-2.77-.27-5.09-1.5-7.02-3.41-1.08-1.08-2.32-1.43-3.74-1.61-1.74-.22-3.53.07-5.22-.61-.37-.15-.85-.21-.83-.69.01-.49.55-.42.85-.46,1.56-.21,3.14-.46,4.71-.5,3.2-.08,6.38-.65,9.59-.32,3.4.34,6.76.95,9.93,2.22,3.28,1.31,6.74,2.18,9.83,3.94,6.32,3.59,12.51,7.41,17.39,12.91,2.47,2.79,5.61,4.7,8.44,7,3.3,2.68,6.53,5.42,9.38,8.59,1.45,1.62,3.25,2.83,5.08,3.97,3,1.86,5.57,4.15,7.76,6.92.92,1.17,2.13,2.12,3.26,3.23.24-.34,0-1.06.51-1.13.57-.08,1.09.29,1.53.67,1.37,1.17,2.19,2.74,2.97,4.32.85,1.73,1.61,3.51,2.44,5.33.47-.31.38-.8.47-1.22.06-.31.06-.65.15-.95.08-.27.21-.57.55-.61.38-.04.46.31.56.56.43,1.04.53,2.15.71,3.24.13.84.23,1.69.47,2.67.7-1.25,1.95-1.44,3.06-1.96,1.11-.52,1.11-1.83,1.45-2.86.16-.49.13-.51.64-.43Z"/>
      <path class="cls-2" d="M69.53,77.79c.29.29.69.31,1.05.42,2.02-.31,3.83.39,5.58,1.24.83.41,1.59.98,2.42,1.41,1.62.83,2.31,2.3,2.79,3.92.14.47.22,1-.19,1.43-.55-.12-.82-.63-1.06-1.01-.97-1.57-2.47-2.15-4.15-2.59-4.52-1.18-8.99-2.64-13.6-3.38-3.56-.57-7.05-1.57-10.65-1.78-1.25-.07-2.55-.16-3.83-.12-3.22.08-6.44-.08-9.63-.61-.3-.05-.65-.13-.91.16-.44.25-.74-.09-1.07-.27-1.05-.54-2.04-1.18-3.21-1.45-.6-.14-1.2-.23-1.79.02-.58-.18-.79-.83-1.34-1.06.46-.48,1.07-.3,1.63-.34,1.13-.06,2.28.13,3.37-.33.59-.07,1.18-.14,1.77-.21,7.48.43,14.97.79,22.37,2.07,2.93.51,5.77,1.45,8.68,2.07.59.13,1.23.01,1.76.39Z"/>
      <path class="cls-10" d="M58.52,168.93c-1.17-.98-1.81-2.39-2.76-3.55-2.82-3.43-6.22-6.16-10-8.43-3.51-2.11-7.15-4-10.4-6.52-3-2.32-5.71-4.9-7.41-8.41-.94-1.93-1.1-4-1.38-6.04-.62-4.56.08-9.04,1.57-13.33,1.52-4.36,4.37-7.89,7.83-10.92,2.99-2.62,6.55-4.29,10.4-4.9,6.49-1.04,12.77-.36,18.46,3.42,2.17,1.44,3.93,3.21,5.37,5.42.47-.38.52-.98.77-1.46.21-.39.39-.44.5.06-.05,1.26-.62,2.36-1.17,3.43-1.23,2.39-2.53,4.75-3.86,7.08-.93,1.64-2.4,2.18-4.26,1.71-.99-.24-2.01-.04-3-.13-1.2-.11-2.35-.35-2.94-1.62-.39.26-.48.69-.55,1.04-.23,1.33-1.3,1.79-2.3,2.35-.12.07-.33.17-.39.12-.99-.76-1.14.2-1.48.72-.55.84-1.12,1.67-1.62,2.54-.67,1.16-1.6,2.01-2.83,2.53-.63.27-1.02.75-1.28,1.38-.77,1.83-2.4,2.85-4.03,3.63-1.82.88-2.77.18-3.38-1.93.19-.34.51-.49.87-.56.22-.05.44-.01.6.17.2.22,0,.37-.1.56-.15.3-.49.62-.14.96.31.3.67.49,1.17.35,1.97-.58,3.51-1.72,4.38-3.58.48-1.02,1.33-1.48,2.2-1.95.65-.35,1.16-.74,1.54-1.41.85-1.53,2.15-2.78,2.76-4.46.13-.35.4-.5.77-.33,1.09.5,2.01.07,2.43-1.12.27-.77.57-1.53.84-2.3.11-.31.21-.67.61-.65.39.02.31.44.38.68.47,1.71,1.02,2.13,2.82,2.1,1.22-.02,2.43-.15,3.63.27.75.27,2.2-.61,2.74-1.58,1.18-2.13,2.29-4.3,3.48-6.42.39-.7.29-1.24-.12-1.86-2.33-3.52-5.65-5.71-9.54-7.16-4.61-1.72-9.36-1.88-14.08-.79-7.4,1.7-12.57,6.35-15.96,13-1.59,3.11-2.15,6.58-2.42,10.04-.23,2.91-.05,5.85.72,8.66.95,3.44,3.19,6.12,5.78,8.53,3.19,2.97,7.11,4.82,10.78,7.05,4.56,2.78,8.97,5.71,12.16,10.11.78,1.07,1.52,2.17,1.86,3.48Z"/>
      <path class="cls-10" d="M149.86,113.03c-.32.27-.72.26-1,.04-1.06-.8-2.29-.95-3.65-.94,1.01-.83,1.28-.8,4.21.35-.16-1.81-.02-3.56-1.6-5.02-1.17-1.07-1.54-2.73-1.32-4.39.29-2.22.03-2.48-2.17-2.88-1.5-.27-2.95-.79-4.6-1.25.86,1.13,1.99,1.47,3.04,1.9,1.11.46,1.59,1.06,1.21,2.18-.72,2.16-.28,3.99,1.09,5.73.94,1.19-.15,2.17-.42,3.32-.34-.84-.78-.89-1.4-.43-.25.19-.59.52-.92.05-.04-.79.64-.97,1.13-1.26,1.09-.65,1.12-.63.38-1.71-1.52-2.22-1.54-4.53-.46-6.92-.23-.44-.71-.48-1.09-.59-1.29-.38-2.28-1.18-3.18-2.14-.17-.18-.55-.36-.28-.69.19-.22.47-.27.78-.14,1.26.52,2.61.71,3.93,1.04.57.14,1.03.04,1.54-.2,3.44-1.61,6.85-3.32,10.61-4.09,4.44-.91,8.82-2.03,13.42-2.18,2.63-.08,5.23.29,7.84.11,2.93-.2,5.67-.78,7.72-3.15.99-1.14,2.15-2.11,3.53-2.78,1.09-.53,1.78-1.52,2.85-2.53-1.67.4-3.05.69-4.38,1.17-.37.13-.83.34-1.07-.06-.24-.39.26-.59.46-.87.66-.93,1.62-1.64,2.01-2.76.09-.27.42-.59-.2-.69-1.07-.18-.67-.74-.2-1.14,2.42-2.03,4.7-4.21,6.84-6.52,2.39-2.58,4.93-5.12,6.44-8.3,1.62-3.4,3.2-6.82,4.83-10.22,1.18-2.46,2.51-4.84,3.63-7.33,1.16-2.59,2.24-5.2,2.92-7.96.04-.16.03-.43.31-.41.03,0,.05.26.07.4-.5,2.94-1.61,5.69-2.72,8.43-2.08,5.13-4.96,9.9-7.05,15.02-1.97,4.83-5.46,8.45-8.9,12.16-1.17,1.26-2.63,2.24-3.66,3.65-.29.39-.56.7-.36,1.33.2.65-.22,1.29-.7,1.82-.59.66-1.13,1.36-1.87,2.26,1.67-.28,3.03-.61,4.28-1.3.22-.12.42-.28.66-.36.23-.08.52-.13.71.09.22.25.05.47-.12.66-1.15,1.23-2.13,2.68-3.56,3.57-1.85,1.15-3.56,2.42-4.96,4.09-1.14,1.36-2.78,1.63-4.33,2.12-1.99.64-4.05.5-6.09.44-5.6-.17-11.07.53-16.52,1.79-4.01.92-7.8,2.3-11.46,4.17,1.1.54,1.38,1.54,1.24,2.6-.31,2.36.44,4.24,2.1,5.93,1.16,1.18.71,2.76.43,4.2-.04.22-.34.41.02.61Z"/>
      <path class="cls-2" d="M74.49,64.18c-.85-.52-1.3-1.42-1.98-2.11-2.17-2.19-4.23-4.48-6.5-6.57-1.89-1.74-3.95-3.19-6.2-4.38-3.7-1.96-7.41-3.88-10.89-6.22-2.25-1.51-4.66-2.78-6.86-4.35-1.77-1.26-3.65-2.28-5.6-3.16-1.53-.69-3.15-1.16-4.74-1.73-.55.09-.5-.78-1.06-.67-.29-.14-.49-.42-.46-.68.07-.73-.43-.61-.84-.65.24-.65.81-.45,1.27-.48,1.37-.1,2.77.18,4.11-.32.43.12.51.63.91.8,1.04.97,2.44,1.33,3.61,2.08,3.79,2.42,7.61,4.78,11.4,7.2,4.34,2.78,8.52,5.77,12.57,8.93,2.52,1.97,5.05,3.93,7.38,6.14,1.66,1.58,3.27,3.23,4.96,4.78.32.3.78.56.69,1.14-.15.36.11,1.04-.7.87-.55.12-.57-.63-1.05-.64Z"/>
      <path class="cls-1" d="M119.65,54.84l-.83-.95c2.34,1.05,4.99,1.49,6.75,3.57.65.76,1.05,1.6,1,2.64-.04.97-.02,1.94-.02,2.91,0,1.1.43,1.51,1.56,1.59,1.19.09,2.37-.08,3.53-.26,3.39-.54,6.64-.16,9.74,1.34.26.13.59.23.58.55,0,.3-.3.5-.55.62-2.26,1.13-4.56,1.96-7.05.69-.41-.21-.85-.21-1.27-.11-.7.17-.85.72-.37,1.28.16.19.36.35.52.54.37.43.59.96.39,1.49-.21.55-.8.52-1.29.54-2.42.1-4.76.48-6.85,1.83-.32.21-.72.41-1.09.43-2.73.09-4.43,2.01-6.32,3.56-1,.82-2.04,1.44-3.28,1.76-1.85.48-2.74,1.86-3.35,3.56,1.44-1.36,3.3-1.42,5.06-1.78,1.2-.24,1.64.23,1.29,1.42-.27.93-.66,1.84-1.29,2.59-1.13,1.35-2.08,2.84-2.95,4.35-1.27,2.2-3.19,3.54-5.3,4.73-2.44,1.37-4.87,2.76-7.31,4.12-1.75.98-3.65,1.68-5.38,2.71-.24.14-.78.67-1.01-.13,3.73-2.68,7.97-4.46,11.9-6.78,2.7-1.59,5.3-3.13,6.82-5.99,1.02-1.91,2.51-3.49,3.59-5.35.19-.32.63-.66.35-1.04-.24-.32-.65,0-.98.1-.38.1-.77.18-1.16.24-1.23.19-2.36.56-3.24,1.51-.26.28-.6.59-1.03.28-.37-.26-.23-.64-.13-.98.52-1.83,1.41-3.48,3.34-4.04,2.41-.71,4.13-2.4,5.99-3.88.69-.55,1.36-1.11,2.22-1.24,1.77-.26,3.35-1.01,4.92-1.79,1.18-.58,2.39-.93,3.72-.83.38.03.78-.08,1.17-.15.75-.16.72-.58.33-1.09-.44-.57-1.24-1.02-.55-1.91.68-.88,1.57-1.15,2.67-.7,2.09.84,4.09.87,6.16-.66-2.97-.8-5.7-1.79-8.73-.9-1.52.45-3.15.42-4.69-.05-.91-.28-1.54-.9-1.38-2.02.08-.57,0-1.15.06-1.72.34-3.04-1.49-4.59-3.98-5.67-.75-.33-1.57-.49-2.28-.92Z"/>
      <path class="cls-10" d="M87.04,143.61c-.84-2.88-2.47-5.24-4.8-7.12-.18-.15-.78-.1-.39-.62,1.66-.07,2.44,1.23,3.35,2.23,1.11,1.23,2,2.62,2.56,4.21.81,2.28,2.15,4.12,4.4,5.21.31.15,1.05.17.66.93-.1.19.17.18.29.22,1.78.63,3.08,1.98,4.47,3.13,3.56,2.94,7.63,4.09,12.13,3.68,2.37-.22,4.38-1.48,6.21-3.01,2.41-2,3.92-4.64,5.44-7.29,2.09-3.68,4.19-7.35,6.79-10.71.55-.71,1.21-1.33,2-1.79.22-.13.47-.42.74-.04-1.67,1.73-3.27,3.52-4.45,5.63-1.9,3.39-4.16,6.56-5.9,10.04-1.8,3.62-4.78,5.97-8.47,7.36-2.47.93-5.03.69-7.63.24-3.71-.64-6.51-2.77-9.35-4.96-1.35-1.04-2.56-2.22-4.18-2.93-1.94-.84-3-2.59-3.87-4.44Z"/>
      <path class="cls-1" d="M30.65,35c.09-.47.3-.43.54-.12.19.25.35.53.52.79.27.51.81.68,1.26.98,1.44.95,2.85,1.95,4.32,2.84,1.82,1.09,2.74,2.67,2.84,4.76.04.8.28,1.55.49,2.31.37,1.3,1.13,2.25,2.52,2.51,2.92.54,5.32,2.25,7.95,3.45.67.31,1.06.76.79,1.63-.25.8-.24,1.61.61,2.19.37.25.6.71.89,1.07.63.77,1.37,1.24,2.43,1.41,1.8.29,3.59.71,4.87,2.24.56.67.53,1.08-.23,1.53-.89.52-1.85.65-2.81.5-2.41-.37-4.74-1.07-6.95-2.11-.87-.41-1.67-1-2.18-1.87-1.61-2.72-3.75-4.78-6.89-5.65-.29-.08-.66-.12-.81-.47,3.16.62,5.94,1.88,7.71,4.74,1.63,2.64,4.35,3.34,7.06,4.06,1.1.29,2.21.62,3.38.46.4-.06.89-.12,1.03-.45.17-.42-.35-.64-.62-.88-.99-.86-2.25-1.15-3.48-1.27-1.52-.14-2.54-.93-3.37-2.06-.46-.63-.9-1.18-1.73-1.31-.35-.05-.73-.28-.67-.72.06-.4.43-.25.71-.25.57,0,.41-.5.48-.8.15-.68.08-1.37-.67-1.62-1.97-.65-3.66-1.97-5.7-2.44-.31-.07-.62-.19-.92-.28-3.39-1.03-4.47-2.29-4.71-5.87-.12-1.82-.9-3.11-2.35-4.1-1.3-.89-2.59-1.81-3.92-2.66-1.02-.66-1.89-1.42-2.4-2.54Z"/>
      <path class="cls-12" d="M131.96,131.82c-1.77-1.67-.72-3.52-.27-5.27.24-.92.77-1.77,1.41-2.5.49-.57-.06-.42-.31-.49.06-.56.52-.34.83-.42.5-.12,1.11-.02,1.33-.68.24-.23.65-.31.74-.06.28.75.8.32,1.35.31-.3.5-.56.9-.78,1.32-.12.23-.53.45-.25.71.16.15.58.17.82.08.97-.35.91.08.9.86-.01.68-.02,1.56.98,1.85.38.11.69.48,1.03.74-.05.24-.09.48-.24.69-1.59.53-3.25.8-4.81,1.48-.94.41-1.76,1.06-2.74,1.38Z"/>
      <path class="cls-10" d="M212.74,33.49c-.02.21-.04.42-.06.63-.56-2.45-1.73-4.71-2.27-7.15-.73-3.28-2.14-6.29-3.34-9.39-1.18-3.02-3.21-5.4-5.35-7.7-1.22-1.32-2.69-2.4-4.13-3.52.56.83,1.23,1.59,1.09,2.69-.04.27-.09.41-.38.26-.38-1.3-1.25-2.25-2.34-2.99-1.25-.85-2.23-1.89-2.75-3.33-.26-.71-.73-1.3-1.17-1.91-.22-.3-.4-.68-.06-.96.37-.31.65.05.9.3,2.89,2.88,5.97,5.55,9.02,8.26,2.29,2.03,4.21,4.44,5.49,7.34,1.45,3.28,2.81,6.59,3.48,10.11.48,2.5,1.61,4.82,1.88,7.36Z"/>
      <path class="cls-1" d="M20.94,135.46c.52.34.68.91.85,1.45,1.29,4,3.55,7.36,6.48,10.39,3.6,3.71,7.73,6.61,12.32,8.89,2.73,1.36,5.43,2.77,7.94,4.52,1.8,1.25,3.38,2.76,4.78,4.44.14.17.26.35.1.68-.71-.29-1.29-.79-1.81-1.32-2.23-2.29-4.92-3.93-7.64-5.53-.18-.1-.4-.12-.6-.18-3.85-1.91-7.69-3.9-11.06-6.57-4.96-3.93-9.45-8.3-11.06-14.78-.16-.65-.42-1.29-.31-1.98Z"/>
      <path class="cls-1" d="M39.71,100.45c-.85,1.11-1.71,2.2-2.54,3.32-.62.83-.9,1.78-.91,2.81,0,.39.06.89-.48.94-.53.05-.57-.48-.64-.84-.38-1.92.47-3.55,1.29-5.18.58-1.15,1.17-2.3,1.76-3.44.24-.35.43-.75.72-1.05,1.3-1.39,2.24-3.02,3.13-4.68.5-.93,1.24-1.65,2.12-2.25.85-.57,1.36-1.45,2.1-2.32-.97-.09-1.87-.2-2.77-.25-.94-.05-1.46-.52-1.57-1.44-.1-.83-.07-1.64.24-2.44.45-1.14,1.23-1.84,2.49-1.89,1.01-.04,2.02-.11,3.02-.01,2.23.21,4.17-.39,5.9-1.78.28-.21.55-.42.83-.63-1.11,2.15-2.96,3.21-5.28,3.4-1.43.12-2.88,0-4.31.03-1.41.02-2.62,2.27-1.92,3.49.2.35.53.34.84.35.79.03,1.58,0,2.37.05.63.04,1.27.24,1.48.88.2.61-.51.75-.81,1.11-.89,1.06-2.01,1.82-3.2,2.5-.4.23-.74.6-.89,1.06-.59,1.87-1.8,3.35-3.06,4.76-1.31,1.46-1.35,3.5-2.48,5.05,1.08-1.05,2.1-2.11,3.54-2.71-.32.38-.65.76-.97,1.14Z"/>
      <path class="cls-5" d="M154.88,131.31c-.96.14-2.01.3-2.81-.28-1.98-1.43-4.22-2.59-5.46-4.9-.34-.64-1.07-1.14-1.9-1.31-.32-.07-.86-.16-.78-.58.09-.45.61-.21.93-.23,2.47-.15,4.75.48,6.86,1.76.42.26.91.44,1.38.58.69.2,1.18.62,1.64,1.15.31.35.39,1.42,1.31.51.27-.27.49.28.6.56.19.49.14.86-.52.83-.43.02-.8-.16-1.25-.43-.12.84-.13,1.59-.01,2.34Z"/>
      <path class="cls-1" d="M40.15,53.15c.13.07.39.04.15.32-1.17,1.38-1.06,2.21.41,3.2.92.62,1.66,1.48,2.64,2.04.61.35.66.84-.09,1.18-.55.25-.96.54-.97,1.26,0,.7-.6.92-1.16.75-1.36-.41-2.43-.03-3.42.92-.99.94-2.34,1.05-3.58,1.32-1.55.34-2.23.45-2.24,2.26,0,.74-.43,1.33-1.12,1.73-.93.54-1.84,1.13-2.54,1.97-.37.44-.92.57-1.43.69-2.73.68-5,2.3-7.45,3.56-.49.25-.97.62-1.01,1.54,1.74-1.37,3.67-1.8,5.63-2.13.43-.07.86-.12,1.28-.03.15.03.41.05.39.25-.01.11-.26.2-.4.29-1.23.23-2.47.39-3.68.7-1.44.37-2.49,1.5-3.78,2.18-.21.11-.38.42-.63.24-.21-.15-.13-.45-.04-.7.6-1.63,1.49-2.96,3.2-3.67,1.64-.69,3.1-1.78,4.8-2.36.44-.15.87-.37,1.32-.43.84-.1,1.45-.36,1.8-1.23.32-.8,1.2-1.1,1.88-1.54.53-.35.76-.74.81-1.38.18-2.1.75-2.61,2.81-3,1.47-.28,2.94-.58,4.06-1.76.62-.66,1.5-.97,2.37-.76.86.22,1.33.01,1.7-.74.13-.27.43-.46.66-.7-.88-.83-1.77-1.64-2.65-2.48-1.08-1.04-.96-2.52.26-3.48Z"/>
      <path class="cls-10" d="M80.53,134.36c-1.29.83-2.59,1.67-3.88,2.5-.27.17-.57.29-.63.68-.35,2.47-.85,4.92-1.1,7.41-.19,1.88-.51,3.75-.75,5.62-.13,1.03-.19,2.06-.36,3.08-.03.2.16,1.02-.62.57-.09-5.53.89-10.93,1.83-16.47-4.46,2.86-8.81,3.28-12.83-.79.37-.44.61-.02.9.13,2.02,1.03,4.07,1.91,6.41,1.83.88-.03,1.73-.15,2.47-.61,1.69-1.06,3.57-1.78,5.19-2.97,1.13-.83,2.35-1.57,3.88-1.58-.06.39-.31.48-.51.61Z"/>
      <path class="cls-1" d="M35.83,98.51c.34.67-.22.97-.57,1.29-5.02,4.45-8.71,9.84-11.42,15.95-1.8,4.07-2.48,8.41-3.34,12.72-.06.31.01.64.03.96v2.38c-.61-.58-.64-1.24-.67-1.9-.13-3.16.7-6.17,1.47-9.18,2.24-8.74,7.01-15.88,13.79-21.75.21-.18.48-.31.72-.46Z"/>
      <path class="cls-10" d="M94.01,103.66c-.68-3.25-1.46-6.49-1.36-9.85.05-1.83.29-3.64,1.36-5.22.42-.62.28-1.39.45-2.08.73-3.04,2.04-5.73,4.71-7.58,1.21-.83,2.18-1.86,2.45-3.38.01-.06.18-.09.27-.14-.12,1.51-.79,2.88-1.82,3.83-2.87,2.65-4.21,6.1-5.29,9.65-.66,2.17-1,4.46-.91,6.77.06,1.5.07,3.01.1,4.52-.04,1.16.15,2.3.34,3.43.02.09,0,.19-.01.28-.09-.08-.19-.17-.28-.25Z"/>
      <path class="cls-15" d="M70.01,161.16c.25-.06.46-.35.76-.03,1.33,1.39,2,1.39,3.46.21.75-.6,1.65-.93,2.79-.72-.23.43-.52.52-.83.53-.49.01-.92.22-1.3.47-.44.29-1.09.65-.95,1.18.13.51.88.49,1.39.51,1.32.05,4.35-2.21,4.67-3.49.36-1.44.44-2.92.27-4.38-.23-2.01-.25-4.05-.96-6.01-.48-1.32.78-3.89,2.02-4.7.32-.21.64-.34.94.03-1.06.69-1.65,1.76-2.21,2.84-.43.83-.02,1.62.15,2.4.69,3.14.99,6.3.54,9.5-.18,1.28-.83,2.25-1.96,2.92-1.39.83-2.76,1.66-4.44,1.68-.21,0-.52.07-.61-.04-.96-1.09-2.51-1.1-3.6-1.96-.42-.33-.5-.56-.13-.93Z"/>
      <path class="cls-1" d="M39.71,145.6c.19-.05.23-.44.5-.24.24.17.4.44.3.75-.1.3-.26.58-.43.94,1.44.09,2.85.19,4.26.25.51.02.85-.35,1.17-.68,2.24-2.32,4.3-4.8,6.37-7.27.09-.11.17-.23.22-.37,1.1-2.91,3.72-3.41,6.3-3.93.65-.13,1.37-.07,1.83.59-1.68.27-3.4.33-4.98,1.11-.83.41-1.6.84-1.98,1.7-.81,1.83-2.37,3.1-3.5,4.69-1.05,1.47-2.49,2.66-3.76,3.99-.57.59-1.19.91-2.07.85-1.39-.09-2.79-.02-4.19-.03-.47,0-1.05-.05-1.22-.49-.17-.41.38-.63.68-.86.34-.27.52-.58.52-1Z"/>
      <path class="cls-10" d="M31.29,75.19c-.21-.5.16-.4.43-.42,1.8-.14,3.21.86,4.7,1.6.32.16.62.34.93.52.16.08.33.15.47.25,2.68,1.86,5.51,2.01,8.66,1.25,2.28-.55,4.74-.44,7.01.68-1.2,0-2.4.02-3.6,0-1.83-.04-3.65.07-5.41.61-1.58.49-3.09.12-4.6-.36-1.33-.79-2.68-1.55-3.99-2.37-1.43-.9-3.03-1.3-4.62-1.77Z"/>
      <path class="cls-15" d="M72.56,155.54c.21.05.47.1.28.4-.36.58-.96.92-1.58,1.03-.71.13-.34-.75-.81-.99-.71.63-1.13,1.58-1.73,2.38-.27.36-.02.46.22.65,1.14.89,2.44.62,3.71.54.27-.02.52-.24.89.05-1.17.95-2.53.85-3.85.92-.12-.08-.23-.17-.35-.25q-1.88-1.41-.65-3.38c.49-.78,1.19-1.42,1.51-2.31.13-.35.37-.3.56-.07.13.16.25.37.29.57.21,1.16.79,1.01,1.5.45Z"/>
      <path class="cls-9" d="M57.64,173.25c.3.25.6.49,1.04.86-.22-1.65-.33-3.15-1.34-4.42.81-.34.96.42,1.35.75.75,2.15.99,4.36.68,6.62-.04.28,0,.65-.37.65-.34,0-.28-.36-.31-.59-.14-1.35-.6-2.62-1.06-3.88Z"/>
      <path class="cls-6" d="M164.56,127.46c-.35-.04-.95-.1-.31-.52,1.06-.7.36-1.63.47-2.43.05-.36-.43-.25-.69-.29-1.48-.21-3.01-.27-4.28-1.21-.23-.17-.76-.26-.35-.75,1.72.63,3.47,1.14,5.32,1.11.5,0,.7.23.72.72.04,1.21.48,2.52-.88,3.36Z"/>
      <path class="cls-1" d="M83.35,144.52c-1.33-.36-2.72-.59-3.73-1.68-.15-.16-.3-.31-.44-.47-.12-.14-.19-.33-.06-.49.15-.2.34-.07.47.03,1.86,1.37,4,1.65,6.23,1.55.34-.02.64.09.79.44-.98.73-2.12.66-3.25.62Z"/>
      <path class="cls-15" d="M34.73,32.87c-.3.73-.97.57-1.55.63-1.27.11-2.57-.19-3.83.17-.57-.03-1.4.37-1.63-.31-.22-.67.57-1.03,1.09-1.38.23-.16.47-.31.71-.46.4-.06.68-.59,1.23-.27-.37.76-1.13,1.09-1.94,1.59,2.1.17,4.01-.57,5.91.03Z"/>
      <path class="cls-3" d="M36.95,139.14c.34-.23.42-.08.42.26.01.95-.15,1.83-.64,2.67-.52.89-.35,1.16.66,1.16,1.16,0,2.21-.47,3.26-.91.23-.1.51-.3.68-.05.23.34-.15.51-.36.65-.33.21-.7.35-1.06.52-.09.15-.23.23-.41.22-.87-.04-1.64.56-2.6.27-1.11-.33-1.53-.82-.96-1.88.5-.93.72-1.93,1.02-2.91Z"/>
      <path class="cls-3" d="M157.21,120.57c-.76.27-1.16-.31-1.61-.72-1.36-1.23-2.26-2.83-3.34-4.29-.46-.62-1.14-1.1-1.3-1.92.97.38,1.68,1.08,2.23,1.92,1.18,1.8,2.62,3.38,4.02,5Z"/>
      <path class="cls-11" d="M54.38,168.54c.04-.17.04-.44.13-.49.19-.08.27.15.35.3.69,1.34,1.03,2.8,1.38,4.36.17-.6.07-1.17.43-1.62.61.45.17.99.11,1.5-.29.53-.17,1.56-.85,1.51-.7-.05-.49-1.05-.64-1.63-.35-1.3-.61-2.62-.91-3.93Z"/>
      <path class="cls-6" d="M139.51,128.96c-.16-.31-.27-.61.24-.69.61.25,1.21.36,1.86.09.4-.16,1.01-.17,1.04.38.07,1.23.93,1.02,1.67,1.09.24.02.55-.12.69.13.19.34-.22.47-.34.7-1.08-.23-2.39.18-3.07-1.19-.16-.33-.68-.03-1.01-.11-.38-.09-.73-.26-1.1-.4Z"/>
      <path class="cls-11" d="M34.96,73.47c.2.36,0,.37-.31.43-1.55.36-3.13.08-4.69.23-.84.07-1.68.14-2.52.21-.26-.14-.68.07-.84-.57,2.79-.58,5.59-.29,8.37-.3Z"/>
      <path class="cls-7" d="M159.61,130.48c.86-.34,1.71-.72,2.36-1.39.44-.45.89-.27,1.4-.14.12-.47-.32-.96.16-1.34.48.26.35.82.62,1.17-.12,1.43-.15,1.47-1.37.95-.46-.2-.54.09-.75.32-.73.77-1.8.95-2.43.44Z"/>
      <path class="cls-9" d="M151.99,135.19c1.57-.38,2.83-1.27,3.88-2.44.45-.5-.51-.19-.4-.68.14-.17.47.02.7-.11h0c.57.25.61.63.33,1.16-.19.36-.49.59-.78.84-.87.54-1.73,1.09-2.6,1.61-.27.16-.58.27-.88.33-.26.06-.64.16-.75-.15-.12-.34.3-.4.51-.56Z"/>
      <path class="cls-11" d="M39.5,143.66c.08-.17.24-.21.41-.22.92,1.48,2.17,1.43,3.67.53-.61,1.42-1.6,1.82-2.63,1.22-.42-.25-.79-.59-1.19-.89-.12-.2-.32-.36-.26-.63Z"/>
      <path class="cls-11" d="M149.4,132.48c.22-.65.74-.6.84-.1.14.74.62.76,1.11.88.21.05.5.04.53.27.05.31-.45.13-.49.43-.35,0-.7,0-1.05-.03-.97-.09-1.21-.47-.94-1.46Z"/>
      <path class="cls-4" d="M155.72,133.95c.19-.25.37-.51.57-.76.35-.45.41-.87-.12-1.24.71.16.89.73.4,1.42-.2.28-.46.54-.84.58Z"/>
      <path class="cls-1" d="M142.1,111.88c.04.68-.18.8-.7.34-.82-.71-1.36-1.66-2.21-2.36-.89-.73-1.88-1.14-2.97-1.43-1-.27-1.97-.65-2.97-.92-.22-.06-.22-.11-.29-.29-.53-1.25-1.01-2.51-1.25-3.86-.34-1.93-.79-2.16-2.71-1.91-1.84.24-3.62.93-5.53.82,1.42.58,2.86,1.02,4.4,1.01,2.03,0,1.87-.23,2.32,1.59.71,2.9,2.17,5.07,4.93,6.36.9.42,1.44,1.27,1.71,2.26.21.76.47,1.22,1.5.9,1.11-.34,2.28-.08,3.34.46.27.14.67.35.55.7-.13.37-.56.2-.85.15-1.05-.17-2.08-.46-3.5-.27,1.56.58,1.69,2.01,2.55,2.89.06.07.11.19.1.28-.03.22-1.74.76-1.91.62-.23-.19-.43-.42-.36-.74.09-.39.43-.3.71-.32.2-.02.41-.03.78-.06-1.03-1.93-2.53-3.14-4.42-3.82-1.94-.7-3.87-.04-5.96.32,1.13.67,2.02,1.28,3.34.73,1.46-.61,3.24.5,3.53,2.06.05.24.14.53-.14.67-.31.15-.44-.14-.57-.35-1.24-1.89-1.23-1.86-3.42-1.39-1.04.22-1.86-.41-2.62-1.03-.39-.32-.65-.66-1.28-.41-.77.3-1-.44-1.3-1.1-.61,1.13-1.49,1.88-2.22,2.76-.85,1.03-2.24,1.46-3.55,1.82-.47.13-.86-.18-.99-.64-.3-1.04-.59-.44-.95-.04-.96,1.07-1.71,2.28-2.38,3.56-.65,1.25-1.49,1.51-2.94,1.06,1.94.4,2.14-1.25,2.71-2.38.39-.78.75-1.56.78-2.52.05-1.15.82-2.12,1.44-3.09,1.83-2.85,4.02-5.4,6.57-7.64-1.97,3.83-5.3,6.74-7.28,10.76.71-.26.87-.83,1.23-1.18.23-.22.42-.53.81-.42.34.1.35.4.42.68.39,1.48.32,1.25,1.76.74,1.9-.68,2.33-2.29,3.06-3.77.77-1.56,2.15-2.58,3.33-3.78.31-.32.4.02.47.27.31.53-.08.87-.35,1.23-.23.32-.56.56-.79.88-.29.41-.18.82,0,1.22.2.43.58.33.93.29.72-.08,1.41-.26,2.09-.49,1.43-.48,2.88-.49,4.47-.25-.81-.71-1.63-1.23-2.47-1.73-.75-.44-1.44-.95-2-1.61-.26-.3-.53-.6-.4-1.05-.58-1.32-.91-2.71-1.24-4.1-.16-.66-.38-.6-.93-.6-2.16,0-4.25-.32-6.03-1.69-.16-.12-.37-.27-.25-.53.08-.18.28-.23.46-.22,2.36.25,4.61-.57,6.94-.66,1.74-.07,2.19.42,2.55,2.23.21,1.04.64,1.97,1,2.94.27.73.62.72,1.16.17,1.49-1.53,3.19-2.79,5.19-3.59.31-.12.74-.55.89.18-.25.73-.93.97-1.53,1.27-1.5.74-2.76,1.78-4.09,3.04,3.3.53,5.89,1.93,7.34,4.96Z"/>
      <path class="cls-1" d="M135.23,53.77c2.73-.42,5.28.32,7.88.86,3.11.64,6.27,1.03,9.41,1.56,2.97.5,5.75,1.61,8.31,3.15,2.26,1.37,3.85,3.51,5.44,5.6,1.31,1.72,2.54,3.47,3.21,5.56.16.5.47.93.88,1.41-.73.04-.92-.41-1.13-.81-1.69-3.32-3.88-6.26-6.4-9-2.45-2.67-5.66-4.02-9.01-4.75-5.96-1.3-12.07-1.89-17.97-3.53-.19-.05-.41-.03-.61-.04Z"/>
      <path class="cls-1" d="M175.71,73.02c-1.24-.23-1.6-1.01-1.96-1.73-.84-1.67-1.66-3.35-2.41-5.06-1.83-4.21-4.87-7.32-8.76-9.63-3-1.78-6.12-3.29-9.6-3.97-1.77-.34-3.56-.31-5.33-.56-1.22-.17-2.44-.35-3.64-.64.79-.41,1.56,0,2.34.02,2.47.04,4.94.13,7.38.61,4.56.91,8.53,3.09,12.23,5.82,3.68,2.71,5.71,6.57,7.44,10.63.63,1.48,1.35,2.92,2.32,4.5Z"/>
      <path class="cls-1" d="M174.06,74.16c-2.51.3-5,.31-7.47-.25-1.13-.26-2.19-.68-3.19-1.26-1.05-.61-2.22-.83-3.4-.9-2.94-.18-5.85.26-8.78.54-3.2.31-6.38.96-9.62.72-.56-.04-1.11-.18-1.66-.35,3.93.13,7.74-.78,11.6-1.2,1.99-.22,3.98-.39,5.97-.55,2.26-.18,4.52.05,6.55,1.23,1.96,1.14,4.15,1.24,6.31,1.52,1.22.16,2.45.32,3.67.48Z"/>
      <path class="cls-1" d="M160.2,76.77c-12.19-.93-24.27-.12-36.22,2.55,11.88-3.43,23.94-4.32,36.22-2.55Z"/>
      <path class="cls-15" d="M204.88,22c2.2,4.19,2.93,8.75,3.07,13.39.2,7.05-2.34,13.29-6.1,19.11.29-1.58,1.07-2.99,1.77-4.41,1.69-3.43,3.09-6.95,3.45-10.79.28-2.96.21-5.92-.26-8.88-.46-2.85-1.13-5.65-1.92-8.42Z"/>
      <path class="cls-10" d="M110.77,124.64c-2.06.09-3.27-1.31-4.42-2.65-2-2.34-3.84-4.81-5.42-7.46-.46-.78-1.09-1.42-1.79-1.98-.66-1.29-1.98-2.02-2.72-3.24.95.61,1.66,1.5,2.54,2.2,3.07,2.44,5.47,5.49,7.75,8.65,1.02,1.41,2.09,2.83,3.69,3.68.33.18.42.46.37.82Z"/>
      <path class="cls-11" d="M159.43,87.43c-1.83.2-3.29-.25-4.78-.41-2.4-.26-4.79-.22-7.19-.02-2.28.2-4.57.36-6.79.92-4.65,1.18-9.27,2.51-13.68,4.43-3.03,1.32-5.15,3.57-6.57,6.52-.2.41-.41.82-.78.96,1.71-5.13,5.7-7.69,10.63-9.34,4.25-1.42,8.51-2.81,12.93-3.56,2.99-.5,6.04-.88,9.09-.71,2.31.13,4.59.6,7.15,1.2Z"/>
      <path class="cls-10" d="M151.24,92.64c-1.3.7-2.75.59-4.1.62-3.51.1-6.72,1.18-9.96,2.38-2.58.96-5.01,2.09-7.12,3.87-.12.1-.21.22-.33.08-.08-.1-.16-.3-.11-.38.13-.25.29-.5.51-.67,1.2-.96,2.37-1.98,3.83-2.54,3.11-1.18,6.13-2.64,9.44-3.18,2.59-.42,5.21-.67,7.84-.17Z"/>
      <path class="cls-15" d="M119.92,100.63c-2.59,4.19-6.08,7.6-9.25,11.28-.14.16-.3.31-.46.45-.2.18-.4.5-.72.26-.39-.29-.07-.59.08-.84.75-1.28,2.04-2.1,2.86-3.34.37-.56.84-1.07,1.23-1.63,1.7-2.46,4.36-3.94,6.26-6.18Z"/>
      <path class="cls-2" d="M77.27,107.37c-1.39-2.08-2.78-4.15-3.72-6.48-1-2.5-1.18-5.03.08-7.46.57-1.1,1.99-1.47,2.74-2.5.17-.23.41-.41.73-.38,0,.73-.56,1.13-.96,1.61-.36.44-.8.83-1.12,1.31-1.35,2-1.06,3.78.37,5.73,2.38,3.23,5.78,4.98,9.13,6.84,2.46,1.37,4.74,2.98,6.78,4.92,1.14,1.09,2.41,2.05,3.59,3.09,2.28,2,4.18,4.34,6.25,6.53,1.25,1.33,1.6,2.8.84,4.54-.65,1.48-1.66,2.77-2.19,4.31-.47,1.38-.83,2.75-.46,4.22.06.25.1.53.46.28.46.44,0,.86-.01,1.29-.36.42-.9.57-1.34.88-.47.34-.66.74-.06,1.08.76.44.64.84.04,1.28-.33.24-.5.61-.8.87-.34-.05-.42.33-.69.4-.48-.72-1.16-1.11-1.97-1.41-1.45-.54-2.87-1.14-4.29-1.74-.36-.15-.8-.32-.84-.76-.04-.5.41-.71.78-.93.19-.11.38-.2.59-.27.69-.23.79-.6.37-1.21-.24-.35-.67-.83-.17-1.24.5-.4,1.02-.13,1.45.26.43.39.72.9,1.17,1.27.57.47,1.12.47,1.62-.08.5-.55.3-1.03-.21-1.48-.87-.76-1.88-1.33-2.75-2.08.12-.65.39-1.31-.02-1.96-.52-2.2-1.87-3.91-3.26-5.62-3.34-4.13-6.89-8.09-10.16-12.28-.71-.91-1.24-1.93-1.94-2.85Z"/>
      <path class="cls-10" d="M99.79,133.93c-.05.27.05.6-.38.73-.58-1.09-.66-2.26-.42-3.42.32-1.51.85-2.96,1.75-4.25.12-.18.22-.37.32-.56,1.66-3.09,1.46-4.01-.92-6.55-1.81-1.93-3.54-3.94-5.52-5.71-3.88-3.47-7.78-6.86-12.52-9.18-2.89-1.41-5.35-3.41-7.27-6.05-1.45-1.99-1.29-4.39.52-6.37.6-.66,1.17-1.35,1.76-2.03,1.16-1.05,2.32-2.09,3.47-3.15.34-.31.69-.64.61-1.18,0-2.19-.77-3.95-2.76-5.1-1.74-1-3.42-2.07-5.42-2.53-.81-.19-1.67.09-2.42-.37-.4-.98.43-1.15.98-1.24,1.63-.24,3.28-.36,4.92-.49,1.96-.15,3.75.42,5.4,1.46.68.43,1.41.78,2.29,1.25-.48-1.58-1.22-2.74-2.07-3.85-.11-.14-.28-.25-.36-.4-.2-.36-.64-.72-.34-1.15.31-.46.81-.16,1.18-.02.66.25,1.29.59,2.08.97-.96-2.03-2.27-3.59-3.57-5.2-1.56-1.93-3.25-3.73-4.88-5.6-.55-.81-1.34-1.4-2.02-2.08-4.8-4.85-10.12-9.08-15.61-13.11-5.38-3.95-11.02-7.49-16.71-10.96-1.93-1.18-3.8-2.43-5.83-3.43-.23-.11-.68-.21-.43-.68,2.16.73,4.03,1.98,5.97,3.15,2.3,1.4,4.55,2.88,6.81,4.32,4.75,3.04,9.39,6.23,13.9,9.62,3.42,2.57,6.73,5.27,9.82,8.22,3.19,3.05,6.2,6.27,9.04,9.67,1.66,2,3.07,4.15,4.58,6.24.04.06.09.12.12.18.15.42.75.85.39,1.24-.43.46-.92-.07-1.32-.34-.67-.44-1.26-1.03-2.35-1.25.91,1.35,1.64,2.56,2.24,3.84.12.26.29.5.38.77.12.38.22.81-.17,1.09-.33.24-.59-.08-.87-.22-1.93-1.02-3.75-2.25-5.94-2.73-1.59-.35-3.08.2-4.62.37,2.14.48,3.93,1.65,5.68,2.82,2.02,1.35,2.93,3.37,2.8,5.83-.04.81-.57,1.31-1.1,1.78-1.64,1.46-3.2,2.99-4.69,4.6-1.7,1.83-2.09,3.73-.38,6.03,2.29,3.07,5.51,4.71,8.68,6.51,2.69,1.53,5.23,3.25,7.48,5.39,1.67,1.58,3.52,2.96,5.15,4.57,1.65,1.64,3.21,3.39,4.64,5.23,1.57,2.02.77,4.08-.32,6.03-.44.78-.95,1.51-1.28,2.36-.63,1.61-.93,3.23-.46,4.94Z"/>
      <path class="cls-10" d="M71.91,112.98c-.87-.55-1.13-1.55-1.68-2.34-.69-.99-1.42-1.86-2.54-2.39-.89-.42-1.45-1.27-2.12-1.96-.64-.67-1.39-1.08-2.25-1.41-2.6-.98-5.28-1.47-8.05-1.65-1.16-.08-2.28-.58-3.43-.81-2.45-.5-4.94-.13-7.41-.23-1.42-.06-2.57-.58-3.2-1.95.25-.29.43-.11.61.09.73.81,1.69,1.02,2.73,1.02,1.01,0,2.01,0,3.02-.04,2.2-.09,4.34.16,6.47.77,2.2.63,4.59.2,6.77.98,1.96.7,4.19.88,5.63,2.66.77.96,1.62,1.78,2.66,2.47,1.17.77,1.64,2.14,2.37,3.28.34.37.51.79.43,1.3-.01.07-.01.14,0,.21Z"/>
      <path class="cls-1" d="M77.27,107.37c1.2.91,1.75,2.33,2.7,3.44,2.22,2.62,4.49,5.21,6.6,7.92,1.98,2.53,4.46,4.7,5.77,7.72.22.51.76,1.02.3,1.67-1.17-1.01-1.66-2.5-2.63-3.65-3.44-4.09-6.86-8.21-10.22-12.37-1.13-1.4-1.98-2.99-2.51-4.73Z"/>
      <path class="cls-10" d="M46.14,94.68c1.57-1.34,3.14-2.69,4.97-3.69.92-.5,1.78-1.07,2.58-1.76,1.18-1.02,2.51-1.77,4.02-2.21,2.4-.71,4.69-1.79,7.18-2.2,1.88-.3,3.78-.4,5.7-.2-2.01.38-4.04.68-6.03,1.15-2.76.65-5.4,1.68-8.06,2.65-.27.1-.54.23-.75.42-2.3,2.04-5.22,3.16-7.58,5.1-.57.47-1.26.64-2.03.73Z"/>
      <path class="cls-1" d="M92.66,130.07c1.43.39,2.42,1.42,3.44,2.39.45.43.11.93-.21,1.34-.39.5-.89.72-1.51.46-.55-.23-.95-.65-1.26-1.14-.22-.34-.44-.67-.8-.85-.29-.14-.66-.2-.9.08-.19.23.04.45.17.67.79,1.32.78,1.32-.59,1.96-.13.06-.26.12-.38.19-.28.15-.68.25-.66.62.02.31.41.38.66.48,1.62.66,3.25,1.31,4.88,1.96.7.28,1.46.51,1.42,1.49-2.02-.52-3.87-1.48-5.81-2.21-.6-.23-1.21-.48-1.75-.82-.87-.54-.82-1.19.08-1.72.19-.11.38-.22.58-.27,1.06-.24,1.77-.56,1.01-1.88-.37-.63.42-1.23,1.24-.99.62.18.98.7,1.41,1.13.38.38.82,1.09,1.39.41.5-.59-.32-.81-.62-1.12-.32-.33-.75-.55-1.13-.82-.47-.34-.78-.75-.67-1.37Z"/>
      <path class="cls-1" d="M75.02,133.45c1.52-2.53,3.34-4.77,4.13-7.6,1.2,1.94-1.64,7.25-4.13,7.6Z"/>
      <path class="cls-11" d="M134.96,122.46c.57.14.39.29.05.56-.67.52-1.53.13-2.2.53-.39.03-.77.01-1.17.13-.7.21-.83-.19-.66-.77.52-1.78,3.4-3.85,5.39-3.81-.73.85-1.76,1.13-2.59,1.69-.84.57-1.52,1.29-2,2.28,1.13-.15,2.19-.17,3.18-.61Z"/>
      <path class="cls-1" d="M64.5,136.92c-.67-.16-.94-.61-.99-1.11-.24-2.5.28-5.38,3.21-7.15-2.23,3.33-2.58,4.61-2.23,8.26Z"/>
      <path class="cls-9" d="M148.48,115.79c.92-.31,1.6.04,1.92.71.81,1.71,1.68,3.42,1.67,5.39,0,.57.06,1.22-.69,1.38-.48.1-1.87-1-1.9-1.44-.02-.44.25-.37.49-.23.49.28.97.58,1.61.96-.22-1.51-.58-2.83-.94-4.15-.32-1.17-.39-2.51-2.15-2.62Z"/>
      <path class="cls-11" d="M146.29,121.76c-1.06-.63-1.96-1.12-2.82-1.68-.63-.41-.73-.98-.13-1.51.37-.32.48-.59.33-1.1-.15-.51-.35-1.22.28-1.56.72-.38,1.38.04,1.99.43.18.11.34.32.21.54-.1.19-.31.11-.48.06-.24-.07-.48-.13-.73-.18-.14-.03-.37-.1-.4-.05-.46.69-.22,1.62-.86,2.31-.27.3.36.5.64.67.77.48,1.69.79,1.96,2.06Z"/>
      <path class="cls-3" d="M97.62,139.33c-.16-.92.83-.97,1.2-1.57-.28-.16-.54-.3-.79-.46-.58-.37-.57-.86-.06-1.21.55-.38,1.09-.84,1.81-.87.22.22.03.46-.08.55-.58.47-.61.92-.16,1.5.2.26.16.6-.05.9-.28.42-.93.69-.44,1.4.13.19-.23.41-.51.28-.32-.15-.62-.35-.92-.53Z"/>
      <path class="cls-13" d="M147.86,118.6c.83,0,1.59-.12,1.83.85.11.45.35.94,0,1.32-.35.37-.88.23-1.32.17-.3-.04-.58-.25-.87-.39-.58-.29-1.33-.6-1.16-1.33.18-.77,1.03-.55,1.53-.61Z"/>
      <path class="cls-8" d="M141.82,123.46c-.53,1.05-.1,1.71,1.14,1.84.14.01.39-.02.41.04.24.6.3,1.31,1.24,1.32.09,0-.31.55-.61.71-.34.18-.73.42-1.01-.1-.05-.09-.05-.21-.06-.31-.06-.38.2-1.06-.09-1.1-.68-.1-1.05-.76-1.73-.79-.33-.01-.81.2-.91-.3-.08-.41.26-.73.55-.99.29-.27.61-.49,1.06-.32Z"/>
      <path class="cls-6" d="M80.01,129.05c2.93.74,3.51,1.66,3.27,4.93-.65-.13-.7-.74-.74-1.14-.13-1.5-.67-2.68-2.12-3.32-.11-.05-.18-.2-.42-.47Z"/>
      <path class="cls-15" d="M159.99,126.84c-.07.51-.3.84-.78.47-.62-.48-1.23-.99-1.62-1.7-.18-.33-.27-.7.04-.99.35-.33.76-.22,1.08.05.68.57.97,1.4,1.28,2.18Z"/>
      <path class="cls-6" d="M102.39,142.49c.17-.04.21-.07.23-.06.59.25,1.25.79,1.76.67.75-.17.1-1.15.49-1.67.14-.2.24-.43.53-.94.26,1.29.33,2.27.02,3.25-.15.49-.65.43-1.02.31-.83-.26-1.58-.65-2.01-1.56Z"/>
      <path class="cls-9" d="M99.71,141c.67.91-.37,1.8.37,2.51.48-.08.58-.73,1.16-.77.1.63-.15,1.13-.63,1.47-.31.22-.72.2-1.01-.05-.48-.43-.54-.97-.32-1.57.16-.46.26-.95.43-1.59Z"/>
      <path class="cls-2" d="M71.91,112.77c-.14-.43-.29-.87-.43-1.3.8.22.68.74.43,1.3Z"/>
      <path class="cls-10" d="M79.19,74.04c-3.84-.23-7.69.09-11.5-.59-.56-.1-1.13-.23-1.66-.45-3.17-1.27-6.49-1.7-9.87-1.94-6.84-.49-13.68-.87-20.54-.83-1.25,0-2.51.09-3.75.28-.88.13-1.7.09-2.79-.25,2.05-.25,3.84-.47,5.65-.68,4.7-.55,9.41,0,14.1.07,4.54.07,9.11.28,13.57,1.24,1.78.38,3.48,1.12,5.26,1.51,1.67.37,3.38.58,5.11.64,2.17.08,4.33.3,6.42,1Z"/>
      <path class="cls-1" d="M69.53,77.79c-3.08-.05-5.97-1.09-8.91-1.82-2.65-.65-5.36-.8-8.04-1.22-4.11-.63-8.28-.5-12.39-1.05-1.15-.15-2.33-.12-3.47-.45.55-.18,1.12-.24,1.7-.22,4.8.2,9.59.59,14.38.97,5.66.45,10.99,2.29,16.49,3.37.19.04.46.09.25.41Z"/>
      <path class="cls-1" d="M74.49,64.18c.04-.27.14-.41.38-.15.24.25.45.53.67.79,1.14,2.25,2.46,4.35,4.38,6.04.62.55,1.06,1.26,1.02,2.23-2.83-2.55-5.6-5.03-6.45-8.92Z"/>
      <path class="cls-14" d="M147.05,119.57c.62.05,1.39-.45,1.81.42.08.16.15.45-.04.45-.7.01-1.27-.35-1.77-.87Z"/>
    </g>
  </g>
</svg>