<svg width="17" height="17" viewBox="0 0 17 17" fill="none" xmlns="http://www.w3.org/2000/svg">
<path d="M12.4395 9.3231H4.56053C4.12046 9.3231 3.76514 8.96778 3.76514 8.5277V8.47554C3.76514 8.03547 4.12046 7.68015 4.56053 7.68015H12.4363C12.8764 7.68015 13.2317 8.03547 13.2317 8.47554V8.5277C13.2349 8.96452 12.8764 9.3231 12.4395 9.3231Z" fill="#30303C"/>
<path d="M9.32313 4.56049V12.4362C9.32313 12.8763 8.96455 13.2349 8.52773 13.2349H8.47557C8.0355 13.2349 7.68018 12.8796 7.68018 12.4395V4.56049C7.68018 4.12041 8.0355 3.76509 8.47557 3.76509H8.52773C8.96455 3.76509 9.32313 4.12367 9.32313 4.56049Z" fill="#30303C"/>
<path d="M8.50164 0.560684C4.11718 0.560684 0.563965 4.1139 0.563965 8.49836C0.563965 12.8828 4.11718 16.436 8.50164 16.436C12.8861 16.436 16.4393 12.8828 16.4393 8.49836C16.4393 4.1139 12.8829 0.560684 8.50164 0.560684ZM8.50164 15.3864C4.69743 15.3864 1.61363 12.3026 1.61363 8.49836C1.61363 4.69415 4.69743 1.61361 8.50164 1.61361C12.3059 1.61361 15.3864 4.69741 15.3864 8.50162C15.3864 12.3058 12.3026 15.3864 8.50164 15.3864Z" fill="#30303C"/>
</svg>
