<svg width="150" height="150" viewBox="0 0 150 150" fill="none" xmlns="http://www.w3.org/2000/svg">
<g clip-path="url(#clip0_239_8)">
<path d="M63.1349 4.65821C62.3439 5.03907 55.1369 12.041 40.5763 26.6309L19.1896 48.0469H11.8654C7.82241 48.0469 4.07241 48.1934 3.45718 48.3398C2.13882 48.7207 0.381008 50.5957 0.146633 51.9141C0.058742 52.4414 0.000148285 55.459 0.058742 58.623C0.146633 64.1895 0.17593 64.3945 0.879055 65.4199C1.28921 66.0352 2.13882 66.7676 2.81265 67.0898C3.98452 67.6758 4.62906 67.6758 75.3517 67.6172L146.66 67.5293L147.744 66.7969C149.766 65.4492 150 64.4824 150 57.9199C150 54.5801 149.883 51.8555 149.678 51.3574C149.238 50.127 147.686 48.6621 146.485 48.3398C145.928 48.1934 142.149 48.0469 138.135 48.0469H130.811L109.424 26.6309C94.8634 12.041 87.6564 5.03907 86.8654 4.65821C85.3712 3.98438 84.258 3.95508 82.7345 4.65821C80.6544 5.59571 79.6584 7.67578 80.0978 10.166C80.3029 11.1621 82.3244 13.3008 98.672 29.6484L117.041 48.0469H75.0002H32.9591L51.3283 29.6484C67.6759 13.3008 69.6974 11.1621 69.9025 10.166C70.3419 7.67578 69.3459 5.59571 67.2658 4.65821C65.7423 3.95508 64.6291 3.98438 63.1349 4.65821Z" fill="#30303C"/>
<path d="M10.6641 78.1348C10.752 78.6035 13.0664 92.4609 15.8203 108.955C19.0137 128.027 21.0352 139.424 21.3574 140.215C22.1484 142.002 24.0234 143.906 25.9863 144.902L27.6855 145.752H75.7324H123.779L125.42 144.932C127.295 144.023 129.141 142.207 130.107 140.303C130.635 139.277 131.514 133.682 135.088 108.574C137.49 91.8164 139.453 77.9297 139.453 77.7246C139.453 77.4023 127.852 77.3438 74.9707 77.3438H10.4883L10.6641 78.1348ZM47.959 87.8027C48.5156 88.0664 49.3359 88.7988 49.7461 89.4434L50.5371 90.6445V106.787V122.93L49.7461 124.131C47.7246 127.207 43.2129 127.002 41.3965 123.779L40.7227 122.607V106.787V90.9668L41.3965 89.7949C42.7148 87.4512 45.4688 86.6309 47.959 87.8027ZM77.9004 88.1836C78.4277 88.5352 79.1309 89.3848 79.4238 90.0586C79.9219 91.1719 79.9805 92.2559 79.9805 106.787C79.9805 121.318 79.9219 122.402 79.4238 123.516C78.5742 125.361 77.3145 126.123 75 126.123C72.6855 126.123 71.4258 125.361 70.5762 123.516C70.0781 122.402 70.0195 121.318 70.0195 106.787C70.0195 92.2559 70.0781 91.1719 70.5762 90.0586C71.0742 88.9746 72.1289 87.9492 73.2422 87.5098C74.2383 87.0996 76.9336 87.4805 77.9004 88.1836ZM107.168 88.0664C107.607 88.3887 108.252 89.2383 108.633 89.9414L109.277 91.2305V106.934V122.607L108.604 123.779C107.666 125.42 106.289 126.27 104.531 126.27C102.598 126.27 101.191 125.566 100.254 124.131L99.4629 122.93V106.787V90.6445L100.225 89.4727C100.664 88.7988 101.455 88.0664 101.982 87.7734C103.301 87.1289 106.055 87.2754 107.168 88.0664Z" fill="#30303C"/>
</g>
<defs>
<clipPath id="clip0_239_8">
<rect width="150" height="150" fill="white"/>
</clipPath>
</defs>
</svg>
