<svg width="118" height="115" viewBox="0 0 118 115" fill="none" xmlns="http://www.w3.org/2000/svg">
<rect width="118" height="115" fill="#30303C"/>
<path d="M52.625 30.0117L46.5547 33.0352L59.5391 39.4922L72.5352 45.9609L78.7461 42.8437L84.957 39.7383L72.2422 33.4219C65.2461 29.9414 59.3398 27.0703 59.1172 27.0352C58.7539 26.9883 57.9336 27.3633 52.625 30.0117Z" fill="#FEFAD4"/>
<path d="M38.4336 37.0781L33.043 39.75L46.0273 46.207L59 52.6641L64.3906 50.0039C67.3555 48.5508 69.7812 47.3203 69.7812 47.2852C69.7812 47.2148 43.9883 34.3711 43.8828 34.3945C43.8477 34.3945 41.3984 35.6016 38.4336 37.0781Z" fill="#FEFAD4"/>
<path d="M31.7188 57.6914C31.7539 73.418 31.7539 73.6289 31.9883 73.9336C32.1523 74.1562 35.8086 76.0312 45.0312 80.6133L57.8281 86.9766V70.8398V54.6914L44.832 48.2344C37.6719 44.6719 31.8008 41.7656 31.7539 41.7656C31.7188 41.7656 31.707 48.9375 31.7188 57.6914Z" fill="#FEFAD4"/>
<path d="M73.1562 48.2461L60.1719 54.7031V70.8398V86.9883L72.9688 80.6367C82.5664 75.8672 85.8125 74.2031 86 73.957L86.2461 73.6289L86.2812 57.6914C86.293 48.9375 86.2695 41.7656 86.2227 41.7773C86.1641 41.7773 80.293 44.6953 73.1562 48.2461Z" fill="#FEFAD4"/>
</svg>
