<svg width="118" height="115" viewBox="0 0 118 115" fill="none" xmlns="http://www.w3.org/2000/svg">
<rect width="118" height="115" fill="#FEFAD4"/>
<path d="M55.7227 26.1172C48.1289 26.5742 41.543 28.2617 37.8516 30.6992C36.9258 31.3203 35.6133 32.5508 35.1328 33.2422C34.4531 34.2266 34.2188 35.0469 34.2188 36.4414V37.6953L34.8867 38.2344C36.7969 39.7695 41.2266 41.3867 45.9375 42.2773C50.5781 43.168 53.5312 43.4023 60 43.4023C65.7188 43.4023 67.3711 43.2969 71.1914 42.7578C77.4023 41.8555 82.4648 40.2266 84.9961 38.3164L85.7812 37.707V36.4531C85.7812 35.3984 85.7344 35.0703 85.5 34.4727C83.8359 30.2188 76.582 27.1602 65.918 26.2344C63.9609 26.0586 57.8438 26 55.7227 26.1172Z" fill="#30303C"/>
<path d="M34.2188 46.2148V51.0781L34.8164 51.5469C36.3047 52.7188 38.6602 53.7852 41.6719 54.6523C51.0938 57.3711 65.1914 57.6523 75.5859 55.3555C79.9805 54.3711 83.2383 53.082 85.1836 51.5469L85.7812 51.0781V46.2148V41.3633L84.9961 41.8438C81.9258 43.707 76.3477 45.2656 69.9609 46.0273C66.9375 46.3906 65.2383 46.5078 61.6406 46.5898C50.8125 46.8242 40.0312 44.9023 35.0156 41.8438L34.2188 41.3633V46.2148Z" fill="#30303C"/>
<path d="M34.2188 59.7266V64.5078L34.6055 64.8711C36.8438 66.9805 43.0078 68.9609 50.0156 69.8164C53.5781 70.2617 55.2891 70.3555 60.0586 70.3555C64.8047 70.3555 66.3516 70.2734 69.9844 69.8164C77.0039 68.9609 83.1445 66.9805 85.4062 64.8711L85.7812 64.5078V59.7266C85.7812 57.1016 85.7461 54.9453 85.7109 54.9453C85.6758 54.9453 85.5 55.0391 85.3359 55.168C84.7031 55.6133 82.6289 56.5742 81.1523 57.1133C77.4375 58.4609 73.3945 59.2812 67.793 59.832C65.1211 60.0898 55.5117 60.1367 52.9102 59.8906C44.7656 59.1406 38.3906 57.5 34.7812 55.2266C34.5469 55.0742 34.3125 54.9453 34.2773 54.9453C34.2422 54.9453 34.2188 57.1016 34.2188 59.7266Z" fill="#30303C"/>
<path d="M34.2422 72.7227L34.2773 77.1641L34.7344 78.0781C36.6211 81.9102 43.6406 84.7109 53.9062 85.7188C56.7656 86.0117 63.2344 86.0117 66.0938 85.7305C76.3359 84.7109 83.3789 81.9102 85.2656 78.0898L85.7227 77.1641L85.7578 72.7227L85.793 68.2695L85.4883 68.4688C81.3984 71.1523 74.5547 72.8867 65.8008 73.4727C63.3633 73.625 56.6016 73.625 54.1992 73.4609C45.4336 72.875 38.5781 71.1289 34.5234 68.4805L34.207 68.2695L34.2422 72.7227Z" fill="#30303C"/>
</svg>
