<svg width="118" height="115" viewBox="0 0 118 115" fill="none" xmlns="http://www.w3.org/2000/svg">
<rect width="118" height="115" fill="#FEFAD4"/>
<g clip-path="url(#clip0_157_90)">
<path d="M54.2539 28.8633C53.9375 29.0156 51.0547 31.8164 45.2304 37.6524L36.6758 46.2188H33.7461C32.1289 46.2188 30.6289 46.2774 30.3828 46.3359C29.8554 46.4883 29.1523 47.2383 29.0586 47.7656C29.0234 47.9766 29 49.1836 29.0234 50.4492C29.0586 52.6758 29.0703 52.7578 29.3515 53.168C29.5156 53.4141 29.8554 53.707 30.125 53.8359C30.5937 54.0703 30.8515 54.0703 59.1406 54.0469L87.664 54.0117L88.0976 53.7188C88.9062 53.1797 89 52.793 89 50.168C89 48.832 88.9531 47.7422 88.8711 47.543C88.6953 47.0508 88.0742 46.4649 87.5937 46.3359C87.3711 46.2774 85.8594 46.2188 84.2539 46.2188H81.3242L72.7695 37.6524C66.9453 31.8164 64.0625 29.0156 63.7461 28.8633C63.1484 28.5938 62.7031 28.582 62.0937 28.8633C61.2617 29.2383 60.8633 30.0703 61.039 31.0664C61.1211 31.4649 61.9297 32.3203 68.4687 38.8594L75.8164 46.2188H59H42.1836L49.5312 38.8594C56.0703 32.3203 56.8789 31.4649 56.9609 31.0664C57.1367 30.0703 56.7383 29.2383 55.9062 28.8633C55.2969 28.582 54.8515 28.5938 54.2539 28.8633Z" fill="#30303C"/>
<path d="M33.2656 58.2539C33.3008 58.4414 34.2266 63.9844 35.3281 70.582C36.6055 78.2109 37.4141 82.7695 37.543 83.0859C37.8594 83.8008 38.6094 84.5625 39.3945 84.9609L40.0742 85.3008H59.293H78.5117L79.168 84.9727C79.918 84.6094 80.6562 83.8828 81.043 83.1211C81.2539 82.7109 81.6055 80.4727 83.0352 70.4297C83.9961 63.7266 84.7812 58.1719 84.7812 58.0898C84.7812 57.9609 80.1406 57.9375 58.9883 57.9375H33.1953L33.2656 58.2539ZM48.1836 62.1211C48.4062 62.2266 48.7344 62.5195 48.8984 62.7773L49.2148 63.2578V69.7148V76.1719L48.8984 76.6523C48.0898 77.8828 46.2852 77.8008 45.5586 76.5117L45.2891 76.043V69.7148V63.3867L45.5586 62.918C46.0859 61.9805 47.1875 61.6523 48.1836 62.1211ZM60.1602 62.2734C60.3711 62.4141 60.6523 62.7539 60.7695 63.0234C60.9688 63.4688 60.9922 63.9023 60.9922 69.7148C60.9922 75.5273 60.9688 75.9609 60.7695 76.4062C60.4297 77.1445 59.9258 77.4492 59 77.4492C58.0742 77.4492 57.5703 77.1445 57.2305 76.4062C57.0312 75.9609 57.0078 75.5273 57.0078 69.7148C57.0078 63.9023 57.0312 63.4688 57.2305 63.0234C57.4297 62.5898 57.8516 62.1797 58.2969 62.0039C58.6953 61.8398 59.7734 61.9922 60.1602 62.2734ZM71.8672 62.2266C72.043 62.3555 72.3008 62.6953 72.4531 62.9766L72.7109 63.4922V69.7734V76.043L72.4414 76.5117C72.0664 77.168 71.5156 77.5078 70.8125 77.5078C70.0391 77.5078 69.4766 77.2266 69.1016 76.6523L68.7852 76.1719V69.7148V63.2578L69.0898 62.7891C69.2656 62.5195 69.582 62.2266 69.793 62.1094C70.3203 61.8516 71.4219 61.9102 71.8672 62.2266Z" fill="#30303C"/>
</g>
<defs>
<clipPath id="clip0_157_90">
<rect width="60" height="60" fill="white" transform="translate(29 27)"/>
</clipPath>
</defs>
</svg>
