<svg width="118" height="139" viewBox="0 0 118 139" fill="none" xmlns="http://www.w3.org/2000/svg">
<rect width="118" height="139" fill="#30303C"/>
<path d="M56.0318 108.622C56.5751 96.0028 54.7783 84.2195 47.3406 73.8151C47.2988 73.7316 47.3824 73.648 47.4242 73.7316C50.767 75.988 53.2323 79.0382 55.2379 82.4646C57.2854 85.9327 58.4971 89.6933 59.3328 93.6211C59.3328 93.7047 59.4582 93.7047 59.4582 93.6211C62.9681 85.097 63.0099 76.364 61.1296 67.4221C61.1296 67.3803 61.0878 67.3803 61.046 67.3803C55.4469 68.2996 51.4355 65.3746 47.8003 61.9901C44.7918 59.1905 42.2011 55.9731 39.4433 52.9228C39.1508 52.5885 38.8583 52.2125 38.4405 51.6275C38.3987 51.5857 38.3569 51.5857 38.3151 51.6275C38.0644 52.2542 37.8137 52.7557 37.6466 53.2571C34.3038 63.2436 35.432 72.9377 39.4851 82.4228C41.449 87.0191 43.9979 91.2394 47.0899 95.1671C47.3406 95.5014 47.5913 95.8775 47.7167 96.2953C39.8612 89.9858 34.0113 82.2974 32.131 72.1438C30.2089 61.7812 32.6324 52.2125 37.8555 42.8945C37.8973 42.8527 37.9391 42.8527 37.9809 42.8945C38.3569 43.563 38.6494 44.0227 38.8583 44.4405C42.9532 51.7946 48.2599 58.0205 55.4886 62.4915C56.8258 63.3272 58.2464 63.9122 60.0432 63.3272C60.085 63.3272 60.085 63.2854 60.085 63.2436C57.6197 54.7613 53.8173 47.0729 49.012 39.886C49.012 39.8442 49.012 39.8024 49.012 39.8024C53.3994 36.2507 62.9263 37.7549 65.3498 42.393C65.3916 42.4348 65.3081 42.5184 65.2663 42.4766C64.3888 42.2259 63.5949 42.1423 62.7592 41.9334C61.5474 41.6409 61.2967 41.5574 59.9178 41.3066C59.5 41.2231 58.4554 41.0977 57.5361 41.0977C56.9511 41.0977 56.3243 41.0142 55.6976 41.0977C55.4886 41.2649 55.4051 41.3902 55.4051 41.6409C55.6558 42.1423 55.8647 42.6855 56.1572 43.1452C60.9624 51.335 64.5559 60.0262 65.9766 69.4695C67.9823 82.8824 65.5588 95.3343 57.8286 106.616C57.4525 107.201 56.9929 107.744 56.5751 108.288C56.5333 108.413 56.3661 108.455 56.0318 108.622Z" fill="#FEFAD4"/>
<path d="M70.9073 96.4624C81.3952 83.1331 86.493 68.6756 80.6013 51.3768C76.6736 56.8923 72.4533 61.5722 66.7288 65.1239C66.3527 63.745 65.9349 62.5333 65.6842 61.3215C65.6424 61.0708 65.9349 60.5694 66.2274 60.3605C72.2862 55.6388 77.2168 49.9561 80.9356 42.7691C85.5737 50.75 88.039 59.0234 87.454 68.0071C86.7019 80.2082 80.2253 89.1919 70.9073 96.4624Z" fill="#FEFAD4"/>
</svg>
