<svg width="17" height="17" viewBox="0 0 17 17" fill="none" xmlns="http://www.w3.org/2000/svg">
<g clip-path="url(#clip0_49_52)">
<path d="M12.5109 9.33672H4.48905C4.04081 9.33672 3.67889 8.97481 3.67889 8.52657V8.47344C3.67889 8.0252 4.04081 7.66328 4.48905 7.66328H12.5109C12.9592 7.66328 13.3211 8.0252 13.3211 8.47344V8.52657C13.3211 8.97481 12.9592 9.33672 12.5109 9.33672Z" fill="#30303C"/>
<path d="M8.5 0.415039C4.03418 0.415039 0.415039 4.03418 0.415039 8.5C0.415039 12.9658 4.03418 16.585 8.5 16.585C12.9658 16.585 16.585 12.9658 16.585 8.5C16.585 4.03418 12.9658 0.415039 8.5 0.415039ZM8.5 15.5158C4.6252 15.5158 1.48418 12.3748 1.48418 8.5C1.48418 4.6252 4.6252 1.48418 8.5 1.48418C12.3748 1.48418 15.5158 4.6252 15.5158 8.5C15.5158 12.3748 12.3748 15.5158 8.5 15.5158Z" fill="#30303C"/>
</g>
<defs>
<clipPath id="clip0_49_52">
<rect width="17" height="17" fill="white"/>
</clipPath>
</defs>
</svg>
