<svg width="14" height="15" viewBox="0 0 14 15" fill="none" xmlns="http://www.w3.org/2000/svg">
<path d="M12.654 0.936H9.138L8.865 0.39C8.745 0.15 8.502 0 8.235 0H4.884C4.617 0 4.374 0.15 4.257 0.39L3.981 0.939H0.468C0.21 0.939 0 1.149 0 1.407V2.343C0 2.601 0.21 2.811 0.468 2.811H12.654C12.912 2.811 13.122 2.601 13.122 2.343V1.407C13.125 1.146 12.915 0.936 12.654 0.936Z" fill="#30303C"/>
<path d="M0.936035 13.593C0.936035 14.37 1.56604 15 2.34304 15H10.779C11.556 15 12.186 14.37 12.186 13.593V3.75H0.936035V13.593ZM8.90404 6.093C8.90404 5.835 9.11404 5.625 9.37204 5.625C9.63004 5.625 9.84003 5.835 9.84003 6.093V12.657C9.84003 12.915 9.63004 13.125 9.37204 13.125C9.11404 13.125 8.90404 12.915 8.90404 12.657V6.093ZM6.09303 6.093C6.09303 5.835 6.30304 5.625 6.56104 5.625C6.81904 5.625 7.02904 5.835 7.02904 6.093V12.657C7.02904 12.915 6.81904 13.125 6.56104 13.125C6.30304 13.125 6.09303 12.915 6.09303 12.657V6.093ZM3.27904 6.093C3.27904 5.835 3.48903 5.625 3.74704 5.625C4.00503 5.625 4.21504 5.835 4.21504 6.093V12.657C4.21504 12.915 4.00503 13.125 3.74704 13.125C3.48903 13.125 3.27904 12.915 3.27904 12.657V6.093Z" fill="#30303C"/>
</svg>
